<?xml version="1.0" encoding="UTF-8" standalone="no"?>
<svg
   xmlns:dc="http://purl.org/dc/elements/1.1/"
   xmlns:cc="http://creativecommons.org/ns#"
   xmlns:rdf="http://www.w3.org/1999/02/22-rdf-syntax-ns#"
   xmlns:svg="http://www.w3.org/2000/svg"
   xmlns="http://www.w3.org/2000/svg"
   xmlns:sodipodi="http://sodipodi.sourceforge.net/DTD/sodipodi-0.dtd"
   xmlns:inkscape="http://www.inkscape.org/namespaces/inkscape"
   version="1.1"
   id="svg2"
   xml:space="preserve"
   width="345.33334"
   height="269.33334"
   viewBox="0 0 345.33334 269.33334"
   sodipodi:docname="8-10.eps"><metadata
     id="metadata8"><rdf:RDF><cc:Work
         rdf:about=""><dc:format>image/svg+xml</dc:format><dc:type
           rdf:resource="http://purl.org/dc/dcmitype/StillImage" /></cc:Work></rdf:RDF></metadata><defs
     id="defs6" /><sodipodi:namedview
     pagecolor="#ffffff"
     bordercolor="#666666"
     borderopacity="1"
     objecttolerance="10"
     gridtolerance="10"
     guidetolerance="10"
     inkscape:pageopacity="0"
     inkscape:pageshadow="2"
     inkscape:window-width="640"
     inkscape:window-height="480"
     id="namedview4" /><g
     id="g10"
     inkscape:groupmode="layer"
     inkscape:label="ink_ext_XXXXXX"
     transform="matrix(1.3333333,0,0,-1.3333333,0,269.33333)"><g
       id="g12"
       transform="scale(0.1)"><path
         d="m 11.4219,1657.86 c 0,53.71 87.0898,97.25 194.5121,97.25 51.597,0 101.066,-10.24 137.558,-28.48 36.469,-18.24 56.969,-42.97 56.969,-68.77 v -64.84 c 0,-53.72 -87.086,-97.27 -194.527,-97.27 -107.4223,0 -194.5121,43.55 -194.5121,97.27 v 64.84"
         style="fill:#c9e4f3;fill-opacity:1;fill-rule:nonzero;stroke:none"
         id="path14" /><path
         d="m 11.4219,1657.86 c 0,53.71 87.0898,97.25 194.5121,97.25 51.597,0 101.066,-10.24 137.558,-28.48 36.469,-18.24 56.969,-42.97 56.969,-68.77 v -64.84 c 0,-53.72 -87.086,-97.27 -194.527,-97.27 -107.4223,0 -194.5121,43.55 -194.5121,97.27 z"
         style="fill:none;stroke:#293985;stroke-width:5.0003;stroke-linecap:butt;stroke-linejoin:miter;stroke-miterlimit:10;stroke-dasharray:none;stroke-opacity:1"
         id="path16" /><path
         d="m 11.4219,1722.69 c 0,53.72 87.0898,97.27 194.5121,97.27 51.597,0 101.066,-10.24 137.558,-28.5 36.469,-18.25 56.969,-42.97 56.969,-68.77 v -64.83 c 0,-53.72 -87.086,-97.26 -194.527,-97.26 -107.4223,0 -194.5121,43.54 -194.5121,97.26 v 64.83"
         style="fill:#c9e4f3;fill-opacity:1;fill-rule:nonzero;stroke:none"
         id="path18" /><path
         d="m 11.4219,1722.69 c 0,53.72 87.0898,97.27 194.5121,97.27 51.597,0 101.066,-10.24 137.558,-28.5 36.469,-18.25 56.969,-42.97 56.969,-68.77 v -64.83 c 0,-53.72 -87.086,-97.26 -194.527,-97.26 -107.4223,0 -194.5121,43.54 -194.5121,97.26 z"
         style="fill:none;stroke:#293985;stroke-width:5.0003;stroke-linecap:butt;stroke-linejoin:miter;stroke-miterlimit:10;stroke-dasharray:none;stroke-opacity:1"
         id="path20" /><path
         d="m 11.4219,1787.54 c 0,53.72 87.0898,97.27 194.5121,97.27 51.597,0 101.066,-10.25 137.558,-28.49 36.469,-18.25 56.969,-42.99 56.969,-68.78 v -64.85 c 0,-53.71 -87.086,-97.25 -194.527,-97.25 -107.4223,0 -194.5121,43.54 -194.5121,97.25 v 64.85"
         style="fill:#c9e4f3;fill-opacity:1;fill-rule:nonzero;stroke:none"
         id="path22" /><path
         d="m 11.4219,1787.54 c 0,53.72 87.0898,97.27 194.5121,97.27 51.597,0 101.066,-10.25 137.558,-28.49 36.469,-18.25 56.969,-42.99 56.969,-68.78 v -64.85 c 0,-53.71 -87.086,-97.25 -194.527,-97.25 -107.4223,0 -194.5121,43.54 -194.5121,97.25 z"
         style="fill:none;stroke:#293985;stroke-width:5.0003;stroke-linecap:butt;stroke-linejoin:miter;stroke-miterlimit:10;stroke-dasharray:none;stroke-opacity:1"
         id="path24" /><path
         d="m 11.4219,1852.38 c 0,53.71 87.0898,97.26 194.5121,97.26 51.597,0 101.066,-10.25 137.558,-28.48 36.469,-18.24 56.969,-42.98 56.969,-68.78 v -64.84 c 0,-53.72 -87.086,-97.27 -194.527,-97.27 -107.4223,0 -194.5121,43.55 -194.5121,97.27 v 64.84"
         style="fill:#c9e4f3;fill-opacity:1;fill-rule:nonzero;stroke:none"
         id="path26" /><path
         d="m 11.4219,1852.38 c 0,53.71 87.0898,97.26 194.5121,97.26 51.597,0 101.066,-10.25 137.558,-28.48 36.469,-18.24 56.969,-42.98 56.969,-68.78 v -64.84 c 0,-53.72 -87.086,-97.27 -194.527,-97.27 -107.4223,0 -194.5121,43.55 -194.5121,97.27 z"
         style="fill:none;stroke:#293985;stroke-width:5.0003;stroke-linecap:butt;stroke-linejoin:miter;stroke-miterlimit:10;stroke-dasharray:none;stroke-opacity:1"
         id="path28" /><path
         d="m 10.8477,1917.21 c 0,53.72 87.0976,97.27 194.5233,97.27 51.586,0 101.067,-10.25 137.555,-28.49 36.469,-18.23 56.957,-42.99 56.957,-68.78 v -64.83 c 0,-53.72 -87.074,-97.27 -194.512,-97.27 -107.4257,0 -194.5233,43.55 -194.5233,97.27 v 64.83"
         style="fill:#c9e4f3;fill-opacity:1;fill-rule:nonzero;stroke:none"
         id="path30" /><path
         d="m 10.8477,1917.21 c 0,53.72 87.0976,97.27 194.5233,97.27 51.586,0 101.067,-10.25 137.555,-28.49 36.469,-18.23 56.957,-42.99 56.957,-68.78 v -64.83 c 0,-53.72 -87.074,-97.27 -194.512,-97.27 -107.4257,0 -194.5233,43.55 -194.5233,97.27 z"
         style="fill:none;stroke:#293985;stroke-width:5.0003;stroke-linecap:butt;stroke-linejoin:miter;stroke-miterlimit:10;stroke-dasharray:none;stroke-opacity:1"
         id="path32" /><path
         d="m 400.461,1917.21 c 0,-53.7 -87.086,-97.25 -194.527,-97.25 -107.4223,0 -194.5121,43.55 -194.5121,97.25 H 400.461"
         style="fill:#c9e4f3;fill-opacity:1;fill-rule:nonzero;stroke:none"
         id="path34" /><path
         d="m 400.461,1917.21 c 0,-53.7 -87.086,-97.25 -194.527,-97.25 -107.4223,0 -194.5121,43.55 -194.5121,97.25"
         style="fill:none;stroke:#293985;stroke-width:5.0003;stroke-linecap:butt;stroke-linejoin:miter;stroke-miterlimit:10;stroke-dasharray:none;stroke-opacity:1"
         id="path36" /><path
         d="m 11.4219,879.766 c 0,53.718 87.0898,97.269 194.5121,97.269 51.597,0 101.066,-10.25 137.558,-28.488 36.469,-18.25 56.969,-42.992 56.969,-68.781 v -64.828 c 0,-53.723 -87.086,-97.274 -194.527,-97.274 -107.4223,0 -194.5121,43.551 -194.5121,97.274 v 64.828"
         style="fill:#fcfccf;fill-opacity:1;fill-rule:nonzero;stroke:none"
         id="path38" /><path
         d="m 11.4219,879.766 c 0,53.718 87.0898,97.269 194.5121,97.269 51.597,0 101.066,-10.25 137.558,-28.488 36.469,-18.25 56.969,-42.992 56.969,-68.781 v -64.828 c 0,-53.723 -87.086,-97.274 -194.527,-97.274 -107.4223,0 -194.5121,43.551 -194.5121,97.274 z"
         style="fill:none;stroke:#c49d19;stroke-width:5.0003;stroke-linecap:butt;stroke-linejoin:miter;stroke-miterlimit:4;stroke-dasharray:none;stroke-opacity:1"
         id="path40" /><path
         d="m 11.4219,944.617 c 0,53.719 87.0898,97.263 194.5121,97.263 51.597,0 101.066,-10.26 137.558,-28.48 36.469,-18.255 56.969,-42.994 56.969,-68.783 v -64.851 c 0,-53.7 -87.086,-97.25 -194.527,-97.25 -107.4223,0 -194.5121,43.55 -194.5121,97.25 v 64.851"
         style="fill:#fcfccf;fill-opacity:1;fill-rule:nonzero;stroke:none"
         id="path42" /><path
         d="m 11.4219,944.617 c 0,53.719 87.0898,97.263 194.5121,97.263 51.597,0 101.066,-10.26 137.558,-28.48 36.469,-18.255 56.969,-42.994 56.969,-68.783 v -64.851 c 0,-53.7 -87.086,-97.25 -194.527,-97.25 -107.4223,0 -194.5121,43.55 -194.5121,97.25 z"
         style="fill:none;stroke:#c49d19;stroke-width:5.0003;stroke-linecap:butt;stroke-linejoin:miter;stroke-miterlimit:4;stroke-dasharray:none;stroke-opacity:1"
         id="path44" /><path
         d="m 11.4219,1009.46 c 0,53.7 87.0898,97.26 194.5121,97.26 51.597,0 101.066,-10.25 137.558,-28.5 36.469,-18.23 56.969,-42.97 56.969,-68.76 v -64.843 c 0,-53.722 -87.086,-97.265 -194.527,-97.265 -107.4223,0 -194.5121,43.543 -194.5121,97.265 v 64.843"
         style="fill:#fcfccf;fill-opacity:1;fill-rule:nonzero;stroke:none"
         id="path46" /><path
         d="m 11.4219,1009.46 c 0,53.7 87.0898,97.26 194.5121,97.26 51.597,0 101.066,-10.25 137.558,-28.5 36.469,-18.23 56.969,-42.97 56.969,-68.76 v -64.843 c 0,-53.722 -87.086,-97.265 -194.527,-97.265 -107.4223,0 -194.5121,43.543 -194.5121,97.265 z"
         style="fill:none;stroke:#c49d19;stroke-width:5.0003;stroke-linecap:butt;stroke-linejoin:miter;stroke-miterlimit:4;stroke-dasharray:none;stroke-opacity:1"
         id="path48" /><path
         d="m 400.461,1009.46 c 0,-53.726 -87.086,-97.269 -194.527,-97.269 -107.4223,0 -194.5121,43.543 -194.5121,97.269 H 400.461"
         style="fill:#fcfccf;fill-opacity:1;fill-rule:nonzero;stroke:none"
         id="path50" /><path
         d="m 400.461,1009.46 c 0,-53.726 -87.086,-97.269 -194.527,-97.269 -107.4223,0 -194.5121,43.543 -194.5121,97.269"
         style="fill:none;stroke:#c49d19;stroke-width:5.0003;stroke-linecap:butt;stroke-linejoin:miter;stroke-miterlimit:4;stroke-dasharray:none;stroke-opacity:1"
         id="path52" /><path
         d="m 11.4219,1074.29 c 0,53.72 87.0898,97.27 194.5121,97.27 51.597,0 101.066,-10.25 137.558,-28.49 36.469,-18.25 56.969,-42.98 56.969,-68.78 v -64.83 c 0,-53.726 -87.086,-97.269 -194.527,-97.269 -107.4223,0 -194.5121,43.543 -194.5121,97.269 v 64.83"
         style="fill:#fcfccf;fill-opacity:1;fill-rule:nonzero;stroke:none"
         id="path54" /><path
         d="m 11.4219,1074.29 c 0,53.72 87.0898,97.27 194.5121,97.27 51.597,0 101.066,-10.25 137.558,-28.49 36.469,-18.25 56.969,-42.98 56.969,-68.78 v -64.83 c 0,-53.726 -87.086,-97.269 -194.527,-97.269 -107.4223,0 -194.5121,43.543 -194.5121,97.269 z"
         style="fill:none;stroke:#c49d19;stroke-width:5.0003;stroke-linecap:butt;stroke-linejoin:miter;stroke-miterlimit:4;stroke-dasharray:none;stroke-opacity:1"
         id="path56" /><path
         d="m 400.461,1074.29 c 0,-53.7 -87.086,-97.255 -194.527,-97.255 -107.4223,0 -194.5121,43.555 -194.5121,97.255 H 400.461"
         style="fill:#fcfccf;fill-opacity:1;fill-rule:nonzero;stroke:none"
         id="path58" /><path
         d="m 400.461,1074.29 c 0,-53.7 -87.086,-97.255 -194.527,-97.255 -107.4223,0 -194.5121,43.555 -194.5121,97.255"
         style="fill:none;stroke:#c49d19;stroke-width:5.0003;stroke-linecap:butt;stroke-linejoin:miter;stroke-miterlimit:4;stroke-dasharray:none;stroke-opacity:1"
         id="path60" /><path
         d="m 10.8477,1139.14 c 0,53.71 87.0976,97.25 194.5233,97.25 51.586,0 101.067,-10.24 137.555,-28.48 36.469,-18.24 56.957,-42.98 56.957,-68.77 v -64.85 c 0,-53.7 -87.074,-97.255 -194.512,-97.255 -107.4257,0 -194.5233,43.555 -194.5233,97.255 v 64.85"
         style="fill:#fcfccf;fill-opacity:1;fill-rule:nonzero;stroke:none"
         id="path62" /><path
         d="m 10.8477,1139.14 c 0,53.71 87.0976,97.25 194.5233,97.25 51.586,0 101.067,-10.24 137.555,-28.48 36.469,-18.24 56.957,-42.98 56.957,-68.77 v -64.85 c 0,-53.7 -87.074,-97.255 -194.512,-97.255 -107.4257,0 -194.5233,43.555 -194.5233,97.255 z"
         style="fill:none;stroke:#c49d19;stroke-width:5.0003;stroke-linecap:butt;stroke-linejoin:miter;stroke-miterlimit:4;stroke-dasharray:none;stroke-opacity:1"
         id="path64" /><path
         d="m 400.461,1139.14 c 0,-53.72 -87.086,-97.26 -194.527,-97.26 -107.4223,0 -194.5121,43.54 -194.5121,97.26 H 400.461"
         style="fill:#fcfccf;fill-opacity:1;fill-rule:nonzero;stroke:none"
         id="path66" /><path
         d="m 400.461,1139.14 c 0,-53.72 -87.086,-97.26 -194.527,-97.26 -107.4223,0 -194.5121,43.54 -194.5121,97.26"
         style="fill:none;stroke:#c49d19;stroke-width:5.0003;stroke-linecap:butt;stroke-linejoin:miter;stroke-miterlimit:4;stroke-dasharray:none;stroke-opacity:1"
         id="path68" /><path
         d="m 11.4219,166.535 c 0,53.699 87.0898,97.262 194.5121,97.262 51.597,0 101.066,-10.262 137.558,-28.5 36.469,-18.231 56.969,-42.973 56.969,-68.762 v -64.84 C 400.461,47.9766 313.375,4.42578 205.934,4.42578 98.5117,4.42578 11.4219,47.9766 11.4219,101.695 v 64.84"
         style="fill:#f792a4;fill-opacity:1;fill-rule:nonzero;stroke:none"
         id="path70" /><path
         d="m 11.4219,166.535 c 0,53.699 87.0898,97.262 194.5121,97.262 51.597,0 101.066,-10.262 137.558,-28.5 36.469,-18.231 56.969,-42.973 56.969,-68.762 v -64.84 C 400.461,47.9766 313.375,4.42578 205.934,4.42578 98.5117,4.42578 11.4219,47.9766 11.4219,101.695 Z"
         style="fill:none;stroke:#b74248;stroke-width:5.0003;stroke-linecap:butt;stroke-linejoin:miter;stroke-miterlimit:10;stroke-dasharray:none;stroke-opacity:1"
         id="path72" /><path
         d="m 11.4219,231.367 c 0,53.707 87.0898,97.27 194.5121,97.27 51.597,0 101.066,-10.25 137.558,-28.5 36.469,-18.242 56.969,-42.981 56.969,-68.77 v -64.832 c 0,-53.719 -87.086,-97.2694 -194.527,-97.2694 -107.4223,0 -194.5121,43.5504 -194.5121,97.2694 v 64.832"
         style="fill:#f792a4;fill-opacity:1;fill-rule:nonzero;stroke:none"
         id="path74" /><path
         d="m 11.4219,231.367 c 0,53.707 87.0898,97.27 194.5121,97.27 51.597,0 101.066,-10.25 137.558,-28.5 36.469,-18.242 56.969,-42.981 56.969,-68.77 v -64.832 c 0,-53.719 -87.086,-97.2694 -194.527,-97.2694 -107.4223,0 -194.5121,43.5504 -194.5121,97.2694 z"
         style="fill:none;stroke:#b74248;stroke-width:5.0003;stroke-linecap:butt;stroke-linejoin:miter;stroke-miterlimit:10;stroke-dasharray:none;stroke-opacity:1"
         id="path76" /><path
         d="m 11.4219,296.215 c 0,53.711 87.0898,97.262 194.5121,97.262 51.597,0 101.066,-10.262 137.558,-28.489 36.469,-18.254 56.969,-42.98 56.969,-68.773 v -64.848 c 0,-53.711 -87.086,-97.25 -194.527,-97.25 -107.4223,0 -194.5121,43.539 -194.5121,97.25 v 64.848"
         style="fill:#f792a4;fill-opacity:1;fill-rule:nonzero;stroke:none"
         id="path78" /><path
         d="m 11.4219,296.215 c 0,53.711 87.0898,97.262 194.5121,97.262 51.597,0 101.066,-10.262 137.558,-28.489 36.469,-18.254 56.969,-42.98 56.969,-68.773 v -64.848 c 0,-53.711 -87.086,-97.25 -194.527,-97.25 -107.4223,0 -194.5121,43.539 -194.5121,97.25 z"
         style="fill:none;stroke:#b74248;stroke-width:5.0003;stroke-linecap:butt;stroke-linejoin:miter;stroke-miterlimit:10;stroke-dasharray:none;stroke-opacity:1"
         id="path80" /><path
         d="m 11.4219,361.055 c 0,53.703 87.0898,97.25 194.5121,97.25 51.597,0 101.066,-10.25 137.558,-28.489 36.469,-18.23 56.969,-42.968 56.969,-68.761 v -64.84 c 0,-53.719 -87.086,-97.277 -194.527,-97.277 -107.4223,0 -194.5121,43.558 -194.5121,97.277 v 64.84"
         style="fill:#f792a4;fill-opacity:1;fill-rule:nonzero;stroke:none"
         id="path82" /><path
         d="m 11.4219,361.055 c 0,53.703 87.0898,97.25 194.5121,97.25 51.597,0 101.066,-10.25 137.558,-28.489 36.469,-18.23 56.969,-42.968 56.969,-68.761 v -64.84 c 0,-53.719 -87.086,-97.277 -194.527,-97.277 -107.4223,0 -194.5121,43.558 -194.5121,97.277 z"
         style="fill:none;stroke:#b74248;stroke-width:5.0003;stroke-linecap:butt;stroke-linejoin:miter;stroke-miterlimit:10;stroke-dasharray:none;stroke-opacity:1"
         id="path84" /><path
         d="m 10.8477,425.891 c 0,53.714 87.0976,97.254 194.5233,97.254 51.586,0 101.067,-10.239 137.555,-28.489 36.469,-18.242 56.957,-42.965 56.957,-68.765 v -64.836 c 0,-53.719 -87.074,-97.258 -194.512,-97.258 -107.4257,0 -194.5233,43.539 -194.5233,97.258 v 64.836"
         style="fill:#f792a4;fill-opacity:1;fill-rule:nonzero;stroke:none"
         id="path86" /><path
         d="m 10.8477,425.891 c 0,53.714 87.0976,97.254 194.5233,97.254 51.586,0 101.067,-10.239 137.555,-28.489 36.469,-18.242 56.957,-42.965 56.957,-68.765 v -64.836 c 0,-53.719 -87.074,-97.258 -194.512,-97.258 -107.4257,0 -194.5233,43.539 -194.5233,97.258 z"
         style="fill:none;stroke:#b74248;stroke-width:5.0003;stroke-linecap:butt;stroke-linejoin:miter;stroke-miterlimit:10;stroke-dasharray:none;stroke-opacity:1"
         id="path88" /><path
         d="m 400.461,425.891 c 0,-53.715 -87.086,-97.254 -194.527,-97.254 -107.4223,0 -194.5121,43.539 -194.5121,97.254 H 400.461"
         style="fill:#f792a4;fill-opacity:1;fill-rule:nonzero;stroke:none"
         id="path90" /><path
         d="m 400.461,425.891 c 0,-53.715 -87.086,-97.254 -194.527,-97.254 -107.4223,0 -194.5121,43.539 -194.5121,97.254"
         style="fill:none;stroke:#b74248;stroke-width:5.0003;stroke-linecap:butt;stroke-linejoin:miter;stroke-miterlimit:10;stroke-dasharray:none;stroke-opacity:1"
         id="path92" /><path
         d="M 525.914,263.797 H 1996.49"
         style="fill:none;stroke:#100f0d;stroke-width:5.0003;stroke-linecap:butt;stroke-linejoin:miter;stroke-miterlimit:10;stroke-dasharray:none;stroke-opacity:1"
         id="path94" /><path
         d="m 1986.58,249.258 54.21,14.539 -54.21,14.519 z"
         style="fill:#100f0d;fill-opacity:1;fill-rule:nonzero;stroke:none"
         id="path96" /><path
         d="M 525.914,977.035 H 1996.49"
         style="fill:none;stroke:#100f0d;stroke-width:5.0003;stroke-linecap:butt;stroke-linejoin:miter;stroke-miterlimit:10;stroke-dasharray:none;stroke-opacity:1"
         id="path98" /><path
         d="m 1986.58,962.516 54.21,14.519 -54.21,14.524 z"
         style="fill:#100f0d;fill-opacity:1;fill-rule:nonzero;stroke:none"
         id="path100" /><path
         d="M 525.914,1755.11 H 1996.49"
         style="fill:none;stroke:#100f0d;stroke-width:5.0003;stroke-linecap:butt;stroke-linejoin:miter;stroke-miterlimit:10;stroke-dasharray:none;stroke-opacity:1"
         id="path102" /><path
         d="m 1986.58,1740.59 54.21,14.52 -54.21,14.53 z"
         style="fill:#100f0d;fill-opacity:1;fill-rule:nonzero;stroke:none"
         id="path104" /><path
         d="m 2192.87,1657.86 c 0,53.71 87.08,97.25 194.52,97.25 51.59,0 101.06,-10.24 137.54,-28.48 36.48,-18.24 56.98,-42.97 56.98,-68.77 v -64.84 c 0,-53.72 -87.1,-97.27 -194.52,-97.27 -107.44,0 -194.52,43.55 -194.52,97.27 v 64.84"
         style="fill:#c9e4f3;fill-opacity:1;fill-rule:nonzero;stroke:none"
         id="path106" /><path
         d="m 2192.87,1657.86 c 0,53.71 87.08,97.25 194.52,97.25 51.59,0 101.06,-10.24 137.54,-28.48 36.48,-18.24 56.98,-42.97 56.98,-68.77 v -64.84 c 0,-53.72 -87.1,-97.27 -194.52,-97.27 -107.44,0 -194.52,43.55 -194.52,97.27 z"
         style="fill:none;stroke:#293985;stroke-width:5.0003;stroke-linecap:butt;stroke-linejoin:miter;stroke-miterlimit:10;stroke-dasharray:none;stroke-opacity:1"
         id="path108" /><path
         d="m 2192.87,1722.69 c 0,53.72 87.08,97.27 194.52,97.27 51.59,0 101.06,-10.24 137.54,-28.5 36.48,-18.25 56.98,-42.97 56.98,-68.77 v -64.83 c 0,-53.72 -87.1,-97.26 -194.52,-97.26 -107.44,0 -194.52,43.54 -194.52,97.26 v 64.83"
         style="fill:#c9e4f3;fill-opacity:1;fill-rule:nonzero;stroke:none"
         id="path110" /><path
         d="m 2192.87,1722.69 c 0,53.72 87.08,97.27 194.52,97.27 51.59,0 101.06,-10.24 137.54,-28.5 36.48,-18.25 56.98,-42.97 56.98,-68.77 v -64.83 c 0,-53.72 -87.1,-97.26 -194.52,-97.26 -107.44,0 -194.52,43.54 -194.52,97.26 z"
         style="fill:none;stroke:#293985;stroke-width:5.0003;stroke-linecap:butt;stroke-linejoin:miter;stroke-miterlimit:10;stroke-dasharray:none;stroke-opacity:1"
         id="path112" /><path
         d="m 2192.87,1787.54 c 0,53.72 87.08,97.27 194.52,97.27 51.59,0 101.06,-10.25 137.54,-28.49 36.48,-18.25 56.98,-42.99 56.98,-68.78 v -64.85 c 0,-53.71 -87.1,-97.25 -194.52,-97.25 -107.44,0 -194.52,43.54 -194.52,97.25 v 64.85"
         style="fill:#c9e4f3;fill-opacity:1;fill-rule:nonzero;stroke:none"
         id="path114" /><path
         d="m 2192.87,1787.54 c 0,53.72 87.08,97.27 194.52,97.27 51.59,0 101.06,-10.25 137.54,-28.49 36.48,-18.25 56.98,-42.99 56.98,-68.78 v -64.85 c 0,-53.71 -87.1,-97.25 -194.52,-97.25 -107.44,0 -194.52,43.54 -194.52,97.25 z"
         style="fill:none;stroke:#293985;stroke-width:5.0003;stroke-linecap:butt;stroke-linejoin:miter;stroke-miterlimit:10;stroke-dasharray:none;stroke-opacity:1"
         id="path116" /><path
         d="m 2192.87,1852.38 c 0,53.71 87.08,97.26 194.52,97.26 51.59,0 101.06,-10.25 137.54,-28.48 36.48,-18.24 56.98,-42.98 56.98,-68.78 v -64.84 c 0,-53.72 -87.1,-97.27 -194.52,-97.27 -107.44,0 -194.52,43.55 -194.52,97.27 v 64.84"
         style="fill:#c9e4f3;fill-opacity:1;fill-rule:nonzero;stroke:none"
         id="path118" /><path
         d="m 2192.87,1852.38 c 0,53.71 87.08,97.26 194.52,97.26 51.59,0 101.06,-10.25 137.54,-28.48 36.48,-18.24 56.98,-42.98 56.98,-68.78 v -64.84 c 0,-53.72 -87.1,-97.27 -194.52,-97.27 -107.44,0 -194.52,43.55 -194.52,97.27 z"
         style="fill:none;stroke:#293985;stroke-width:5.0003;stroke-linecap:butt;stroke-linejoin:miter;stroke-miterlimit:10;stroke-dasharray:none;stroke-opacity:1"
         id="path120" /><path
         d="m 2192.87,1917.21 c 0,53.72 87.08,97.27 194.52,97.27 51.59,0 101.06,-10.25 137.54,-28.49 36.48,-18.23 56.98,-42.99 56.98,-68.78 v -64.83 c 0,-53.72 -87.1,-97.27 -194.52,-97.27 -107.44,0 -194.52,43.55 -194.52,97.27 v 64.83"
         style="fill:#c9e4f3;fill-opacity:1;fill-rule:nonzero;stroke:none"
         id="path122" /><path
         d="m 2192.87,1917.21 c 0,53.72 87.08,97.27 194.52,97.27 51.59,0 101.06,-10.25 137.54,-28.49 36.48,-18.23 56.98,-42.99 56.98,-68.78 v -64.83 c 0,-53.72 -87.1,-97.27 -194.52,-97.27 -107.44,0 -194.52,43.55 -194.52,97.27 z"
         style="fill:none;stroke:#293985;stroke-width:5.0003;stroke-linecap:butt;stroke-linejoin:miter;stroke-miterlimit:10;stroke-dasharray:none;stroke-opacity:1"
         id="path124" /><path
         d="m 2581.91,1917.21 c 0,-53.7 -87.1,-97.25 -194.52,-97.25 -107.44,0 -194.52,43.55 -194.52,97.25 h 389.04"
         style="fill:#c9e4f3;fill-opacity:1;fill-rule:nonzero;stroke:none"
         id="path126" /><path
         d="m 2581.91,1917.21 c 0,-53.7 -87.1,-97.25 -194.52,-97.25 -107.44,0 -194.52,43.55 -194.52,97.25"
         style="fill:none;stroke:#293985;stroke-width:5.0003;stroke-linecap:butt;stroke-linejoin:miter;stroke-miterlimit:10;stroke-dasharray:none;stroke-opacity:1"
         id="path128" /><path
         d="m 2192.87,879.766 c 0,53.718 87.08,97.269 194.52,97.269 51.59,0 101.06,-10.25 137.54,-28.488 36.48,-18.25 56.98,-42.992 56.98,-68.781 v -64.828 c 0,-53.723 -87.1,-97.274 -194.52,-97.274 -107.44,0 -194.52,43.551 -194.52,97.274 v 64.828"
         style="fill:#fcfccf;fill-opacity:1;fill-rule:nonzero;stroke:none"
         id="path130" /><path
         d="m 2192.87,879.766 c 0,53.718 87.08,97.269 194.52,97.269 51.59,0 101.06,-10.25 137.54,-28.488 36.48,-18.25 56.98,-42.992 56.98,-68.781 v -64.828 c 0,-53.723 -87.1,-97.274 -194.52,-97.274 -107.44,0 -194.52,43.551 -194.52,97.274 z"
         style="fill:none;stroke:#c49d19;stroke-width:5.0003;stroke-linecap:butt;stroke-linejoin:miter;stroke-miterlimit:4;stroke-dasharray:none;stroke-opacity:1"
         id="path132" /><path
         d="m 2192.87,944.617 c 0,53.719 87.08,97.263 194.52,97.263 51.59,0 101.06,-10.26 137.54,-28.48 36.48,-18.255 56.98,-42.994 56.98,-68.783 v -64.851 c 0,-53.7 -87.1,-97.25 -194.52,-97.25 -107.44,0 -194.52,43.55 -194.52,97.25 v 64.851"
         style="fill:#fcfccf;fill-opacity:1;fill-rule:nonzero;stroke:none"
         id="path134" /><path
         d="m 2192.87,944.617 c 0,53.719 87.08,97.263 194.52,97.263 51.59,0 101.06,-10.26 137.54,-28.48 36.48,-18.255 56.98,-42.994 56.98,-68.783 v -64.851 c 0,-53.7 -87.1,-97.25 -194.52,-97.25 -107.44,0 -194.52,43.55 -194.52,97.25 z"
         style="fill:none;stroke:#c49d19;stroke-width:5.0003;stroke-linecap:butt;stroke-linejoin:miter;stroke-miterlimit:4;stroke-dasharray:none;stroke-opacity:1"
         id="path136" /><path
         d="m 2192.87,1009.46 c 0,53.7 87.08,97.26 194.52,97.26 51.59,0 101.06,-10.25 137.54,-28.5 36.48,-18.23 56.98,-42.97 56.98,-68.76 v -64.843 c 0,-53.722 -87.1,-97.265 -194.52,-97.265 -107.44,0 -194.52,43.543 -194.52,97.265 v 64.843"
         style="fill:#fcfccf;fill-opacity:1;fill-rule:nonzero;stroke:none"
         id="path138" /><path
         d="m 2192.87,1009.46 c 0,53.7 87.08,97.26 194.52,97.26 51.59,0 101.06,-10.25 137.54,-28.5 36.48,-18.23 56.98,-42.97 56.98,-68.76 v -64.843 c 0,-53.722 -87.1,-97.265 -194.52,-97.265 -107.44,0 -194.52,43.543 -194.52,97.265 z"
         style="fill:none;stroke:#c49d19;stroke-width:5.0003;stroke-linecap:butt;stroke-linejoin:miter;stroke-miterlimit:4;stroke-dasharray:none;stroke-opacity:1"
         id="path140" /><path
         d="m 2192.87,1074.29 c 0,53.72 87.08,97.27 194.52,97.27 51.59,0 101.06,-10.25 137.54,-28.49 36.48,-18.25 56.98,-42.98 56.98,-68.78 v -64.83 c 0,-53.726 -87.1,-97.269 -194.52,-97.269 -107.44,0 -194.52,43.543 -194.52,97.269 v 64.83"
         style="fill:#fcfccf;fill-opacity:1;fill-rule:nonzero;stroke:none"
         id="path142" /><path
         d="m 2192.87,1074.29 c 0,53.72 87.08,97.27 194.52,97.27 51.59,0 101.06,-10.25 137.54,-28.49 36.48,-18.25 56.98,-42.98 56.98,-68.78 v -64.83 c 0,-53.726 -87.1,-97.269 -194.52,-97.269 -107.44,0 -194.52,43.543 -194.52,97.269 z"
         style="fill:none;stroke:#c49d19;stroke-width:5.0003;stroke-linecap:butt;stroke-linejoin:miter;stroke-miterlimit:4;stroke-dasharray:none;stroke-opacity:1"
         id="path144" /><path
         d="m 2192.87,1139.14 c 0,53.71 87.08,97.25 194.52,97.25 51.59,0 101.06,-10.24 137.54,-28.48 36.48,-18.24 56.98,-42.98 56.98,-68.77 v -64.85 c 0,-53.7 -87.1,-97.255 -194.52,-97.255 -107.44,0 -194.52,43.555 -194.52,97.255 v 64.85"
         style="fill:#fcfccf;fill-opacity:1;fill-rule:nonzero;stroke:none"
         id="path146" /><path
         d="m 2192.87,1139.14 c 0,53.71 87.08,97.25 194.52,97.25 51.59,0 101.06,-10.24 137.54,-28.48 36.48,-18.24 56.98,-42.98 56.98,-68.77 v -64.85 c 0,-53.7 -87.1,-97.255 -194.52,-97.255 -107.44,0 -194.52,43.555 -194.52,97.255 z"
         style="fill:none;stroke:#c49d19;stroke-width:5.0003;stroke-linecap:butt;stroke-linejoin:miter;stroke-miterlimit:4;stroke-dasharray:none;stroke-opacity:1"
         id="path148" /><path
         d="m 2581.91,1139.14 c 0,-53.72 -87.1,-97.26 -194.52,-97.26 -107.44,0 -194.52,43.54 -194.52,97.26 h 389.04"
         style="fill:#fcfccf;fill-opacity:1;fill-rule:nonzero;stroke:none"
         id="path150" /><path
         d="m 2581.91,1139.14 c 0,-53.72 -87.1,-97.26 -194.52,-97.26 -107.44,0 -194.52,43.54 -194.52,97.26"
         style="fill:none;stroke:#c49d19;stroke-width:5.0003;stroke-linecap:butt;stroke-linejoin:miter;stroke-miterlimit:4;stroke-dasharray:none;stroke-opacity:1"
         id="path152" /><path
         d="m 2192.87,166.535 c 0,53.699 87.08,97.262 194.52,97.262 51.59,0 101.06,-10.262 137.54,-28.5 36.48,-18.231 56.98,-42.973 56.98,-68.762 v -64.84 c 0,-53.7184 -87.1,-97.26922 -194.52,-97.26922 -107.44,0 -194.52,43.55082 -194.52,97.26922 v 64.84"
         style="fill:#f792a4;fill-opacity:1;fill-rule:nonzero;stroke:none"
         id="path154" /><path
         d="m 2192.87,166.535 c 0,53.699 87.08,97.262 194.52,97.262 51.59,0 101.06,-10.262 137.54,-28.5 36.48,-18.231 56.98,-42.973 56.98,-68.762 v -64.84 c 0,-53.7184 -87.1,-97.26922 -194.52,-97.26922 -107.44,0 -194.52,43.55082 -194.52,97.26922 z"
         style="fill:none;stroke:#b74248;stroke-width:5.0003;stroke-linecap:butt;stroke-linejoin:miter;stroke-miterlimit:10;stroke-dasharray:none;stroke-opacity:1"
         id="path156" /><path
         d="m 2192.87,231.367 c 0,53.707 87.08,97.27 194.52,97.27 51.59,0 101.06,-10.25 137.54,-28.5 36.48,-18.242 56.98,-42.981 56.98,-68.77 v -64.832 c 0,-53.719 -87.1,-97.2694 -194.52,-97.2694 -107.44,0 -194.52,43.5504 -194.52,97.2694 v 64.832"
         style="fill:#f792a4;fill-opacity:1;fill-rule:nonzero;stroke:none"
         id="path158" /><path
         d="m 2192.87,231.367 c 0,53.707 87.08,97.27 194.52,97.27 51.59,0 101.06,-10.25 137.54,-28.5 36.48,-18.242 56.98,-42.981 56.98,-68.77 v -64.832 c 0,-53.719 -87.1,-97.2694 -194.52,-97.2694 -107.44,0 -194.52,43.5504 -194.52,97.2694 z"
         style="fill:none;stroke:#b74248;stroke-width:5.0003;stroke-linecap:butt;stroke-linejoin:miter;stroke-miterlimit:10;stroke-dasharray:none;stroke-opacity:1"
         id="path160" /><path
         d="m 2192.87,296.215 c 0,53.711 87.08,97.262 194.52,97.262 51.59,0 101.06,-10.262 137.54,-28.489 36.48,-18.254 56.98,-42.98 56.98,-68.773 v -64.848 c 0,-53.711 -87.1,-97.25 -194.52,-97.25 -107.44,0 -194.52,43.539 -194.52,97.25 v 64.848"
         style="fill:#f792a4;fill-opacity:1;fill-rule:nonzero;stroke:none"
         id="path162" /><path
         d="m 2192.87,296.215 c 0,53.711 87.08,97.262 194.52,97.262 51.59,0 101.06,-10.262 137.54,-28.489 36.48,-18.254 56.98,-42.98 56.98,-68.773 v -64.848 c 0,-53.711 -87.1,-97.25 -194.52,-97.25 -107.44,0 -194.52,43.539 -194.52,97.25 z"
         style="fill:none;stroke:#b74248;stroke-width:5.0003;stroke-linecap:butt;stroke-linejoin:miter;stroke-miterlimit:10;stroke-dasharray:none;stroke-opacity:1"
         id="path164" /><path
         d="m 2192.87,361.055 c 0,53.703 87.08,97.25 194.52,97.25 51.59,0 101.06,-10.25 137.54,-28.489 36.48,-18.23 56.98,-42.968 56.98,-68.761 v -64.84 c 0,-53.719 -87.1,-97.277 -194.52,-97.277 -107.44,0 -194.52,43.558 -194.52,97.277 v 64.84"
         style="fill:#f792a4;fill-opacity:1;fill-rule:nonzero;stroke:none"
         id="path166" /><path
         d="m 2192.87,361.055 c 0,53.703 87.08,97.25 194.52,97.25 51.59,0 101.06,-10.25 137.54,-28.489 36.48,-18.23 56.98,-42.968 56.98,-68.761 v -64.84 c 0,-53.719 -87.1,-97.277 -194.52,-97.277 -107.44,0 -194.52,43.558 -194.52,97.277 z"
         style="fill:none;stroke:#b74248;stroke-width:5.0003;stroke-linecap:butt;stroke-linejoin:miter;stroke-miterlimit:10;stroke-dasharray:none;stroke-opacity:1"
         id="path168" /><path
         d="m 2192.87,425.891 c 0,53.714 87.08,97.254 194.52,97.254 51.59,0 101.06,-10.239 137.54,-28.489 36.48,-18.242 56.98,-42.965 56.98,-68.765 v -64.836 c 0,-53.719 -87.1,-97.258 -194.52,-97.258 -107.44,0 -194.52,43.539 -194.52,97.258 v 64.836"
         style="fill:#f792a4;fill-opacity:1;fill-rule:nonzero;stroke:none"
         id="path170" /><path
         d="m 2192.87,425.891 c 0,53.714 87.08,97.254 194.52,97.254 51.59,0 101.06,-10.239 137.54,-28.489 36.48,-18.242 56.98,-42.965 56.98,-68.765 v -64.836 c 0,-53.719 -87.1,-97.258 -194.52,-97.258 -107.44,0 -194.52,43.539 -194.52,97.258 z"
         style="fill:none;stroke:#b74248;stroke-width:5.0003;stroke-linecap:butt;stroke-linejoin:miter;stroke-miterlimit:10;stroke-dasharray:none;stroke-opacity:1"
         id="path172" /><path
         d="m 2581.91,425.891 c 0,-53.715 -87.1,-97.254 -194.52,-97.254 -107.44,0 -194.52,43.539 -194.52,97.254 h 389.04"
         style="fill:#f792a4;fill-opacity:1;fill-rule:nonzero;stroke:none"
         id="path174" /><path
         d="m 2581.91,425.891 c 0,-53.715 -87.1,-97.254 -194.52,-97.254 -107.44,0 -194.52,43.539 -194.52,97.254"
         style="fill:none;stroke:#b74248;stroke-width:5.0003;stroke-linecap:butt;stroke-linejoin:miter;stroke-miterlimit:10;stroke-dasharray:none;stroke-opacity:1"
         id="path176" /><g
         id="g178"
         transform="scale(10)"><text
           transform="matrix(1,0,0,-1,3.02031,189.663)"
           style="font-variant:normal;font-weight:normal;font-size:6.99976px;font-family:Arial;-inkscape-font-specification:ArialMT;writing-mode:lr-tb;fill:#100f0d;fill-opacity:1;fill-rule:nonzero;stroke:none"
           id="text186"><tspan
             x="0 3.8918664 7.7837329 11.6756 15.567466 17.513399 21.405266 25.297132 27.243067 31.134932"
             y="0"
             sodipodi:role="line"
             id="tspan180">2020/01/01</tspan><tspan
             x="0 3.8918664 7.7837329 11.6756 15.567466 17.513399 21.405266 25.297132 27.243067 31.134932"
             y="77.958603"
             sodipodi:role="line"
             id="tspan182">2020/02/01</tspan><tspan
             x="0 3.8918664 7.7837329 11.6756 15.567466 17.513399 21.405266 25.297132 27.243067 31.134932"
             y="149.2836"
             sodipodi:role="line"
             id="tspan184">2020/03/01</tspan></text></g></g></g></svg>
