<?xml version="1.0" encoding="UTF-8" standalone="no"?>
<svg
   xmlns:dc="http://purl.org/dc/elements/1.1/"
   xmlns:cc="http://creativecommons.org/ns#"
   xmlns:rdf="http://www.w3.org/1999/02/22-rdf-syntax-ns#"
   xmlns:svg="http://www.w3.org/2000/svg"
   xmlns="http://www.w3.org/2000/svg"
   xmlns:sodipodi="http://sodipodi.sourceforge.net/DTD/sodipodi-0.dtd"
   xmlns:inkscape="http://www.inkscape.org/namespaces/inkscape"
   version="1.1"
   id="svg2"
   xml:space="preserve"
   width="429.33334"
   height="448"
   viewBox="0 0 429.33334 448"
   sodipodi:docname="8-11.eps"><metadata
     id="metadata8"><rdf:RDF><cc:Work
         rdf:about=""><dc:format>image/svg+xml</dc:format><dc:type
           rdf:resource="http://purl.org/dc/dcmitype/StillImage" /></cc:Work></rdf:RDF></metadata><defs
     id="defs6" /><sodipodi:namedview
     pagecolor="#ffffff"
     bordercolor="#666666"
     borderopacity="1"
     objecttolerance="10"
     gridtolerance="10"
     guidetolerance="10"
     inkscape:pageopacity="0"
     inkscape:pageshadow="2"
     inkscape:window-width="640"
     inkscape:window-height="480"
     id="namedview4" /><g
     id="g10"
     inkscape:groupmode="layer"
     inkscape:label="ink_ext_XXXXXX"
     transform="matrix(1.3333333,0,0,-1.3333333,0,448)"><g
       id="g12"
       transform="scale(0.1)"><path
         d="M 600.609,1637.7 2557.4,1782.15"
         style="fill:none;stroke:#c49d19;stroke-width:5.0003;stroke-linecap:butt;stroke-linejoin:miter;stroke-miterlimit:4;stroke-dasharray:none;stroke-opacity:1"
         id="path14" /><path
         d="m 2548.59,1766.93 52.99,18.48 -55.13,10.5 z"
         style="fill:#c49d19;fill-opacity:1;fill-rule:nonzero;stroke:none"
         id="path16" /><path
         d="M 600.609,1637.7 2562.48,2796.29"
         style="fill:none;stroke:#c49d19;stroke-width:5.0003;stroke-linecap:butt;stroke-linejoin:miter;stroke-miterlimit:4;stroke-dasharray:none;stroke-opacity:1"
         id="path18" /><path
         d="m 2561.34,2778.75 39.29,40.07 -54.06,-15.06 z"
         style="fill:#c49d19;fill-opacity:1;fill-rule:nonzero;stroke:none"
         id="path20" /><path
         d="M 602.121,2885.88 2566.01,1665.89"
         style="fill:none;stroke:#293985;stroke-width:5.0003;stroke-linecap:butt;stroke-linejoin:miter;stroke-miterlimit:10;stroke-dasharray:none;stroke-opacity:1"
         id="path22" /><path
         d="m 2549.92,1658.79 53.72,-16.27 -38.38,40.94 z"
         style="fill:#293985;fill-opacity:1;fill-rule:nonzero;stroke:none"
         id="path24" /><path
         d="M 602.121,2884.15 2571.88,383.133"
         style="fill:none;stroke:#293985;stroke-width:5.0003;stroke-linecap:butt;stroke-linejoin:miter;stroke-miterlimit:10;stroke-dasharray:none;stroke-opacity:1"
         id="path26" /><path
         d="m 2554.33,381.934 44.95,-33.602 -22.13,51.57 z"
         style="fill:#293985;fill-opacity:1;fill-rule:nonzero;stroke:none"
         id="path28" /><path
         d="m 600.609,2885.04 1958.751,57.82"
         style="fill:none;stroke:#293985;stroke-width:5.0003;stroke-linecap:butt;stroke-linejoin:miter;stroke-miterlimit:10;stroke-dasharray:none;stroke-opacity:1"
         id="path30" /><path
         d="m 2549.89,2928.05 53.75,16.13 -54.61,12.91 z"
         style="fill:#293985;fill-opacity:1;fill-rule:nonzero;stroke:none"
         id="path32" /><path
         d="M 219.836,3281.52 H 56.9492 c -36.25,0 -54.37107,-19.5 -54.37107,-58.53 V 62.8047 C 2.57813,23.7852 20.6992,4.28516 56.9492,4.28516 H 872.441"
         style="fill:none;stroke:#100f0d;stroke-width:5.0003;stroke-linecap:butt;stroke-linejoin:miter;stroke-miterlimit:10;stroke-dasharray:19.2075, 9.60373;stroke-dashoffset:0;stroke-opacity:1"
         id="path34" /><path
         d="M 872.441,4.28516 V 3222.99 c 0,39.03 -18.125,58.53 -54.371,58.53 H 649.59"
         style="fill:none;stroke:#100f0d;stroke-width:5.0003;stroke-linecap:butt;stroke-linejoin:miter;stroke-miterlimit:10;stroke-dasharray:19.2075, 9.60373;stroke-dashoffset:0;stroke-opacity:1"
         id="path36" /><path
         d="m 2600.51,2766.24 c 0,49.21 83.33,89.08 186.12,89.08 49.36,0 96.68,-9.36 131.6,-26.08 34.91,-16.7 54.51,-39.36 54.51,-63 v -59.4 c 0,-49.19 -83.33,-89.09 -186.11,-89.09 -102.79,0 -186.12,39.9 -186.12,89.09 v 59.4"
         style="fill:#f792a4;fill-opacity:1;fill-rule:nonzero;stroke:none"
         id="path38" /><path
         d="m 2600.51,2766.24 c 0,49.21 83.33,89.08 186.12,89.08 49.36,0 96.68,-9.36 131.6,-26.08 34.91,-16.7 54.51,-39.36 54.51,-63 v -59.4 c 0,-49.19 -83.33,-89.09 -186.11,-89.09 -102.79,0 -186.12,39.9 -186.12,89.09 z"
         style="fill:none;stroke:#b74248;stroke-width:5.0003;stroke-linecap:butt;stroke-linejoin:miter;stroke-miterlimit:10;stroke-dasharray:none;stroke-opacity:1"
         id="path40" /><path
         d="m 2600.51,2825.66 c 0,49.19 83.33,89.07 186.12,89.07 49.36,0 96.68,-9.36 131.6,-26.09 34.91,-16.71 54.51,-39.35 54.51,-62.98 v -59.42 c 0,-49.2 -83.33,-89.09 -186.11,-89.09 -102.79,0 -186.12,39.89 -186.12,89.09 v 59.42"
         style="fill:#f792a4;fill-opacity:1;fill-rule:nonzero;stroke:none"
         id="path42" /><path
         d="m 2600.51,2825.66 c 0,49.19 83.33,89.07 186.12,89.07 49.36,0 96.68,-9.36 131.6,-26.09 34.91,-16.71 54.51,-39.35 54.51,-62.98 v -59.42 c 0,-49.2 -83.33,-89.09 -186.11,-89.09 -102.79,0 -186.12,39.89 -186.12,89.09 z"
         style="fill:none;stroke:#b74248;stroke-width:5.0003;stroke-linecap:butt;stroke-linejoin:miter;stroke-miterlimit:10;stroke-dasharray:none;stroke-opacity:1"
         id="path44" /><path
         d="m 2600.51,2885.04 c 0,49.21 83.33,89.09 186.12,89.09 49.36,0 96.68,-9.4 131.6,-26.09 34.91,-16.71 54.51,-39.38 54.51,-63 v -59.38 c 0,-49.23 -83.33,-89.11 -186.11,-89.11 -102.79,0 -186.12,39.88 -186.12,89.11 v 59.38"
         style="fill:#fcfccf;fill-opacity:1;fill-rule:nonzero;stroke:none"
         id="path46" /><path
         d="m 2600.51,2885.04 c 0,49.21 83.33,89.09 186.12,89.09 49.36,0 96.68,-9.4 131.6,-26.09 34.91,-16.71 54.51,-39.38 54.51,-63 v -59.38 c 0,-49.23 -83.33,-89.11 -186.11,-89.11 -102.79,0 -186.12,39.88 -186.12,89.11 z"
         style="fill:none;stroke:#c49d19;stroke-width:5.0003;stroke-linecap:butt;stroke-linejoin:miter;stroke-miterlimit:4;stroke-dasharray:none;stroke-opacity:1"
         id="path48" /><path
         d="m 2600.51,2944.43 c 0,49.2 83.33,89.11 186.12,89.11 49.36,0 96.68,-9.4 131.6,-26.1 34.91,-16.71 54.51,-39.37 54.51,-63.01 v -59.39 c 0,-49.2 -83.33,-89.09 -186.11,-89.09 -102.79,0 -186.12,39.89 -186.12,89.09 v 59.39"
         style="fill:#c9e4f3;fill-opacity:1;fill-rule:nonzero;stroke:none"
         id="path50" /><path
         d="m 2600.51,2944.43 c 0,49.2 83.33,89.11 186.12,89.11 49.36,0 96.68,-9.4 131.6,-26.1 34.91,-16.71 54.51,-39.37 54.51,-63.01 v -59.39 c 0,-49.2 -83.33,-89.09 -186.11,-89.09 -102.79,0 -186.12,39.89 -186.12,89.09 z"
         style="fill:none;stroke:#293985;stroke-width:5.0003;stroke-linecap:butt;stroke-linejoin:miter;stroke-miterlimit:10;stroke-dasharray:none;stroke-opacity:1"
         id="path52" /><path
         d="m 2600.51,3003.84 c 0,49.19 83.33,89.09 186.12,89.09 49.36,0 96.68,-9.39 131.6,-26.11 34.91,-16.69 54.51,-39.36 54.51,-62.98 v -59.41 c 0,-49.2 -83.33,-89.11 -186.11,-89.11 -102.79,0 -186.12,39.91 -186.12,89.11 v 59.41"
         style="fill:#c9e4f3;fill-opacity:1;fill-rule:nonzero;stroke:none"
         id="path54" /><path
         d="m 2600.51,3003.84 c 0,49.19 83.33,89.09 186.12,89.09 49.36,0 96.68,-9.39 131.6,-26.11 34.91,-16.69 54.51,-39.36 54.51,-62.98 v -59.41 c 0,-49.2 -83.33,-89.11 -186.11,-89.11 -102.79,0 -186.12,39.91 -186.12,89.11 z"
         style="fill:none;stroke:#293985;stroke-width:5.0003;stroke-linecap:butt;stroke-linejoin:miter;stroke-miterlimit:10;stroke-dasharray:none;stroke-opacity:1"
         id="path56" /><path
         d="m 2972.62,3003.33 c 0,-49.19 -84.66,-88.6 -187.43,-88.6 -102.79,0 -184.56,40.09 -184.56,89.31 l 371.99,-0.71"
         style="fill:#c9e4f3;fill-opacity:1;fill-rule:nonzero;stroke:none"
         id="path58" /><path
         d="m 2972.62,3003.33 c 0,-49.19 -84.66,-88.6 -187.43,-88.6 -102.79,0 -184.56,40.09 -184.56,89.31"
         style="fill:none;stroke:#293985;stroke-width:5.0003;stroke-linecap:butt;stroke-linejoin:miter;stroke-miterlimit:10;stroke-dasharray:none;stroke-opacity:1"
         id="path60" /><path
         d="m 2600.51,1578.3 c 0,49.21 83.33,89.09 186.12,89.09 49.36,0 96.68,-9.38 131.6,-26.09 34.91,-16.71 54.51,-39.37 54.51,-63 v -59.39 c 0,-49.21 -83.33,-89.11 -186.11,-89.11 -102.79,0 -186.12,39.9 -186.12,89.11 v 59.39"
         style="fill:#f792a4;fill-opacity:1;fill-rule:nonzero;stroke:none"
         id="path62" /><path
         d="m 2600.51,1578.3 c 0,49.21 83.33,89.09 186.12,89.09 49.36,0 96.68,-9.38 131.6,-26.09 34.91,-16.71 54.51,-39.37 54.51,-63 v -59.39 c 0,-49.21 -83.33,-89.11 -186.11,-89.11 -102.79,0 -186.12,39.9 -186.12,89.11 z"
         style="fill:none;stroke:#b74248;stroke-width:5.0003;stroke-linecap:butt;stroke-linejoin:miter;stroke-miterlimit:10;stroke-dasharray:none;stroke-opacity:1"
         id="path64" /><path
         d="m 2600.51,1637.7 c 0,49.2 83.33,89.09 186.12,89.09 49.36,0 96.68,-9.38 131.6,-26.09 34.91,-16.72 54.51,-39.37 54.51,-63 v -59.4 c 0,-49.21 -83.33,-89.1 -186.11,-89.1 -102.79,0 -186.12,39.89 -186.12,89.1 v 59.4"
         style="fill:#c9e4f3;fill-opacity:1;fill-rule:nonzero;stroke:none"
         id="path66" /><path
         d="m 2600.51,1637.7 c 0,49.2 83.33,89.09 186.12,89.09 49.36,0 96.68,-9.38 131.6,-26.09 34.91,-16.72 54.51,-39.37 54.51,-63 v -59.4 c 0,-49.21 -83.33,-89.1 -186.11,-89.1 -102.79,0 -186.12,39.89 -186.12,89.1 z"
         style="fill:none;stroke:#293985;stroke-width:5.0003;stroke-linecap:butt;stroke-linejoin:miter;stroke-miterlimit:10;stroke-dasharray:none;stroke-opacity:1"
         id="path68" /><path
         d="m 2600.51,1697.09 c 0,49.22 83.33,89.11 186.12,89.11 49.36,0 96.68,-9.4 131.6,-26.1 34.91,-16.71 54.51,-39.38 54.51,-63.01 v -59.39 c 0,-49.21 -83.33,-89.09 -186.11,-89.09 -102.79,0 -186.12,39.88 -186.12,89.09 v 59.39"
         style="fill:#c9e4f3;fill-opacity:1;fill-rule:nonzero;stroke:none"
         id="path70" /><path
         d="m 2600.51,1697.09 c 0,49.22 83.33,89.11 186.12,89.11 49.36,0 96.68,-9.4 131.6,-26.1 34.91,-16.71 54.51,-39.38 54.51,-63.01 v -59.39 c 0,-49.21 -83.33,-89.09 -186.11,-89.09 -102.79,0 -186.12,39.88 -186.12,89.09 z"
         style="fill:none;stroke:#293985;stroke-width:5.0003;stroke-linecap:butt;stroke-linejoin:miter;stroke-miterlimit:10;stroke-dasharray:none;stroke-opacity:1"
         id="path72" /><path
         d="m 2600.51,1756.5 c 0,49.19 83.33,89.09 186.12,89.09 49.36,0 96.68,-9.38 131.6,-26.11 34.91,-16.69 54.51,-39.35 54.51,-62.98 v -59.41 c 0,-49.2 -83.33,-89.08 -186.11,-89.08 -102.79,0 -186.12,39.88 -186.12,89.08 v 59.41"
         style="fill:#fcfccf;fill-opacity:1;fill-rule:nonzero;stroke:none"
         id="path74" /><path
         d="m 2600.51,1756.5 c 0,49.19 83.33,89.09 186.12,89.09 49.36,0 96.68,-9.38 131.6,-26.11 34.91,-16.69 54.51,-39.35 54.51,-62.98 v -59.41 c 0,-49.2 -83.33,-89.08 -186.11,-89.08 -102.79,0 -186.12,39.88 -186.12,89.08 z"
         style="fill:none;stroke:#c49d19;stroke-width:5.0003;stroke-linecap:butt;stroke-linejoin:miter;stroke-miterlimit:4;stroke-dasharray:none;stroke-opacity:1"
         id="path76" /><path
         d="m 2599.28,1820.16 c 0,50.61 83.88,91.64 187.35,91.64 49.69,0 97.33,-9.66 132.46,-26.84 35.15,-17.2 54.88,-40.51 54.88,-64.8 v -61.12 c 0,-50.61 -83.88,-91.65 -187.34,-91.65 -103.47,0 -187.35,41.04 -187.35,91.65 v 61.12"
         style="fill:#fcfccf;fill-opacity:1;fill-rule:nonzero;stroke:none"
         id="path78" /><path
         d="m 2599.28,1820.16 c 0,50.61 83.88,91.64 187.35,91.64 49.69,0 97.33,-9.66 132.46,-26.84 35.15,-17.2 54.88,-40.51 54.88,-64.8 v -61.12 c 0,-50.61 -83.88,-91.65 -187.34,-91.65 -103.47,0 -187.35,41.04 -187.35,91.65 z"
         style="fill:none;stroke:#c49d19;stroke-width:5.0003;stroke-linecap:butt;stroke-linejoin:miter;stroke-miterlimit:4;stroke-dasharray:none;stroke-opacity:1"
         id="path80" /><path
         d="m 2973.56,1817.17 c 0,-49.19 -84.96,-90.38 -187.75,-90.38 -102.79,0 -186.12,39.91 -186.12,89.1 l 373.87,1.28"
         style="fill:#fcfccf;fill-opacity:1;fill-rule:nonzero;stroke:none"
         id="path82" /><path
         d="m 2973.56,1817.17 c 0,-49.19 -84.96,-90.38 -187.75,-90.38 -102.79,0 -186.12,39.91 -186.12,89.1"
         style="fill:none;stroke:#c49d19;stroke-width:5.0003;stroke-linecap:butt;stroke-linejoin:miter;stroke-miterlimit:4;stroke-dasharray:none;stroke-opacity:1"
         id="path84" /><path
         d="m 2600.51,390.363 c 0,49.2 83.33,89.082 186.12,89.082 49.36,0 96.68,-9.371 131.6,-26.082 34.91,-16.711 54.51,-39.371 54.51,-63 v -59.398 c 0,-49.199 -83.33,-89.11 -186.11,-89.11 -102.79,0 -186.12,39.911 -186.12,89.11 v 59.398"
         style="fill:#c9e4f3;fill-opacity:1;fill-rule:nonzero;stroke:none"
         id="path86" /><path
         d="m 2600.51,390.363 c 0,49.2 83.33,89.082 186.12,89.082 49.36,0 96.68,-9.371 131.6,-26.082 34.91,-16.711 54.51,-39.371 54.51,-63 v -59.398 c 0,-49.199 -83.33,-89.11 -186.11,-89.11 -102.79,0 -186.12,39.911 -186.12,89.11 z"
         style="fill:none;stroke:#293985;stroke-width:5.0003;stroke-linecap:butt;stroke-linejoin:miter;stroke-miterlimit:10;stroke-dasharray:none;stroke-opacity:1"
         id="path88" /><path
         d="m 2600.51,449.766 c 0,49.199 83.33,89.089 186.12,89.089 49.36,0 96.68,-9.382 131.6,-26.089 34.91,-16.723 54.51,-39.371 54.51,-63 v -59.403 c 0,-49.218 -83.33,-89.097 -186.11,-89.097 -102.79,0 -186.12,39.879 -186.12,89.097 v 59.403"
         style="fill:#fcfccf;fill-opacity:1;fill-rule:nonzero;stroke:none"
         id="path90" /><path
         d="m 2600.51,449.766 c 0,49.199 83.33,89.089 186.12,89.089 49.36,0 96.68,-9.382 131.6,-26.089 34.91,-16.723 54.51,-39.371 54.51,-63 v -59.403 c 0,-49.218 -83.33,-89.097 -186.11,-89.097 -102.79,0 -186.12,39.879 -186.12,89.097 z"
         style="fill:none;stroke:#c49d19;stroke-width:5.0003;stroke-linecap:butt;stroke-linejoin:miter;stroke-miterlimit:4;stroke-dasharray:none;stroke-opacity:1"
         id="path92" /><path
         d="m 2600.51,509.145 c 0,49.23 83.33,89.101 186.12,89.101 49.36,0 96.68,-9.383 131.6,-26.082 34.91,-16.711 54.51,-39.391 54.51,-63.019 v -59.379 c 0,-49.211 -83.33,-89.102 -186.11,-89.102 -102.79,0 -186.12,39.891 -186.12,89.102 v 59.379"
         style="fill:#fcfccf;fill-opacity:1;fill-rule:nonzero;stroke:none"
         id="path94" /><path
         d="m 2600.51,509.145 c 0,49.23 83.33,89.101 186.12,89.101 49.36,0 96.68,-9.383 131.6,-26.082 34.91,-16.711 54.51,-39.391 54.51,-63.019 v -59.379 c 0,-49.211 -83.33,-89.102 -186.11,-89.102 -102.79,0 -186.12,39.891 -186.12,89.102 z"
         style="fill:none;stroke:#c49d19;stroke-width:5.0003;stroke-linecap:butt;stroke-linejoin:miter;stroke-miterlimit:4;stroke-dasharray:none;stroke-opacity:1"
         id="path96" /><path
         d="m 2600.51,568.543 c 0,49.199 83.33,89.109 186.12,89.109 49.36,0 96.68,-9.398 131.6,-26.109 34.91,-16.699 54.51,-39.359 54.51,-63 v -59.398 c 0,-49.2 -83.33,-89.082 -186.11,-89.082 -102.79,0 -186.12,39.882 -186.12,89.082 v 59.398"
         style="fill:#f792a4;fill-opacity:1;fill-rule:nonzero;stroke:none"
         id="path98" /><path
         d="m 2600.51,568.543 c 0,49.199 83.33,89.109 186.12,89.109 49.36,0 96.68,-9.398 131.6,-26.109 34.91,-16.699 54.51,-39.359 54.51,-63 v -59.398 c 0,-49.2 -83.33,-89.082 -186.11,-89.082 -102.79,0 -186.12,39.882 -186.12,89.082 z"
         style="fill:none;stroke:#b74248;stroke-width:5.0003;stroke-linecap:butt;stroke-linejoin:miter;stroke-miterlimit:10;stroke-dasharray:none;stroke-opacity:1"
         id="path100" /><path
         d="m 2600.51,627.953 c 0,49.199 83.33,89.102 186.12,89.102 49.36,0 96.68,-9.391 131.6,-26.102 34.91,-16.719 54.51,-39.379 54.51,-63 v -59.41 c 0,-49.199 -83.33,-89.098 -186.11,-89.098 -102.79,0 -186.12,39.899 -186.12,89.098 v 59.41"
         style="fill:#f792a4;fill-opacity:1;fill-rule:nonzero;stroke:none"
         id="path102" /><path
         d="m 2600.51,627.953 c 0,49.199 83.33,89.102 186.12,89.102 49.36,0 96.68,-9.391 131.6,-26.102 34.91,-16.719 54.51,-39.379 54.51,-63 v -59.41 c 0,-49.199 -83.33,-89.098 -186.11,-89.098 -102.79,0 -186.12,39.899 -186.12,89.098 z"
         style="fill:none;stroke:#b74248;stroke-width:5.0003;stroke-linecap:butt;stroke-linejoin:miter;stroke-miterlimit:10;stroke-dasharray:none;stroke-opacity:1"
         id="path104" /><path
         d="m 2972.74,627.953 c 0,-49.199 -83.33,-89.098 -186.11,-89.098 -102.79,0 -186.12,39.899 -186.12,89.098 h 372.23"
         style="fill:#f792a4;fill-opacity:1;fill-rule:nonzero;stroke:none"
         id="path106" /><path
         d="m 2972.74,627.953 c 0,-49.199 -83.33,-89.098 -186.11,-89.098 -102.79,0 -186.12,39.899 -186.12,89.098"
         style="fill:none;stroke:#b74248;stroke-width:5.0003;stroke-linecap:butt;stroke-linejoin:miter;stroke-miterlimit:10;stroke-dasharray:none;stroke-opacity:1"
         id="path108" /><path
         d="M 600.609,449.766 2555.06,563.684"
         style="fill:none;stroke:#b74248;stroke-width:5.0003;stroke-linecap:butt;stroke-linejoin:miter;stroke-miterlimit:10;stroke-dasharray:none;stroke-opacity:1"
         id="path110" /><path
         d="m 2546.02,548.605 53.26,17.661 -54.96,11.347 z"
         style="fill:#b74248;fill-opacity:1;fill-rule:nonzero;stroke:none"
         id="path112" /><path
         d="M 600.609,449.766 2567.52,1472.4"
         style="fill:none;stroke:#b74248;stroke-width:5.0003;stroke-linecap:butt;stroke-linejoin:miter;stroke-miterlimit:10;stroke-dasharray:none;stroke-opacity:1"
         id="path114" /><path
         d="m 2565.43,1454.95 41.39,37.88 -54.8,-12.12 z"
         style="fill:#b74248;fill-opacity:1;fill-rule:nonzero;stroke:none"
         id="path116" /><path
         d="M 600.609,449.766 2574.09,2654.84"
         style="fill:none;stroke:#b74248;stroke-width:5.0003;stroke-linecap:butt;stroke-linejoin:miter;stroke-miterlimit:10;stroke-dasharray:none;stroke-opacity:1"
         id="path118" /><path
         d="m 2578.31,2637.77 25.33,50.09 -46.98,-30.7 z"
         style="fill:#b74248;fill-opacity:1;fill-rule:nonzero;stroke:none"
         id="path120" /><path
         d="M 600.609,1637.7 2561.26,465.344"
         style="fill:none;stroke:#c49d19;stroke-width:5.0003;stroke-linecap:butt;stroke-linejoin:miter;stroke-miterlimit:4;stroke-dasharray:none;stroke-opacity:1"
         id="path122" /><path
         d="m 2545.31,457.965 53.97,-15.352 -39.06,40.282 z"
         style="fill:#c49d19;fill-opacity:1;fill-rule:nonzero;stroke:none"
         id="path124" /><g
         id="g126"
         transform="scale(10)"><text
           transform="matrix(0.915332,0,0,-1,266.966,301.929)"
           style="font-variant:normal;font-weight:normal;font-size:6.99976px;font-family:Arial;-inkscape-font-specification:ArialMT;writing-mode:lr-tb;fill:#100f0d;fill-opacity:1;fill-rule:nonzero;stroke:none"
           id="text132"><tspan
             x="0 5.0538268 8.5537071 12.445573 14.776493 18.66836 20.222307 24.114174"
             y="0"
             sodipodi:role="line"
             id="tspan128">User_id:</tspan><tspan
             x="4.0815101 7.9733768 10.304296 14.196163 18.08803"
             y="8.3999996"
             sodipodi:role="line"
             id="tspan130">1-100</tspan></text><text
           transform="matrix(0.96003,0,0,-1,266.384,183.645)"
           style="font-variant:normal;font-weight:normal;font-size:6.99976px;font-family:Arial;-inkscape-font-specification:ArialMT;writing-mode:lr-tb;fill:#100f0d;fill-opacity:1;fill-rule:nonzero;stroke:none"
           id="text138"><tspan
             x="0 5.0538268 8.5537071 12.445573 14.776493 18.66836 20.222307 24.114174"
             y="0"
             sodipodi:role="line"
             id="tspan134">User_id:</tspan><tspan
             x="0.188389 4.0802555 7.9721222 11.863989 14.194909 18.086775 21.978642"
             y="8"
             sodipodi:role="line"
             id="tspan136">101-201</tspan></text><text
           transform="matrix(1,0,0,-1,265.862,64.0785)"
           style="font-variant:normal;font-weight:normal;font-size:6.99976px;font-family:Arial;-inkscape-font-specification:ArialMT;writing-mode:lr-tb;fill:#100f0d;fill-opacity:1;fill-rule:nonzero;stroke:none"
           id="text144"><tspan
             x="0 5.0538268 8.5537071 12.445573 14.776493 18.66836 20.222307 24.114174"
             y="0"
             sodipodi:role="line"
             id="tspan140">User_id:</tspan><tspan
             x="3.3121099 8.3659363 10.696856 15.365697 17.696617"
             y="8.3999996"
             sodipodi:role="line"
             id="tspan142">N-X-N</tspan></text><text
           transform="matrix(0.915332,0,0,-1,23.0953,326.336)"
           style="font-variant:normal;font-weight:normal;font-size:6.99976px;font-family:Arial;-inkscape-font-specification:ArialMT;writing-mode:lr-tb;fill:#100f0d;fill-opacity:1;fill-rule:nonzero;stroke:none"
           id="text150"><tspan
             x="0 5.0538268 8.945693 10.891626 14.783493 16.729427 20.621292 24.513159 26.84408 28.790012 30.34396 32.289894 33.843838 37.735706 41.627571"
             y="0"
             sodipodi:role="line"
             id="tspan146">Date partitions</tspan><tspan
             x="244.52499 249.57883 253.47069 255.41663 259.3085 261.25443 265.1463 269.03815 272.93002 276.8219 280.32178 282.2677 285.76758 289.65945 291.21341 292.76733 296.65921 300.15909 302.10501 303.65897 307.55084"
             y="-4.1125002"
             sodipodi:role="line"
             id="tspan148">Data nodes collecting</tspan></text><text
           transform="matrix(0.915332,0,0,-1,259.973,320.849)"
           style="font-variant:normal;font-weight:normal;font-size:7.99981px;font-family:'Courier New';-inkscape-font-specification:Courier;writing-mode:lr-tb;fill:#100f0d;fill-opacity:1;fill-rule:nonzero;stroke:none"
           id="text154"><tspan
             x="0 4.7998862 9.5997725 14.399658 19.199545 23.99943 28.799316 33.599201"
             y="0"
             sodipodi:role="line"
             id="tspan152">user_ids</tspan></text></g><path
         d="m 2462.79,3324.95 h -81.68 c -27.2,3.71 -40.79,-14.22 -40.79,-53.82 V 63.6719 c 0,-39.5977 18.12,-59.38674 54.37,-59.38674 h 815.49"
         style="fill:none;stroke:#100f0d;stroke-width:5.0003;stroke-linecap:butt;stroke-linejoin:miter;stroke-miterlimit:10;stroke-dasharray:19.2075, 9.60373;stroke-dashoffset:0;stroke-opacity:1"
         id="path156" /><path
         d="M 3210.18,4.28516 V 3271.13 c 0,39.6 -7.8,49.94 -40.77,53.82 h -83.55"
         style="fill:none;stroke:#100f0d;stroke-width:5.0003;stroke-linecap:butt;stroke-linejoin:miter;stroke-miterlimit:10;stroke-dasharray:19.2075, 9.60373;stroke-dashoffset:0;stroke-opacity:1"
         id="path158" /><path
         d="m 250.152,2766.24 c 0,49.21 83.891,89.08 187.348,89.08 49.684,0 97.344,-9.36 132.492,-26.08 35.121,-16.7 54.871,-39.36 54.871,-63 v -59.4 c 0,-49.19 -83.883,-89.09 -187.363,-89.09 -103.457,0 -187.348,39.9 -187.348,89.09 v 59.4"
         style="fill:#c9e4f3;fill-opacity:1;fill-rule:nonzero;stroke:none"
         id="path160" /><path
         d="m 250.152,2766.24 c 0,49.21 83.891,89.08 187.348,89.08 49.684,0 97.344,-9.36 132.492,-26.08 35.121,-16.7 54.871,-39.36 54.871,-63 v -59.4 c 0,-49.19 -83.883,-89.09 -187.363,-89.09 -103.457,0 -187.348,39.9 -187.348,89.09 z"
         style="fill:none;stroke:#293985;stroke-width:5.0003;stroke-linecap:butt;stroke-linejoin:miter;stroke-miterlimit:10;stroke-dasharray:none;stroke-opacity:1"
         id="path162" /><path
         d="m 250.152,2825.66 c 0,49.19 83.891,89.07 187.348,89.07 49.684,0 97.344,-9.36 132.492,-26.09 35.121,-16.71 54.871,-39.35 54.871,-62.98 v -59.42 c 0,-49.2 -83.883,-89.09 -187.363,-89.09 -103.457,0 -187.348,39.89 -187.348,89.09 v 59.42"
         style="fill:#c9e4f3;fill-opacity:1;fill-rule:nonzero;stroke:none"
         id="path164" /><path
         d="m 250.152,2825.66 c 0,49.19 83.891,89.07 187.348,89.07 49.684,0 97.344,-9.36 132.492,-26.09 35.121,-16.71 54.871,-39.35 54.871,-62.98 v -59.42 c 0,-49.2 -83.883,-89.09 -187.363,-89.09 -103.457,0 -187.348,39.89 -187.348,89.09 z"
         style="fill:none;stroke:#293985;stroke-width:5.0003;stroke-linecap:butt;stroke-linejoin:miter;stroke-miterlimit:10;stroke-dasharray:none;stroke-opacity:1"
         id="path166" /><path
         d="m 250.152,2885.04 c 0,49.21 83.891,89.09 187.348,89.09 49.684,0 97.344,-9.4 132.492,-26.09 35.121,-16.71 54.871,-39.38 54.871,-63 v -59.38 c 0,-49.23 -83.883,-89.11 -187.363,-89.11 -103.457,0 -187.348,39.88 -187.348,89.11 v 59.38"
         style="fill:#c9e4f3;fill-opacity:1;fill-rule:nonzero;stroke:none"
         id="path168" /><path
         d="m 250.152,2885.04 c 0,49.21 83.891,89.09 187.348,89.09 49.684,0 97.344,-9.4 132.492,-26.09 35.121,-16.71 54.871,-39.38 54.871,-63 v -59.38 c 0,-49.23 -83.883,-89.11 -187.363,-89.11 -103.457,0 -187.348,39.88 -187.348,89.11 z"
         style="fill:none;stroke:#293985;stroke-width:5.0003;stroke-linecap:butt;stroke-linejoin:miter;stroke-miterlimit:10;stroke-dasharray:none;stroke-opacity:1"
         id="path170" /><path
         d="m 250.152,2944.43 c 0,49.2 83.891,89.11 187.348,89.11 49.684,0 97.344,-9.4 132.492,-26.1 35.121,-16.71 54.871,-39.37 54.871,-63.01 v -59.39 c 0,-49.2 -83.883,-89.09 -187.363,-89.09 -103.457,0 -187.348,39.89 -187.348,89.09 v 59.39"
         style="fill:#c9e4f3;fill-opacity:1;fill-rule:nonzero;stroke:none"
         id="path172" /><path
         d="m 250.152,2944.43 c 0,49.2 83.891,89.11 187.348,89.11 49.684,0 97.344,-9.4 132.492,-26.1 35.121,-16.71 54.871,-39.37 54.871,-63.01 v -59.39 c 0,-49.2 -83.883,-89.09 -187.363,-89.09 -103.457,0 -187.348,39.89 -187.348,89.09 z"
         style="fill:none;stroke:#293985;stroke-width:5.0003;stroke-linecap:butt;stroke-linejoin:miter;stroke-miterlimit:10;stroke-dasharray:none;stroke-opacity:1"
         id="path174" /><path
         d="m 250.152,3003.84 c 0,49.19 83.891,89.09 187.348,89.09 49.684,0 97.344,-9.39 132.492,-26.11 35.121,-16.69 54.871,-39.36 54.871,-62.98 v -59.41 c 0,-49.2 -83.883,-89.11 -187.363,-89.11 -103.457,0 -187.348,39.91 -187.348,89.11 v 59.41"
         style="fill:#c9e4f3;fill-opacity:1;fill-rule:nonzero;stroke:none"
         id="path176" /><path
         d="m 250.152,3003.84 c 0,49.19 83.891,89.09 187.348,89.09 49.684,0 97.344,-9.39 132.492,-26.11 35.121,-16.69 54.871,-39.36 54.871,-62.98 v -59.41 c 0,-49.2 -83.883,-89.11 -187.363,-89.11 -103.457,0 -187.348,39.91 -187.348,89.11 z"
         style="fill:none;stroke:#293985;stroke-width:5.0003;stroke-linecap:butt;stroke-linejoin:miter;stroke-miterlimit:10;stroke-dasharray:none;stroke-opacity:1"
         id="path178" /><path
         d="m 624.863,3003.84 c 0,-49.21 -83.883,-89.11 -187.363,-89.11 -103.457,0 -187.348,39.9 -187.348,89.11 h 374.711"
         style="fill:#c9e4f3;fill-opacity:1;fill-rule:nonzero;stroke:none"
         id="path180" /><path
         d="m 624.863,3003.84 c 0,-49.21 -83.883,-89.11 -187.363,-89.11 -103.457,0 -187.348,39.9 -187.348,89.11"
         style="fill:none;stroke:#293985;stroke-width:5.0003;stroke-linecap:butt;stroke-linejoin:miter;stroke-miterlimit:10;stroke-dasharray:none;stroke-opacity:1"
         id="path182" /><path
         d="m 250.152,1578.3 c 0,49.21 83.891,89.09 187.348,89.09 49.684,0 97.344,-9.38 132.492,-26.09 35.121,-16.71 54.871,-39.37 54.871,-63 v -59.39 c 0,-49.21 -83.883,-89.11 -187.363,-89.11 -103.457,0 -187.348,39.9 -187.348,89.11 v 59.39"
         style="fill:#fcfccf;fill-opacity:1;fill-rule:nonzero;stroke:none"
         id="path184" /><path
         d="m 250.152,1578.3 c 0,49.21 83.891,89.09 187.348,89.09 49.684,0 97.344,-9.38 132.492,-26.09 35.121,-16.71 54.871,-39.37 54.871,-63 v -59.39 c 0,-49.21 -83.883,-89.11 -187.363,-89.11 -103.457,0 -187.348,39.9 -187.348,89.11 z"
         style="fill:none;stroke:#c49d19;stroke-width:5.0003;stroke-linecap:butt;stroke-linejoin:miter;stroke-miterlimit:4;stroke-dasharray:none;stroke-opacity:1"
         id="path186" /><path
         d="m 250.152,1637.7 c 0,49.2 83.891,89.09 187.348,89.09 49.684,0 97.344,-9.38 132.492,-26.09 35.121,-16.72 54.871,-39.37 54.871,-63 v -59.4 c 0,-49.21 -83.883,-89.1 -187.363,-89.1 -103.457,0 -187.348,39.89 -187.348,89.1 v 59.4"
         style="fill:#fcfccf;fill-opacity:1;fill-rule:nonzero;stroke:none"
         id="path188" /><path
         d="m 250.152,1637.7 c 0,49.2 83.891,89.09 187.348,89.09 49.684,0 97.344,-9.38 132.492,-26.09 35.121,-16.72 54.871,-39.37 54.871,-63 v -59.4 c 0,-49.21 -83.883,-89.1 -187.363,-89.1 -103.457,0 -187.348,39.89 -187.348,89.1 z"
         style="fill:none;stroke:#c49d19;stroke-width:5.0003;stroke-linecap:butt;stroke-linejoin:miter;stroke-miterlimit:4;stroke-dasharray:none;stroke-opacity:1"
         id="path190" /><path
         d="m 250.152,1697.09 c 0,49.22 83.891,89.11 187.348,89.11 49.684,0 97.344,-9.4 132.492,-26.1 35.121,-16.71 54.871,-39.38 54.871,-63.01 v -59.39 c 0,-49.21 -83.883,-89.09 -187.363,-89.09 -103.457,0 -187.348,39.88 -187.348,89.09 v 59.39"
         style="fill:#fcfccf;fill-opacity:1;fill-rule:nonzero;stroke:none"
         id="path192" /><path
         d="m 250.152,1697.09 c 0,49.22 83.891,89.11 187.348,89.11 49.684,0 97.344,-9.4 132.492,-26.1 35.121,-16.71 54.871,-39.38 54.871,-63.01 v -59.39 c 0,-49.21 -83.883,-89.09 -187.363,-89.09 -103.457,0 -187.348,39.88 -187.348,89.09 z"
         style="fill:none;stroke:#c49d19;stroke-width:5.0003;stroke-linecap:butt;stroke-linejoin:miter;stroke-miterlimit:4;stroke-dasharray:none;stroke-opacity:1"
         id="path194" /><path
         d="m 250.152,1756.5 c 0,49.19 83.891,89.09 187.348,89.09 49.684,0 97.344,-9.38 132.492,-26.11 35.121,-16.69 54.871,-39.35 54.871,-62.98 v -59.41 c 0,-49.2 -83.883,-89.08 -187.363,-89.08 -103.457,0 -187.348,39.88 -187.348,89.08 v 59.41"
         style="fill:#fcfccf;fill-opacity:1;fill-rule:nonzero;stroke:none"
         id="path196" /><path
         d="m 250.152,1756.5 c 0,49.19 83.891,89.09 187.348,89.09 49.684,0 97.344,-9.38 132.492,-26.11 35.121,-16.69 54.871,-39.35 54.871,-62.98 v -59.41 c 0,-49.2 -83.883,-89.08 -187.363,-89.08 -103.457,0 -187.348,39.88 -187.348,89.08 z"
         style="fill:none;stroke:#c49d19;stroke-width:5.0003;stroke-linecap:butt;stroke-linejoin:miter;stroke-miterlimit:4;stroke-dasharray:none;stroke-opacity:1"
         id="path198" /><path
         d="m 250.152,1815.89 c 0,49.2 83.891,89.1 187.348,89.1 49.684,0 97.344,-9.4 132.492,-26.1 35.121,-16.72 54.871,-39.37 54.871,-63 v -59.39 c 0,-49.21 -83.883,-89.11 -187.363,-89.11 -103.457,0 -187.348,39.9 -187.348,89.11 v 59.39"
         style="fill:#fcfccf;fill-opacity:1;fill-rule:nonzero;stroke:none"
         id="path200" /><path
         d="m 250.152,1815.89 c 0,49.2 83.891,89.1 187.348,89.1 49.684,0 97.344,-9.4 132.492,-26.1 35.121,-16.72 54.871,-39.37 54.871,-63 v -59.39 c 0,-49.21 -83.883,-89.11 -187.363,-89.11 -103.457,0 -187.348,39.9 -187.348,89.11 z"
         style="fill:none;stroke:#c49d19;stroke-width:5.0003;stroke-linecap:butt;stroke-linejoin:miter;stroke-miterlimit:4;stroke-dasharray:none;stroke-opacity:1"
         id="path202" /><path
         d="m 624.863,1815.89 c 0,-49.19 -83.883,-89.1 -187.363,-89.1 -103.457,0 -187.348,39.91 -187.348,89.1 h 374.711"
         style="fill:#fcfccf;fill-opacity:1;fill-rule:nonzero;stroke:none"
         id="path204" /><path
         d="m 624.863,1815.89 c 0,-49.19 -83.883,-89.1 -187.363,-89.1 -103.457,0 -187.348,39.91 -187.348,89.1"
         style="fill:none;stroke:#c49d19;stroke-width:5.0003;stroke-linecap:butt;stroke-linejoin:miter;stroke-miterlimit:4;stroke-dasharray:none;stroke-opacity:1"
         id="path206" /><path
         d="m 250.152,390.363 c 0,49.2 83.891,89.082 187.348,89.082 49.684,0 97.344,-9.371 132.492,-26.082 35.121,-16.711 54.871,-39.371 54.871,-63 v -59.398 c 0,-49.199 -83.883,-89.11 -187.363,-89.11 -103.457,0 -187.348,39.911 -187.348,89.11 v 59.398"
         style="fill:#f792a4;fill-opacity:1;fill-rule:nonzero;stroke:none"
         id="path208" /><path
         d="m 250.152,390.363 c 0,49.2 83.891,89.082 187.348,89.082 49.684,0 97.344,-9.371 132.492,-26.082 35.121,-16.711 54.871,-39.371 54.871,-63 v -59.398 c 0,-49.199 -83.883,-89.11 -187.363,-89.11 -103.457,0 -187.348,39.911 -187.348,89.11 z"
         style="fill:none;stroke:#b74248;stroke-width:5.0003;stroke-linecap:butt;stroke-linejoin:miter;stroke-miterlimit:10;stroke-dasharray:none;stroke-opacity:1"
         id="path210" /><path
         d="m 250.152,449.766 c 0,49.199 83.891,89.089 187.348,89.089 49.684,0 97.344,-9.382 132.492,-26.089 35.121,-16.723 54.871,-39.371 54.871,-63 v -59.403 c 0,-49.218 -83.883,-89.097 -187.363,-89.097 -103.457,0 -187.348,39.879 -187.348,89.097 v 59.403"
         style="fill:#f792a4;fill-opacity:1;fill-rule:nonzero;stroke:none"
         id="path212" /><path
         d="m 250.152,449.766 c 0,49.199 83.891,89.089 187.348,89.089 49.684,0 97.344,-9.382 132.492,-26.089 35.121,-16.723 54.871,-39.371 54.871,-63 v -59.403 c 0,-49.218 -83.883,-89.097 -187.363,-89.097 -103.457,0 -187.348,39.879 -187.348,89.097 z"
         style="fill:none;stroke:#b74248;stroke-width:5.0003;stroke-linecap:butt;stroke-linejoin:miter;stroke-miterlimit:10;stroke-dasharray:none;stroke-opacity:1"
         id="path214" /><path
         d="m 250.152,509.145 c 0,49.23 83.891,89.101 187.348,89.101 49.684,0 97.344,-9.383 132.492,-26.082 35.121,-16.711 54.871,-39.391 54.871,-63.019 v -59.379 c 0,-49.211 -83.883,-89.102 -187.363,-89.102 -103.457,0 -187.348,39.891 -187.348,89.102 v 59.379"
         style="fill:#f792a4;fill-opacity:1;fill-rule:nonzero;stroke:none"
         id="path216" /><path
         d="m 250.152,509.145 c 0,49.23 83.891,89.101 187.348,89.101 49.684,0 97.344,-9.383 132.492,-26.082 35.121,-16.711 54.871,-39.391 54.871,-63.019 v -59.379 c 0,-49.211 -83.883,-89.102 -187.363,-89.102 -103.457,0 -187.348,39.891 -187.348,89.102 z"
         style="fill:none;stroke:#b74248;stroke-width:5.0003;stroke-linecap:butt;stroke-linejoin:miter;stroke-miterlimit:10;stroke-dasharray:none;stroke-opacity:1"
         id="path218" /><path
         d="m 250.152,568.543 c 0,49.199 83.891,89.109 187.348,89.109 49.684,0 97.344,-9.398 132.492,-26.109 35.121,-16.699 54.871,-39.359 54.871,-63 v -59.398 c 0,-49.2 -83.883,-89.082 -187.363,-89.082 -103.457,0 -187.348,39.882 -187.348,89.082 v 59.398"
         style="fill:#f792a4;fill-opacity:1;fill-rule:nonzero;stroke:none"
         id="path220" /><path
         d="m 250.152,568.543 c 0,49.199 83.891,89.109 187.348,89.109 49.684,0 97.344,-9.398 132.492,-26.109 35.121,-16.699 54.871,-39.359 54.871,-63 v -59.398 c 0,-49.2 -83.883,-89.082 -187.363,-89.082 -103.457,0 -187.348,39.882 -187.348,89.082 z"
         style="fill:none;stroke:#b74248;stroke-width:5.0003;stroke-linecap:butt;stroke-linejoin:miter;stroke-miterlimit:10;stroke-dasharray:none;stroke-opacity:1"
         id="path222" /><path
         d="m 250.152,627.953 c 0,49.199 83.891,89.102 187.348,89.102 49.684,0 97.344,-9.391 132.492,-26.102 35.121,-16.719 54.871,-39.379 54.871,-63 v -59.41 c 0,-49.199 -83.883,-89.098 -187.363,-89.098 -103.457,0 -187.348,39.899 -187.348,89.098 v 59.41"
         style="fill:#f792a4;fill-opacity:1;fill-rule:nonzero;stroke:none"
         id="path224" /><path
         d="m 250.152,627.953 c 0,49.199 83.891,89.102 187.348,89.102 49.684,0 97.344,-9.391 132.492,-26.102 35.121,-16.719 54.871,-39.379 54.871,-63 v -59.41 c 0,-49.199 -83.883,-89.098 -187.363,-89.098 -103.457,0 -187.348,39.899 -187.348,89.098 z"
         style="fill:none;stroke:#b74248;stroke-width:5.0003;stroke-linecap:butt;stroke-linejoin:miter;stroke-miterlimit:10;stroke-dasharray:none;stroke-opacity:1"
         id="path226" /><path
         d="m 624.863,627.953 c 0,-49.199 -83.883,-89.098 -187.363,-89.098 -103.457,0 -187.348,39.899 -187.348,89.098 h 374.711"
         style="fill:#f792a4;fill-opacity:1;fill-rule:nonzero;stroke:none"
         id="path228" /><path
         d="m 624.863,627.953 c 0,-49.199 -83.883,-89.098 -187.363,-89.098 -103.457,0 -187.348,39.899 -187.348,89.098"
         style="fill:none;stroke:#b74248;stroke-width:5.0003;stroke-linecap:butt;stroke-linejoin:miter;stroke-miterlimit:10;stroke-dasharray:none;stroke-opacity:1"
         id="path230" /><g
         id="g232"
         transform="scale(10)"><text
           transform="matrix(0.915332,0,0,-1,32.1711,297.413)"
           style="font-variant:normal;font-weight:normal;font-size:6.99976px;font-family:Arial;-inkscape-font-specification:ArialMT;writing-mode:lr-tb;fill:#100f0d;fill-opacity:1;fill-rule:nonzero;stroke:none"
           id="text240"><tspan
             x="0 3.8918664 7.7837329 11.6756 15.567466 17.513399 21.405266"
             y="0"
             sodipodi:role="line"
             id="tspan234">2020/01</tspan><tspan
             x="-0.00085352 3.8910131 7.7828798 11.674747 15.566612 17.512547 21.404413"
             y="118.271"
             sodipodi:role="line"
             id="tspan236">2020/02</tspan><tspan
             x="0 3.8918664 7.7837329 11.6756 15.567466 17.513399 21.405266"
             y="237.183"
             sodipodi:role="line"
             id="tspan238">2020/03</tspan></text></g></g></g></svg>
