<?xml version="1.0" encoding="UTF-8" standalone="no"?>
<svg
   xmlns:dc="http://purl.org/dc/elements/1.1/"
   xmlns:cc="http://creativecommons.org/ns#"
   xmlns:rdf="http://www.w3.org/1999/02/22-rdf-syntax-ns#"
   xmlns:svg="http://www.w3.org/2000/svg"
   xmlns="http://www.w3.org/2000/svg"
   xmlns:sodipodi="http://sodipodi.sourceforge.net/DTD/sodipodi-0.dtd"
   xmlns:inkscape="http://www.inkscape.org/namespaces/inkscape"
   version="1.1"
   id="svg2"
   xml:space="preserve"
   width="314.66666"
   height="152"
   viewBox="0 0 314.66666 152"
   sodipodi:docname="8-12.eps"><metadata
     id="metadata8"><rdf:RDF><cc:Work
         rdf:about=""><dc:format>image/svg+xml</dc:format><dc:type
           rdf:resource="http://purl.org/dc/dcmitype/StillImage" /></cc:Work></rdf:RDF></metadata><defs
     id="defs6" /><sodipodi:namedview
     pagecolor="#ffffff"
     bordercolor="#666666"
     borderopacity="1"
     objecttolerance="10"
     gridtolerance="10"
     guidetolerance="10"
     inkscape:pageopacity="0"
     inkscape:pageshadow="2"
     inkscape:window-width="640"
     inkscape:window-height="480"
     id="namedview4" /><g
     id="g10"
     inkscape:groupmode="layer"
     inkscape:label="ink_ext_XXXXXX"
     transform="matrix(1.3333333,0,0,-1.3333333,0,152)"><g
       id="g12"
       transform="scale(0.1)"><path
         d="M 1397.87,890.855 1951.03,475.52"
         style="fill:none;stroke:#100f0d;stroke-width:5.0003;stroke-linecap:butt;stroke-linejoin:miter;stroke-miterlimit:10;stroke-dasharray:none;stroke-opacity:1"
         id="path14" /><path
         d="m 1934.39,469.855 52.06,-20.929 -34.62,44.164 z"
         style="fill:#100f0d;fill-opacity:1;fill-rule:nonzero;stroke:none"
         id="path16" /><path
         d="M 1311.5,890.855 1042.71,485.832"
         style="fill:none;stroke:#100f0d;stroke-width:5.0003;stroke-linecap:butt;stroke-linejoin:miter;stroke-miterlimit:10;stroke-dasharray:none;stroke-opacity:1"
         id="path18" /><path
         d="m 1036.09,502.121 -17.88,-53.195 42.08,37.129 z"
         style="fill:#100f0d;fill-opacity:1;fill-rule:nonzero;stroke:none"
         id="path20" /><path
         d="M 1225.11,890.855 414.684,469.367"
         style="fill:none;stroke:#100f0d;stroke-width:5.0003;stroke-linecap:butt;stroke-linejoin:miter;stroke-miterlimit:10;stroke-dasharray:none;stroke-opacity:1"
         id="path22" /><path
         d="m 416.77,486.828 -41.387,-37.902 54.789,12.121 z"
         style="fill:#100f0d;fill-opacity:1;fill-rule:nonzero;stroke:none"
         id="path24" /><path
         d="m 1174.89,1131.92 h 273.21 c 19.97,0 36.15,-16.19 36.15,-36.15 V 927.012 c 0,-19.965 -16.18,-36.157 -36.15,-36.157 h -273.21 c -19.96,0 -36.15,16.192 -36.15,36.157 v 168.758 c 0,19.96 16.19,36.15 36.15,36.15"
         style="fill:#e0f2c3;fill-opacity:1;fill-rule:nonzero;stroke:none"
         id="path26" /><path
         d="m 1174.89,1131.92 h 273.21 c 19.97,0 36.15,-16.19 36.15,-36.15 V 927.012 c 0,-19.965 -16.18,-36.157 -36.15,-36.157 h -273.21 c -19.96,0 -36.15,16.192 -36.15,36.157 v 168.758 c 0,19.96 16.19,36.15 36.15,36.15 z"
         style="fill:none;stroke:#298a3c;stroke-width:5.0003;stroke-linecap:butt;stroke-linejoin:miter;stroke-miterlimit:4;stroke-dasharray:none;stroke-opacity:1"
         id="path28" /><g
         id="g30"
         transform="scale(10)"><text
           transform="matrix(1,0,0,-1,116.711,103.472)"
           style="font-variant:normal;font-weight:normal;font-size:6.99976px;font-family:Arial;-inkscape-font-specification:ArialMT;writing-mode:lr-tb;fill:#100f0d;fill-opacity:1;fill-rule:nonzero;stroke:none"
           id="text36"><tspan
             x="0 5.0538268 6.6077733 8.1617203 11.6616 15.16148 18.66136 20.607294 22.553226 26.445093"
             y="0"
             sodipodi:role="line"
             id="tspan32">Clicks for</tspan><tspan
             x="5.8281298 7.7740631 11.66593 15.557796 19.449663"
             y="8.3999996"
             sodipodi:role="line"
             id="tspan34">today</tspan></text></g><path
         d="m 1335.59,448.926 h 972.28 c 19.97,0 36.15,-16.188 36.15,-36.16 V 244.027 c 0,-19.972 -16.18,-36.164 -36.15,-36.164 h -972.28 c -19.97,0 -36.15,16.192 -36.15,36.164 v 168.739 c 0,19.972 16.18,36.16 36.15,36.16"
         style="fill:#c9e4f3;fill-opacity:1;fill-rule:nonzero;stroke:none"
         id="path38" /><path
         d="m 1335.59,448.926 h 972.28 c 19.97,0 36.15,-16.188 36.15,-36.16 V 244.027 c 0,-19.972 -16.18,-36.164 -36.15,-36.164 h -972.28 c -19.97,0 -36.15,16.192 -36.15,36.164 v 168.739 c 0,19.972 16.18,36.16 36.15,36.16 z"
         style="fill:none;stroke:#293985;stroke-width:5.0003;stroke-linecap:butt;stroke-linejoin:miter;stroke-miterlimit:10;stroke-dasharray:none;stroke-opacity:1"
         id="path40" /><path
         d="m 683.867,448.926 h 409.803 c 19.96,0 36.16,-16.188 36.16,-36.16 V 244.027 c 0,-19.972 -16.2,-36.164 -36.16,-36.164 H 683.867 c -19.969,0 -36.156,16.192 -36.156,36.164 v 168.739 c 0,19.972 16.187,36.16 36.156,36.16"
         style="fill:#c9e4f3;fill-opacity:1;fill-rule:nonzero;stroke:none"
         id="path42" /><path
         d="m 683.867,448.926 h 409.803 c 19.96,0 36.16,-16.188 36.16,-36.16 V 244.027 c 0,-19.972 -16.2,-36.164 -36.16,-36.164 H 683.867 c -19.969,0 -36.156,16.192 -36.156,36.164 v 168.739 c 0,19.972 16.187,36.16 36.156,36.16 z"
         style="fill:none;stroke:#293985;stroke-width:5.0003;stroke-linecap:butt;stroke-linejoin:miter;stroke-miterlimit:10;stroke-dasharray:none;stroke-opacity:1"
         id="path44" /><g
         id="g46"
         transform="scale(10)"><text
           transform="matrix(1,0,0,-1,71.3598,30.973)"
           style="font-variant:normal;font-weight:normal;font-size:6.99976px;font-family:Arial;-inkscape-font-specification:ArialMT;writing-mode:lr-tb;fill:#100f0d;fill-opacity:1;fill-rule:nonzero;stroke:none"
           id="text50"><tspan
             x="0 3.8918664 7.7837329 11.6756 15.567466 17.513399 21.405266 25.297132 27.243067 31.134932"
             y="0"
             sodipodi:role="line"
             id="tspan48">2020/02/01</tspan></text></g><path
         d="M 41.0469,448.926 H 450.848 c 19.968,0 36.156,-16.188 36.156,-36.16 V 244.027 c 0,-19.972 -16.188,-36.164 -36.156,-36.164 H 41.0469 c -19.9649,0 -36.15627,16.192 -36.15627,36.164 v 168.739 c 0,19.972 16.19137,36.16 36.15627,36.16"
         style="fill:#c9e4f3;fill-opacity:1;fill-rule:nonzero;stroke:none"
         id="path52" /><path
         d="M 41.0469,448.926 H 450.848 c 19.968,0 36.156,-16.188 36.156,-36.16 V 244.027 c 0,-19.972 -16.188,-36.164 -36.156,-36.164 H 41.0469 c -19.9649,0 -36.15627,16.192 -36.15627,36.164 v 168.739 c 0,19.972 16.19137,36.16 36.15627,36.16 z"
         style="fill:none;stroke:#293985;stroke-width:5.0003;stroke-linecap:butt;stroke-linejoin:miter;stroke-miterlimit:10;stroke-dasharray:none;stroke-opacity:1"
         id="path54" /><g
         id="g56"
         transform="scale(10)"><text
           transform="matrix(1,0,0,-1,7.07813,30.973)"
           style="font-variant:normal;font-weight:normal;font-size:6.99976px;font-family:Arial;-inkscape-font-specification:ArialMT;writing-mode:lr-tb;fill:#100f0d;fill-opacity:1;fill-rule:nonzero;stroke:none"
           id="text60"><tspan
             x="0 3.8918664 7.7837329 11.6756 15.567466 17.513399 21.405266 25.297132 27.243067 31.134932"
             y="0"
             sodipodi:role="line"
             id="tspan58">2020/03/01</tspan></text></g><path
         d="m 1375.78,448.926 h 409.79 c 19.97,0 36.16,-16.188 36.16,-36.16 V 244.027 c 0,-19.972 -16.19,-36.164 -36.16,-36.164 h -409.79 c -19.97,0 -36.16,16.192 -36.16,36.164 v 168.739 c 0,19.972 16.19,36.16 36.16,36.16"
         style="fill:#c9e4f3;fill-opacity:1;fill-rule:nonzero;stroke:none"
         id="path62" /><path
         d="m 1375.78,448.926 h 409.79 c 19.97,0 36.16,-16.188 36.16,-36.16 V 244.027 c 0,-19.972 -16.19,-36.164 -36.16,-36.164 h -409.79 c -19.97,0 -36.16,16.192 -36.16,36.164 v 168.739 c 0,19.972 16.19,36.16 36.16,36.16 z"
         style="fill:none;stroke:#293985;stroke-width:5.0003;stroke-linecap:butt;stroke-linejoin:miter;stroke-miterlimit:10;stroke-dasharray:none;stroke-opacity:1"
         id="path64" /><path
         d="m 1415.94,448.926 h 409.8 c 19.97,0 36.16,-16.188 36.16,-36.16 V 244.027 c 0,-19.972 -16.19,-36.164 -36.16,-36.164 h -409.8 c -19.97,0 -36.15,16.192 -36.15,36.164 v 168.739 c 0,19.972 16.18,36.16 36.15,36.16"
         style="fill:#c9e4f3;fill-opacity:1;fill-rule:nonzero;stroke:none"
         id="path66" /><path
         d="m 1415.94,448.926 h 409.8 c 19.97,0 36.16,-16.188 36.16,-36.16 V 244.027 c 0,-19.972 -16.19,-36.164 -36.16,-36.164 h -409.8 c -19.97,0 -36.15,16.192 -36.15,36.164 v 168.739 c 0,19.972 16.18,36.16 36.15,36.16 z"
         style="fill:none;stroke:#293985;stroke-width:5.0003;stroke-linecap:butt;stroke-linejoin:miter;stroke-miterlimit:10;stroke-dasharray:none;stroke-opacity:1"
         id="path68" /><path
         d="m 1456.13,448.926 h 409.79 c 19.97,0 36.16,-16.188 36.16,-36.16 V 244.027 c 0,-19.972 -16.19,-36.164 -36.16,-36.164 h -409.79 c -19.97,0 -36.16,16.192 -36.16,36.164 v 168.739 c 0,19.972 16.19,36.16 36.16,36.16"
         style="fill:#c9e4f3;fill-opacity:1;fill-rule:nonzero;stroke:none"
         id="path70" /><path
         d="m 1456.13,448.926 h 409.79 c 19.97,0 36.16,-16.188 36.16,-36.16 V 244.027 c 0,-19.972 -16.19,-36.164 -36.16,-36.164 h -409.79 c -19.97,0 -36.16,16.192 -36.16,36.164 v 168.739 c 0,19.972 16.19,36.16 36.16,36.16 z"
         style="fill:none;stroke:#293985;stroke-width:5.0003;stroke-linecap:butt;stroke-linejoin:miter;stroke-miterlimit:10;stroke-dasharray:none;stroke-opacity:1"
         id="path72" /><path
         d="m 1496.3,448.926 h 409.81 c 19.96,0 36.15,-16.188 36.15,-36.16 V 244.027 c 0,-19.972 -16.19,-36.164 -36.15,-36.164 H 1496.3 c -19.97,0 -36.15,16.192 -36.15,36.164 v 168.739 c 0,19.972 16.18,36.16 36.15,36.16"
         style="fill:#c9e4f3;fill-opacity:1;fill-rule:nonzero;stroke:none"
         id="path74" /><path
         d="m 1496.3,448.926 h 409.81 c 19.96,0 36.15,-16.188 36.15,-36.16 V 244.027 c 0,-19.972 -16.19,-36.164 -36.15,-36.164 H 1496.3 c -19.97,0 -36.15,16.192 -36.15,36.164 v 168.739 c 0,19.972 16.18,36.16 36.15,36.16 z"
         style="fill:none;stroke:#293985;stroke-width:5.0003;stroke-linecap:butt;stroke-linejoin:miter;stroke-miterlimit:10;stroke-dasharray:none;stroke-opacity:1"
         id="path76" /><path
         d="m 1536.47,448.926 h 409.81 c 19.97,0 36.15,-16.188 36.15,-36.16 V 244.027 c 0,-19.972 -16.18,-36.164 -36.15,-36.164 h -409.81 c -19.96,0 -36.15,16.192 -36.15,36.164 v 168.739 c 0,19.972 16.19,36.16 36.15,36.16"
         style="fill:#c9e4f3;fill-opacity:1;fill-rule:nonzero;stroke:none"
         id="path78" /><path
         d="m 1536.47,448.926 h 409.81 c 19.97,0 36.15,-16.188 36.15,-36.16 V 244.027 c 0,-19.972 -16.18,-36.164 -36.15,-36.164 h -409.81 c -19.96,0 -36.15,16.192 -36.15,36.164 v 168.739 c 0,19.972 16.19,36.16 36.15,36.16 z"
         style="fill:none;stroke:#293985;stroke-width:5.0003;stroke-linecap:butt;stroke-linejoin:miter;stroke-miterlimit:10;stroke-dasharray:none;stroke-opacity:1"
         id="path80" /><path
         d="m 1576.66,448.926 h 409.79 c 19.97,0 36.16,-16.188 36.16,-36.16 V 244.027 c 0,-19.972 -16.19,-36.164 -36.16,-36.164 h -409.79 c -19.97,0 -36.16,16.192 -36.16,36.164 v 168.739 c 0,19.972 16.19,36.16 36.16,36.16"
         style="fill:#c9e4f3;fill-opacity:1;fill-rule:nonzero;stroke:none"
         id="path82" /><path
         d="m 1576.66,448.926 h 409.79 c 19.97,0 36.16,-16.188 36.16,-36.16 V 244.027 c 0,-19.972 -16.19,-36.164 -36.16,-36.164 h -409.79 c -19.97,0 -36.16,16.192 -36.16,36.164 v 168.739 c 0,19.972 16.19,36.16 36.16,36.16 z"
         style="fill:none;stroke:#293985;stroke-width:5.0003;stroke-linecap:butt;stroke-linejoin:miter;stroke-miterlimit:10;stroke-dasharray:none;stroke-opacity:1"
         id="path84" /><path
         d="m 1616.82,448.926 h 409.81 c 19.97,0 36.15,-16.188 36.15,-36.16 V 244.027 c 0,-19.972 -16.18,-36.164 -36.15,-36.164 h -409.81 c -19.96,0 -36.15,16.192 -36.15,36.164 v 168.739 c 0,19.972 16.19,36.16 36.15,36.16"
         style="fill:#c9e4f3;fill-opacity:1;fill-rule:nonzero;stroke:none"
         id="path86" /><path
         d="m 1616.82,448.926 h 409.81 c 19.97,0 36.15,-16.188 36.15,-36.16 V 244.027 c 0,-19.972 -16.18,-36.164 -36.15,-36.164 h -409.81 c -19.96,0 -36.15,16.192 -36.15,36.164 v 168.739 c 0,19.972 16.19,36.16 36.15,36.16 z"
         style="fill:none;stroke:#293985;stroke-width:5.0003;stroke-linecap:butt;stroke-linejoin:miter;stroke-miterlimit:10;stroke-dasharray:none;stroke-opacity:1"
         id="path88" /><path
         d="m 1657.01,448.926 h 409.79 c 19.97,0 36.17,-16.188 36.17,-36.16 V 244.027 c 0,-19.972 -16.2,-36.164 -36.17,-36.164 h -409.79 c -19.97,0 -36.16,16.192 -36.16,36.164 v 168.739 c 0,19.972 16.19,36.16 36.16,36.16"
         style="fill:#c9e4f3;fill-opacity:1;fill-rule:nonzero;stroke:none"
         id="path90" /><path
         d="m 1657.01,448.926 h 409.79 c 19.97,0 36.17,-16.188 36.17,-36.16 V 244.027 c 0,-19.972 -16.2,-36.164 -36.17,-36.164 h -409.79 c -19.97,0 -36.16,16.192 -36.16,36.164 v 168.739 c 0,19.972 16.19,36.16 36.16,36.16 z"
         style="fill:none;stroke:#293985;stroke-width:5.0003;stroke-linecap:butt;stroke-linejoin:miter;stroke-miterlimit:10;stroke-dasharray:none;stroke-opacity:1"
         id="path92" /><path
         d="m 1697.18,448.926 h 409.81 c 19.97,0 36.15,-16.188 36.15,-36.16 V 244.027 c 0,-19.972 -16.18,-36.164 -36.15,-36.164 h -409.81 c -19.96,0 -36.15,16.192 -36.15,36.164 v 168.739 c 0,19.972 16.19,36.16 36.15,36.16"
         style="fill:#c9e4f3;fill-opacity:1;fill-rule:nonzero;stroke:none"
         id="path94" /><path
         d="m 1697.18,448.926 h 409.81 c 19.97,0 36.15,-16.188 36.15,-36.16 V 244.027 c 0,-19.972 -16.18,-36.164 -36.15,-36.164 h -409.81 c -19.96,0 -36.15,16.192 -36.15,36.164 v 168.739 c 0,19.972 16.19,36.16 36.15,36.16 z"
         style="fill:none;stroke:#293985;stroke-width:5.0003;stroke-linecap:butt;stroke-linejoin:miter;stroke-miterlimit:10;stroke-dasharray:none;stroke-opacity:1"
         id="path96" /><path
         d="m 1737.36,448.926 h 409.79 c 19.98,0 36.17,-16.188 36.17,-36.16 V 244.027 c 0,-19.972 -16.19,-36.164 -36.17,-36.164 h -409.79 c -19.97,0 -36.16,16.192 -36.16,36.164 v 168.739 c 0,19.972 16.19,36.16 36.16,36.16"
         style="fill:#c9e4f3;fill-opacity:1;fill-rule:nonzero;stroke:none"
         id="path98" /><path
         d="m 1737.36,448.926 h 409.79 c 19.98,0 36.17,-16.188 36.17,-36.16 V 244.027 c 0,-19.972 -16.19,-36.164 -36.17,-36.164 h -409.79 c -19.97,0 -36.16,16.192 -36.16,36.164 v 168.739 c 0,19.972 16.19,36.16 36.16,36.16 z"
         style="fill:none;stroke:#293985;stroke-width:5.0003;stroke-linecap:butt;stroke-linejoin:miter;stroke-miterlimit:10;stroke-dasharray:none;stroke-opacity:1"
         id="path100" /><path
         d="m 1777.54,448.926 h 409.8 c 19.96,0 36.15,-16.188 36.15,-36.16 V 244.027 c 0,-19.972 -16.19,-36.164 -36.15,-36.164 h -409.8 c -19.98,0 -36.16,16.192 -36.16,36.164 v 168.739 c 0,19.972 16.18,36.16 36.16,36.16"
         style="fill:#c9e4f3;fill-opacity:1;fill-rule:nonzero;stroke:none"
         id="path102" /><path
         d="m 1777.54,448.926 h 409.8 c 19.96,0 36.15,-16.188 36.15,-36.16 V 244.027 c 0,-19.972 -16.19,-36.164 -36.15,-36.164 h -409.8 c -19.98,0 -36.16,16.192 -36.16,36.164 v 168.739 c 0,19.972 16.18,36.16 36.16,36.16 z"
         style="fill:none;stroke:#293985;stroke-width:5.0003;stroke-linecap:butt;stroke-linejoin:miter;stroke-miterlimit:10;stroke-dasharray:none;stroke-opacity:1"
         id="path104" /><path
         d="m 1817.71,448.926 h 409.8 c 19.97,0 36.15,-16.188 36.15,-36.16 V 244.027 c 0,-19.972 -16.18,-36.164 -36.15,-36.164 h -409.8 c -19.97,0 -36.16,16.192 -36.16,36.164 v 168.739 c 0,19.972 16.19,36.16 36.16,36.16"
         style="fill:#c9e4f3;fill-opacity:1;fill-rule:nonzero;stroke:none"
         id="path106" /><path
         d="m 1817.71,448.926 h 409.8 c 19.97,0 36.15,-16.188 36.15,-36.16 V 244.027 c 0,-19.972 -16.18,-36.164 -36.15,-36.164 h -409.8 c -19.97,0 -36.16,16.192 -36.16,36.164 v 168.739 c 0,19.972 16.19,36.16 36.16,36.16 z"
         style="fill:none;stroke:#293985;stroke-width:5.0003;stroke-linecap:butt;stroke-linejoin:miter;stroke-miterlimit:10;stroke-dasharray:none;stroke-opacity:1"
         id="path108" /><path
         d="m 1857.89,448.926 h 409.79 c 19.97,0 36.16,-16.188 36.16,-36.16 V 244.027 c 0,-19.972 -16.19,-36.164 -36.16,-36.164 h -409.79 c -19.97,0 -36.16,16.192 -36.16,36.164 v 168.739 c 0,19.972 16.19,36.16 36.16,36.16"
         style="fill:#c9e4f3;fill-opacity:1;fill-rule:nonzero;stroke:none"
         id="path110" /><path
         d="m 1857.89,448.926 h 409.79 c 19.97,0 36.16,-16.188 36.16,-36.16 V 244.027 c 0,-19.972 -16.19,-36.164 -36.16,-36.164 h -409.79 c -19.97,0 -36.16,16.192 -36.16,36.164 v 168.739 c 0,19.972 16.19,36.16 36.16,36.16 z"
         style="fill:none;stroke:#293985;stroke-width:5.0003;stroke-linecap:butt;stroke-linejoin:miter;stroke-miterlimit:10;stroke-dasharray:none;stroke-opacity:1"
         id="path112" /><path
         d="m 1901.91,448.926 h 409.81 c 19.96,0 36.15,-16.188 36.15,-36.16 V 244.027 c 0,-19.972 -16.19,-36.164 -36.15,-36.164 h -409.81 c -19.97,0 -36.15,16.192 -36.15,36.164 v 168.739 c 0,19.972 16.18,36.16 36.15,36.16"
         style="fill:#c9e4f3;fill-opacity:1;fill-rule:nonzero;stroke:none"
         id="path114" /><path
         d="m 1901.91,448.926 h 409.81 c 19.96,0 36.15,-16.188 36.15,-36.16 V 244.027 c 0,-19.972 -16.19,-36.164 -36.15,-36.164 h -409.81 c -19.97,0 -36.15,16.192 -36.15,36.164 v 168.739 c 0,19.972 16.18,36.16 36.15,36.16 z"
         style="fill:none;stroke:#293985;stroke-width:5.0003;stroke-linecap:butt;stroke-linejoin:miter;stroke-miterlimit:10;stroke-dasharray:none;stroke-opacity:1"
         id="path116" /><g
         id="g118"
         transform="scale(10)"><text
           transform="matrix(1,0,0,-1,193.164,30.973)"
           style="font-variant:normal;font-weight:normal;font-size:6.99976px;font-family:Arial;-inkscape-font-specification:ArialMT;writing-mode:lr-tb;fill:#100f0d;fill-opacity:1;fill-rule:nonzero;stroke:none"
           id="text124"><tspan
             x="0 3.8918664 7.7837329 11.6756 15.567466 17.513399 21.405266 25.297132 27.243067 31.134932"
             y="0"
             sodipodi:role="line"
             id="tspan120">2020/01/01</tspan><tspan
             x="-123.424 -118.75516 -116.42424 -112.53237 -108.64051 -104.74864 -101.24876 -97.356895 -93.857018"
             y="-68.299202"
             sodipodi:role="line"
             id="tspan122">Broadcast</tspan></text></g><path
         d="m 111.395,248.047 h 273.207 c 19.972,0 36.156,-16.188 36.156,-36.16 V 43.1406 c 0,-19.9609 -16.184,-36.16013 -36.156,-36.16013 H 111.395 c -19.9692,0 -36.1606,16.19923 -36.1606,36.16013 V 211.887 c 0,19.972 16.1914,36.16 36.1606,36.16"
         style="fill:#e0f2c3;fill-opacity:1;fill-rule:nonzero;stroke:none"
         id="path126" /><path
         d="m 111.395,248.047 h 273.207 c 19.972,0 36.156,-16.188 36.156,-36.16 V 43.1406 c 0,-19.9609 -16.184,-36.16013 -36.156,-36.16013 H 111.395 c -19.9692,0 -36.1606,16.19923 -36.1606,36.16013 V 211.887 c 0,19.972 16.1914,36.16 36.1606,36.16 z"
         style="fill:none;stroke:#298a3c;stroke-width:5.0003;stroke-linecap:butt;stroke-linejoin:miter;stroke-miterlimit:4;stroke-dasharray:none;stroke-opacity:1"
         id="path128" /><g
         id="g130"
         transform="scale(10)"><text
           transform="matrix(1,0,0,-1,10.3613,15.0848)"
           style="font-variant:normal;font-weight:normal;font-size:6.99976px;font-family:Arial;-inkscape-font-specification:ArialMT;writing-mode:lr-tb;fill:#100f0d;fill-opacity:1;fill-rule:nonzero;stroke:none"
           id="text136"><tspan
             x="0 5.0538268 6.6077733 8.1617203 11.6616 15.16148 18.66136 20.607294 22.553226 26.445093"
             y="0"
             sodipodi:role="line"
             id="tspan132">Clicks for</tspan><tspan
             x="5.8273401 7.7732735 11.66514 15.557007 19.448874"
             y="8.4007797"
             sodipodi:role="line"
             id="tspan134">today</tspan></text></g><path
         d="m 1725.31,248.047 h 273.2 c 19.97,0 36.16,-16.188 36.16,-36.16 V 43.1406 c 0,-19.9609 -16.19,-36.16013 -36.16,-36.16013 h -273.2 c -19.97,0 -36.15,16.19923 -36.15,36.16013 V 211.887 c 0,19.972 16.18,36.16 36.15,36.16"
         style="fill:#e0f2c3;fill-opacity:1;fill-rule:nonzero;stroke:none"
         id="path138" /><path
         d="m 1725.31,248.047 h 273.2 c 19.97,0 36.16,-16.188 36.16,-36.16 V 43.1406 c 0,-19.9609 -16.19,-36.16013 -36.16,-36.16013 h -273.2 c -19.97,0 -36.15,16.19923 -36.15,36.16013 V 211.887 c 0,19.972 16.18,36.16 36.15,36.16 z"
         style="fill:none;stroke:#298a3c;stroke-width:5.0003;stroke-linecap:butt;stroke-linejoin:miter;stroke-miterlimit:4;stroke-dasharray:none;stroke-opacity:1"
         id="path140" /><path
         d="m 760.113,248.047 h 273.207 c 19.97,0 36.16,-16.188 36.16,-36.16 V 43.1406 c 0,-19.9609 -16.19,-36.16013 -36.16,-36.16013 H 760.113 c -19.968,0 -36.16,16.19923 -36.16,36.16013 V 211.887 c 0,19.972 16.192,36.16 36.16,36.16"
         style="fill:#e0f2c3;fill-opacity:1;fill-rule:nonzero;stroke:none"
         id="path142" /><path
         d="m 760.113,248.047 h 273.207 c 19.97,0 36.16,-16.188 36.16,-36.16 V 43.1406 c 0,-19.9609 -16.19,-36.16013 -36.16,-36.16013 H 760.113 c -19.968,0 -36.16,16.19923 -36.16,36.16013 V 211.887 c 0,19.972 16.192,36.16 36.16,36.16 z"
         style="fill:none;stroke:#298a3c;stroke-width:5.0003;stroke-linecap:butt;stroke-linejoin:miter;stroke-miterlimit:4;stroke-dasharray:none;stroke-opacity:1"
         id="path144" /><g
         id="g146"
         transform="scale(10)"><text
           transform="matrix(1,0,0,-1,75.2336,15.0848)"
           style="font-variant:normal;font-weight:normal;font-size:6.99976px;font-family:Arial;-inkscape-font-specification:ArialMT;writing-mode:lr-tb;fill:#100f0d;fill-opacity:1;fill-rule:nonzero;stroke:none"
           id="text156"><tspan
             x="0 5.0538268 6.6077733 8.1617203 11.6616 15.16148 18.66136 20.607294 22.553226 26.445093"
             y="0"
             sodipodi:role="line"
             id="tspan148">Clicks for</tspan><tspan
             x="5.8277302 7.773663 11.66553 15.557396 19.449263"
             y="8.4007797"
             sodipodi:role="line"
             id="tspan150">today</tspan><tspan
             x="96.519531 101.57336 103.1273 104.68125 108.18113 111.68101 115.18089 117.12682 119.07275 122.96462"
             y="0"
             sodipodi:role="line"
             id="tspan152">Clicks for</tspan><tspan
             x="102.34766 104.29359 108.18546 112.07732 115.96919"
             y="8.4007797"
             sodipodi:role="line"
             id="tspan154">today</tspan></text></g><path
         d="m 1104.48,896.023 c -14.58,0 -26.39,17.571 -26.39,39.254 v 36.86 c 0,21.672 -11.82,39.253 -26.4,39.253 14.58,0 26.4,17.57 26.4,39.24 v 36.87 c 0,21.68 11.81,39.25 26.39,39.25"
         style="fill:none;stroke:#231f20;stroke-width:5.0003;stroke-linecap:butt;stroke-linejoin:round;stroke-miterlimit:10;stroke-dasharray:none;stroke-opacity:1"
         id="path158" /></g></g></svg>
