<?xml version="1.0" encoding="UTF-8" standalone="no"?>
<svg
   xmlns:dc="http://purl.org/dc/elements/1.1/"
   xmlns:cc="http://creativecommons.org/ns#"
   xmlns:rdf="http://www.w3.org/1999/02/22-rdf-syntax-ns#"
   xmlns:svg="http://www.w3.org/2000/svg"
   xmlns="http://www.w3.org/2000/svg"
   xmlns:sodipodi="http://sodipodi.sourceforge.net/DTD/sodipodi-0.dtd"
   xmlns:inkscape="http://www.inkscape.org/namespaces/inkscape"
   version="1.1"
   id="svg2"
   xml:space="preserve"
   width="385.33334"
   height="80"
   viewBox="0 0 385.33334 80"
   sodipodi:docname="8-13.eps"><metadata
     id="metadata8"><rdf:RDF><cc:Work
         rdf:about=""><dc:format>image/svg+xml</dc:format><dc:type
           rdf:resource="http://purl.org/dc/dcmitype/StillImage" /></cc:Work></rdf:RDF></metadata><defs
     id="defs6" /><sodipodi:namedview
     pagecolor="#ffffff"
     bordercolor="#666666"
     borderopacity="1"
     objecttolerance="10"
     gridtolerance="10"
     guidetolerance="10"
     inkscape:pageopacity="0"
     inkscape:pageshadow="2"
     inkscape:window-width="640"
     inkscape:window-height="480"
     id="namedview4" /><g
     id="g10"
     inkscape:groupmode="layer"
     inkscape:label="ink_ext_XXXXXX"
     transform="matrix(1.3333333,0,0,-1.3333333,0,80)"><g
       id="g12"
       transform="scale(0.1)"><g
         id="g14"
         transform="scale(10)"><text
           transform="matrix(1,0,0,-1,105.139,54.0488)"
           style="font-variant:normal;font-weight:normal;font-size:7.99981px;font-family:'Courier New';-inkscape-font-specification:Courier;writing-mode:lr-tb;fill:#100f0d;fill-opacity:1;fill-rule:nonzero;stroke:none"
           id="text18"><tspan
             x="0 4.7998862 9.5997725 14.399658 19.199545 23.99943 28.799316 33.599201 38.39909"
             y="0"
             sodipodi:role="line"
             id="tspan16">MapReduce</tspan></text><text
           transform="matrix(1,0,0,-1,150.2824,54.0488)"
           style="font-variant:normal;font-weight:normal;font-size:6.99976px;font-family:Arial;-inkscape-font-specification:ArialMT;writing-mode:lr-tb;fill:#100f0d;fill-opacity:1;fill-rule:nonzero;stroke:none"
           id="text22"><tspan
             x="0 3.8918664 6.2227864 10.114654 13.614533 17.506399 21.006279 24.506159 26.060106 29.951973"
             y="0"
             sodipodi:role="line"
             id="tspan20">processing</tspan></text></g><path
         d="m 7.78125,328.512 c 0,38.441 62.33985,69.613 139.21075,69.613 36.93,0 72.352,-7.34 98.453,-20.402 26.118,-13.035 40.782,-30.746 40.782,-49.211 V 142.891 c 0,-38.457 -62.336,-69.6215 -139.235,-69.6215 -76.8709,0 -139.21075,31.1645 -139.21075,69.6215 v 185.621"
         style="fill:#c9e4f3;fill-opacity:1;fill-rule:nonzero;stroke:none"
         id="path24" /><path
         d="m 7.78125,328.512 c 0,38.441 62.33985,69.613 139.21075,69.613 36.93,0 72.352,-7.34 98.453,-20.402 26.118,-13.035 40.782,-30.746 40.782,-49.211 V 142.891 c 0,-38.457 -62.336,-69.6215 -139.235,-69.6215 -76.8709,0 -139.21075,31.1645 -139.21075,69.6215 z"
         style="fill:none;stroke:#293985;stroke-width:5.0003;stroke-linecap:butt;stroke-linejoin:miter;stroke-miterlimit:10;stroke-dasharray:none;stroke-opacity:1"
         id="path26" /><path
         d="m 286.227,328.512 c 0,-38.446 -62.336,-69.617 -139.235,-69.617 -76.8709,0 -139.21075,31.171 -139.21075,69.617 H 286.227"
         style="fill:#c9e4f3;fill-opacity:1;fill-rule:nonzero;stroke:none"
         id="path28" /><path
         d="m 286.227,328.512 c 0,-38.446 -62.336,-69.617 -139.235,-69.617 -76.8709,0 -139.21075,31.171 -139.21075,69.617"
         style="fill:none;stroke:#293985;stroke-width:5.0003;stroke-linecap:butt;stroke-linejoin:miter;stroke-miterlimit:10;stroke-dasharray:none;stroke-opacity:1"
         id="path30" /><path
         d="m 7.78125,328.512 c 0,38.441 62.33985,69.613 139.21075,69.613 36.93,0 72.352,-7.34 98.453,-20.402 26.118,-13.035 40.782,-30.746 40.782,-49.211 V 189.289 c 0,-38.449 -62.336,-69.601 -139.235,-69.601 -76.8709,0 -139.21075,31.152 -139.21075,69.601 v 139.223"
         style="fill:#c9e4f3;fill-opacity:1;fill-rule:nonzero;stroke:none"
         id="path32" /><path
         d="m 7.78125,328.512 c 0,38.441 62.33985,69.613 139.21075,69.613 36.93,0 72.352,-7.34 98.453,-20.402 26.118,-13.035 40.782,-30.746 40.782,-49.211 V 189.289 c 0,-38.449 -62.336,-69.601 -139.235,-69.601 -76.8709,0 -139.21075,31.152 -139.21075,69.601 z"
         style="fill:none;stroke:#293985;stroke-width:5.0003;stroke-linecap:butt;stroke-linejoin:miter;stroke-miterlimit:10;stroke-dasharray:none;stroke-opacity:1"
         id="path34" /><path
         d="m 286.227,328.512 c 0,-38.446 -62.336,-69.617 -139.235,-69.617 -76.8709,0 -139.21075,31.171 -139.21075,69.617 H 286.227"
         style="fill:#c9e4f3;fill-opacity:1;fill-rule:nonzero;stroke:none"
         id="path36" /><path
         d="m 286.227,328.512 c 0,-38.446 -62.336,-69.617 -139.235,-69.617 -76.8709,0 -139.21075,31.171 -139.21075,69.617"
         style="fill:none;stroke:#293985;stroke-width:5.0003;stroke-linecap:butt;stroke-linejoin:miter;stroke-miterlimit:10;stroke-dasharray:none;stroke-opacity:1"
         id="path38" /><path
         d="m 7.78125,328.512 c 0,38.441 62.33985,69.613 139.21075,69.613 36.93,0 72.352,-7.34 98.453,-20.402 26.118,-13.035 40.782,-30.746 40.782,-49.211 v -92.821 c 0,-38.433 -62.336,-69.597 -139.235,-69.597 -76.8709,0 -139.21075,31.164 -139.21075,69.597 v 92.821"
         style="fill:#c9e4f3;fill-opacity:1;fill-rule:nonzero;stroke:none"
         id="path40" /><path
         d="m 7.78125,328.512 c 0,38.441 62.33985,69.613 139.21075,69.613 36.93,0 72.352,-7.34 98.453,-20.402 26.118,-13.035 40.782,-30.746 40.782,-49.211 v -92.821 c 0,-38.433 -62.336,-69.597 -139.235,-69.597 -76.8709,0 -139.21075,31.164 -139.21075,69.597 z"
         style="fill:none;stroke:#293985;stroke-width:5.0003;stroke-linecap:butt;stroke-linejoin:miter;stroke-miterlimit:10;stroke-dasharray:none;stroke-opacity:1"
         id="path42" /><path
         d="m 286.227,328.512 c 0,-38.446 -62.336,-69.617 -139.235,-69.617 -76.8709,0 -139.21075,31.171 -139.21075,69.617 H 286.227"
         style="fill:#c9e4f3;fill-opacity:1;fill-rule:nonzero;stroke:none"
         id="path44" /><path
         d="m 286.227,328.512 c 0,-38.446 -62.336,-69.617 -139.235,-69.617 -76.8709,0 -139.21075,31.171 -139.21075,69.617"
         style="fill:none;stroke:#293985;stroke-width:5.0003;stroke-linecap:butt;stroke-linejoin:miter;stroke-miterlimit:10;stroke-dasharray:none;stroke-opacity:1"
         id="path46" /><path
         d="m 7.78125,328.512 c 0,38.441 62.33985,69.613 139.21075,69.613 36.93,0 72.352,-7.34 98.453,-20.402 26.118,-13.035 40.782,-30.746 40.782,-49.211 v -46.414 c 0,-38.434 -62.336,-69.61 -139.235,-69.61 -76.8709,0 -139.21075,31.176 -139.21075,69.61 v 46.414"
         style="fill:#c9e4f3;fill-opacity:1;fill-rule:nonzero;stroke:none"
         id="path48" /><path
         d="m 7.78125,328.512 c 0,38.441 62.33985,69.613 139.21075,69.613 36.93,0 72.352,-7.34 98.453,-20.402 26.118,-13.035 40.782,-30.746 40.782,-49.211 v -46.414 c 0,-38.434 -62.336,-69.61 -139.235,-69.61 -76.8709,0 -139.21075,31.176 -139.21075,69.61 z"
         style="fill:none;stroke:#293985;stroke-width:5.0003;stroke-linecap:butt;stroke-linejoin:miter;stroke-miterlimit:10;stroke-dasharray:none;stroke-opacity:1"
         id="path50" /><path
         d="m 286.227,328.512 c 0,-38.446 -62.336,-69.617 -139.235,-69.617 -76.8709,0 -139.21075,31.171 -139.21075,69.617 H 286.227"
         style="fill:#c9e4f3;fill-opacity:1;fill-rule:nonzero;stroke:none"
         id="path52" /><path
         d="m 286.227,328.512 c 0,-38.446 -62.336,-69.617 -139.235,-69.617 -76.8709,0 -139.21075,31.171 -139.21075,69.617"
         style="fill:none;stroke:#293985;stroke-width:5.0003;stroke-linecap:butt;stroke-linejoin:miter;stroke-miterlimit:10;stroke-dasharray:none;stroke-opacity:1"
         id="path54" /><path
         d="m 2606.54,328.512 c 0,38.441 62.33,69.613 139.2,69.613 36.93,0 72.34,-7.34 98.45,-20.402 26.1,-13.035 40.79,-30.746 40.79,-49.211 V 142.891 c 0,-38.457 -62.34,-69.6215 -139.24,-69.6215 -76.87,0 -139.2,31.1645 -139.2,69.6215 v 185.621"
         style="fill:#c9e4f3;fill-opacity:1;fill-rule:nonzero;stroke:none"
         id="path56" /><path
         d="m 2606.54,328.512 c 0,38.441 62.33,69.613 139.2,69.613 36.93,0 72.34,-7.34 98.45,-20.402 26.1,-13.035 40.79,-30.746 40.79,-49.211 V 142.891 c 0,-38.457 -62.34,-69.6215 -139.24,-69.6215 -76.87,0 -139.2,31.1645 -139.2,69.6215 z"
         style="fill:none;stroke:#293985;stroke-width:5.0003;stroke-linecap:butt;stroke-linejoin:miter;stroke-miterlimit:10;stroke-dasharray:none;stroke-opacity:1"
         id="path58" /><path
         d="m 2884.98,328.512 c 0,-38.446 -62.34,-69.617 -139.24,-69.617 -76.87,0 -139.2,31.171 -139.2,69.617 h 278.44"
         style="fill:#c9e4f3;fill-opacity:1;fill-rule:nonzero;stroke:none"
         id="path60" /><path
         d="m 2884.98,328.512 c 0,-38.446 -62.34,-69.617 -139.24,-69.617 -76.87,0 -139.2,31.171 -139.2,69.617"
         style="fill:none;stroke:#293985;stroke-width:5.0003;stroke-linecap:butt;stroke-linejoin:miter;stroke-miterlimit:10;stroke-dasharray:none;stroke-opacity:1"
         id="path62" /><path
         d="m 2606.54,328.512 c 0,38.441 62.33,69.613 139.2,69.613 36.93,0 72.34,-7.34 98.45,-20.402 26.1,-13.035 40.79,-30.746 40.79,-49.211 V 189.289 c 0,-38.449 -62.34,-69.601 -139.24,-69.601 -76.87,0 -139.2,31.152 -139.2,69.601 v 139.223"
         style="fill:#c9e4f3;fill-opacity:1;fill-rule:nonzero;stroke:none"
         id="path64" /><path
         d="m 2606.54,328.512 c 0,38.441 62.33,69.613 139.2,69.613 36.93,0 72.34,-7.34 98.45,-20.402 26.1,-13.035 40.79,-30.746 40.79,-49.211 V 189.289 c 0,-38.449 -62.34,-69.601 -139.24,-69.601 -76.87,0 -139.2,31.152 -139.2,69.601 z"
         style="fill:none;stroke:#293985;stroke-width:5.0003;stroke-linecap:butt;stroke-linejoin:miter;stroke-miterlimit:10;stroke-dasharray:none;stroke-opacity:1"
         id="path66" /><path
         d="m 2884.98,328.512 c 0,-38.446 -62.34,-69.617 -139.24,-69.617 -76.87,0 -139.2,31.171 -139.2,69.617 h 278.44"
         style="fill:#c9e4f3;fill-opacity:1;fill-rule:nonzero;stroke:none"
         id="path68" /><path
         d="m 2884.98,328.512 c 0,-38.446 -62.34,-69.617 -139.24,-69.617 -76.87,0 -139.2,31.171 -139.2,69.617"
         style="fill:none;stroke:#293985;stroke-width:5.0003;stroke-linecap:butt;stroke-linejoin:miter;stroke-miterlimit:10;stroke-dasharray:none;stroke-opacity:1"
         id="path70" /><path
         d="m 2606.54,328.512 c 0,38.441 62.33,69.613 139.2,69.613 36.93,0 72.34,-7.34 98.45,-20.402 26.1,-13.035 40.79,-30.746 40.79,-49.211 v -92.821 c 0,-38.433 -62.34,-69.597 -139.24,-69.597 -76.87,0 -139.2,31.164 -139.2,69.597 v 92.821"
         style="fill:#c9e4f3;fill-opacity:1;fill-rule:nonzero;stroke:none"
         id="path72" /><path
         d="m 2606.54,328.512 c 0,38.441 62.33,69.613 139.2,69.613 36.93,0 72.34,-7.34 98.45,-20.402 26.1,-13.035 40.79,-30.746 40.79,-49.211 v -92.821 c 0,-38.433 -62.34,-69.597 -139.24,-69.597 -76.87,0 -139.2,31.164 -139.2,69.597 z"
         style="fill:none;stroke:#293985;stroke-width:5.0003;stroke-linecap:butt;stroke-linejoin:miter;stroke-miterlimit:10;stroke-dasharray:none;stroke-opacity:1"
         id="path74" /><path
         d="m 2884.98,328.512 c 0,-38.446 -62.34,-69.617 -139.24,-69.617 -76.87,0 -139.2,31.171 -139.2,69.617 h 278.44"
         style="fill:#c9e4f3;fill-opacity:1;fill-rule:nonzero;stroke:none"
         id="path76" /><path
         d="m 2884.98,328.512 c 0,-38.446 -62.34,-69.617 -139.24,-69.617 -76.87,0 -139.2,31.171 -139.2,69.617"
         style="fill:none;stroke:#293985;stroke-width:5.0003;stroke-linecap:butt;stroke-linejoin:miter;stroke-miterlimit:10;stroke-dasharray:none;stroke-opacity:1"
         id="path78" /><path
         d="m 2606.54,328.512 c 0,38.441 62.33,69.613 139.2,69.613 36.93,0 72.34,-7.34 98.45,-20.402 26.1,-13.035 40.79,-30.746 40.79,-49.211 v -46.414 c 0,-38.434 -62.34,-69.61 -139.24,-69.61 -76.87,0 -139.2,31.176 -139.2,69.61 v 46.414"
         style="fill:#c9e4f3;fill-opacity:1;fill-rule:nonzero;stroke:none"
         id="path80" /><path
         d="m 2606.54,328.512 c 0,38.441 62.33,69.613 139.2,69.613 36.93,0 72.34,-7.34 98.45,-20.402 26.1,-13.035 40.79,-30.746 40.79,-49.211 v -46.414 c 0,-38.434 -62.34,-69.61 -139.24,-69.61 -76.87,0 -139.2,31.176 -139.2,69.61 z"
         style="fill:none;stroke:#293985;stroke-width:5.0003;stroke-linecap:butt;stroke-linejoin:miter;stroke-miterlimit:10;stroke-dasharray:none;stroke-opacity:1"
         id="path82" /><path
         d="m 2884.98,328.512 c 0,-38.446 -62.34,-69.617 -139.24,-69.617 -76.87,0 -139.2,31.171 -139.2,69.617 h 278.44"
         style="fill:#c9e4f3;fill-opacity:1;fill-rule:nonzero;stroke:none"
         id="path84" /><path
         d="m 2884.98,328.512 c 0,-38.446 -62.34,-69.617 -139.24,-69.617 -76.87,0 -139.2,31.171 -139.2,69.617"
         style="fill:none;stroke:#293985;stroke-width:5.0003;stroke-linecap:butt;stroke-linejoin:miter;stroke-miterlimit:10;stroke-dasharray:none;stroke-opacity:1"
         id="path86" /><path
         d="m 1307.16,328.512 c 0,38.441 62.32,69.613 139.22,69.613 36.92,0 72.33,-7.34 98.43,-20.402 26.12,-13.035 40.78,-30.746 40.78,-49.211 V 142.891 c 0,-38.457 -62.34,-69.6215 -139.21,-69.6215 -76.9,0 -139.22,31.1645 -139.22,69.6215 v 185.621"
         style="fill:#c9e4f3;fill-opacity:1;fill-rule:nonzero;stroke:none"
         id="path88" /><path
         d="m 1307.16,328.512 c 0,38.441 62.32,69.613 139.22,69.613 36.92,0 72.33,-7.34 98.43,-20.402 26.12,-13.035 40.78,-30.746 40.78,-49.211 V 142.891 c 0,-38.457 -62.34,-69.6215 -139.21,-69.6215 -76.9,0 -139.22,31.1645 -139.22,69.6215 z"
         style="fill:none;stroke:#293985;stroke-width:5.0003;stroke-linecap:butt;stroke-linejoin:miter;stroke-miterlimit:10;stroke-dasharray:none;stroke-opacity:1"
         id="path90" /><path
         d="m 1585.59,328.512 c 0,-38.446 -62.34,-69.617 -139.21,-69.617 -76.9,0 -139.22,31.171 -139.22,69.617 h 278.43"
         style="fill:#c9e4f3;fill-opacity:1;fill-rule:nonzero;stroke:none"
         id="path92" /><path
         d="m 1585.59,328.512 c 0,-38.446 -62.34,-69.617 -139.21,-69.617 -76.9,0 -139.22,31.171 -139.22,69.617"
         style="fill:none;stroke:#293985;stroke-width:5.0003;stroke-linecap:butt;stroke-linejoin:miter;stroke-miterlimit:10;stroke-dasharray:none;stroke-opacity:1"
         id="path94" /><path
         d="m 1307.16,328.512 c 0,38.441 62.32,69.613 139.22,69.613 36.92,0 72.33,-7.34 98.43,-20.402 26.12,-13.035 40.78,-30.746 40.78,-49.211 V 189.289 c 0,-38.449 -62.34,-69.601 -139.21,-69.601 -76.9,0 -139.22,31.152 -139.22,69.601 v 139.223"
         style="fill:#c9e4f3;fill-opacity:1;fill-rule:nonzero;stroke:none"
         id="path96" /><path
         d="m 1307.16,328.512 c 0,38.441 62.32,69.613 139.22,69.613 36.92,0 72.33,-7.34 98.43,-20.402 26.12,-13.035 40.78,-30.746 40.78,-49.211 V 189.289 c 0,-38.449 -62.34,-69.601 -139.21,-69.601 -76.9,0 -139.22,31.152 -139.22,69.601 z"
         style="fill:none;stroke:#293985;stroke-width:5.0003;stroke-linecap:butt;stroke-linejoin:miter;stroke-miterlimit:10;stroke-dasharray:none;stroke-opacity:1"
         id="path98" /><path
         d="m 1585.59,328.512 c 0,-38.446 -62.34,-69.617 -139.21,-69.617 -76.9,0 -139.22,31.171 -139.22,69.617 h 278.43"
         style="fill:#c9e4f3;fill-opacity:1;fill-rule:nonzero;stroke:none"
         id="path100" /><path
         d="m 1585.59,328.512 c 0,-38.446 -62.34,-69.617 -139.21,-69.617 -76.9,0 -139.22,31.171 -139.22,69.617"
         style="fill:none;stroke:#293985;stroke-width:5.0003;stroke-linecap:butt;stroke-linejoin:miter;stroke-miterlimit:10;stroke-dasharray:none;stroke-opacity:1"
         id="path102" /><path
         d="m 1307.16,328.512 c 0,38.441 62.32,69.613 139.22,69.613 36.92,0 72.33,-7.34 98.43,-20.402 26.12,-13.035 40.78,-30.746 40.78,-49.211 v -92.821 c 0,-38.433 -62.34,-69.597 -139.21,-69.597 -76.9,0 -139.22,31.164 -139.22,69.597 v 92.821"
         style="fill:#c9e4f3;fill-opacity:1;fill-rule:nonzero;stroke:none"
         id="path104" /><path
         d="m 1307.16,328.512 c 0,38.441 62.32,69.613 139.22,69.613 36.92,0 72.33,-7.34 98.43,-20.402 26.12,-13.035 40.78,-30.746 40.78,-49.211 v -92.821 c 0,-38.433 -62.34,-69.597 -139.21,-69.597 -76.9,0 -139.22,31.164 -139.22,69.597 z"
         style="fill:none;stroke:#293985;stroke-width:5.0003;stroke-linecap:butt;stroke-linejoin:miter;stroke-miterlimit:10;stroke-dasharray:none;stroke-opacity:1"
         id="path106" /><path
         d="m 1585.59,328.512 c 0,-38.446 -62.34,-69.617 -139.21,-69.617 -76.9,0 -139.22,31.171 -139.22,69.617 h 278.43"
         style="fill:#c9e4f3;fill-opacity:1;fill-rule:nonzero;stroke:none"
         id="path108" /><path
         d="m 1585.59,328.512 c 0,-38.446 -62.34,-69.617 -139.21,-69.617 -76.9,0 -139.22,31.171 -139.22,69.617"
         style="fill:none;stroke:#293985;stroke-width:5.0003;stroke-linecap:butt;stroke-linejoin:miter;stroke-miterlimit:10;stroke-dasharray:none;stroke-opacity:1"
         id="path110" /><path
         d="m 1307.16,328.512 c 0,38.441 62.32,69.613 139.22,69.613 36.92,0 72.33,-7.34 98.43,-20.402 26.12,-13.035 40.78,-30.746 40.78,-49.211 v -46.414 c 0,-38.434 -62.34,-69.61 -139.21,-69.61 -76.9,0 -139.22,31.176 -139.22,69.61 v 46.414"
         style="fill:#c9e4f3;fill-opacity:1;fill-rule:nonzero;stroke:none"
         id="path112" /><path
         d="m 1307.16,328.512 c 0,38.441 62.32,69.613 139.22,69.613 36.92,0 72.33,-7.34 98.43,-20.402 26.12,-13.035 40.78,-30.746 40.78,-49.211 v -46.414 c 0,-38.434 -62.34,-69.61 -139.21,-69.61 -76.9,0 -139.22,31.176 -139.22,69.61 z"
         style="fill:none;stroke:#293985;stroke-width:5.0003;stroke-linecap:butt;stroke-linejoin:miter;stroke-miterlimit:10;stroke-dasharray:none;stroke-opacity:1"
         id="path114" /><path
         d="m 1585.59,328.512 c 0,-38.446 -62.34,-69.617 -139.21,-69.617 -76.9,0 -139.22,31.171 -139.22,69.617 h 278.43"
         style="fill:#c9e4f3;fill-opacity:1;fill-rule:nonzero;stroke:none"
         id="path116" /><path
         d="m 1585.59,328.512 c 0,-38.446 -62.34,-69.617 -139.21,-69.617 -76.9,0 -139.22,31.171 -139.22,69.617"
         style="fill:none;stroke:#293985;stroke-width:5.0003;stroke-linecap:butt;stroke-linejoin:miter;stroke-miterlimit:10;stroke-dasharray:none;stroke-opacity:1"
         id="path118" /><path
         d="m 670.934,326.406 h 240.394 c 36.133,0 65.426,-29.285 65.426,-65.422 v -8.367 c 0,-36.133 -29.293,-65.422 -65.426,-65.422 H 670.934 c -36.129,0 -65.422,29.289 -65.422,65.422 v 8.367 c 0,36.137 29.293,65.422 65.422,65.422"
         style="fill:#fcfccf;fill-opacity:1;fill-rule:nonzero;stroke:none"
         id="path120" /><path
         d="m 670.934,326.406 h 240.394 c 36.133,0 65.426,-29.285 65.426,-65.422 v -8.367 c 0,-36.133 -29.293,-65.422 -65.426,-65.422 H 670.934 c -36.129,0 -65.422,29.289 -65.422,65.422 v 8.367 c 0,36.137 29.293,65.422 65.422,65.422 z"
         style="fill:none;stroke:#c49d19;stroke-width:5.0003;stroke-linecap:butt;stroke-linejoin:miter;stroke-miterlimit:4;stroke-dasharray:none;stroke-opacity:1"
         id="path122" /><g
         id="g124"
         transform="scale(10)"><text
           transform="matrix(1,0,0,-1,63.548,23.8129)"
           style="font-variant:normal;font-weight:normal;font-size:6.99976px;font-family:Arial;-inkscape-font-specification:ArialMT;writing-mode:lr-tb;fill:#100f0d;fill-opacity:1;fill-rule:nonzero;stroke:none"
           id="text128"><tspan
             x="0 1.9459332 3.8918664 7.7837329 10.114654 14.006519 15.952453 17.506399 21.398266 25.290133 27.236067"
             y="0"
             sodipodi:role="line"
             id="tspan126">Iteration 1</tspan></text></g><path
         d="m 1964.74,305.301 h 251.53 c 33.06,0 59.86,-26.793 59.86,-59.852 v -19.504 c 0,-33.054 -26.8,-59.851 -59.86,-59.851 h -251.53 c -33.06,0 -59.85,26.797 -59.85,59.851 v 19.504 c 0,33.059 26.79,59.852 59.85,59.852"
         style="fill:#fcfccf;fill-opacity:1;fill-rule:nonzero;stroke:none"
         id="path130" /><path
         d="m 1964.74,305.301 h 251.53 c 33.06,0 59.86,-26.793 59.86,-59.852 v -19.504 c 0,-33.054 -26.8,-59.851 -59.86,-59.851 h -251.53 c -33.06,0 -59.85,26.797 -59.85,59.851 v 19.504 c 0,33.059 26.79,59.852 59.85,59.852 z"
         style="fill:none;stroke:#c49d19;stroke-width:5.0003;stroke-linecap:butt;stroke-linejoin:miter;stroke-miterlimit:4;stroke-dasharray:none;stroke-opacity:1"
         id="path132" /><g
         id="g134"
         transform="scale(10)"><text
           transform="matrix(1,0,0,-1,193.486,21.7027)"
           style="font-variant:normal;font-weight:normal;font-size:6.99976px;font-family:Arial;-inkscape-font-specification:ArialMT;writing-mode:lr-tb;fill:#100f0d;fill-opacity:1;fill-rule:nonzero;stroke:none"
           id="text138"><tspan
             x="0 1.9459332 3.8918664 7.7837329 10.114654 14.006519 15.952453 17.506399 21.398266 25.290133 27.236067"
             y="0"
             sodipodi:role="line"
             id="tspan136">Iteration 2</tspan></text></g><path
         d="m 2276.13,231.719 h 286.12"
         style="fill:none;stroke:#100f0d;stroke-width:5.0003;stroke-linecap:butt;stroke-linejoin:miter;stroke-miterlimit:10;stroke-dasharray:none;stroke-opacity:1"
         id="path140" /><path
         d="m 2552.34,217.195 54.2,14.524 -54.2,14.531 z"
         style="fill:#100f0d;fill-opacity:1;fill-rule:nonzero;stroke:none"
         id="path142" /><path
         d="m 1585.59,235.691 h 272.25"
         style="fill:none;stroke:#100f0d;stroke-width:5.0003;stroke-linecap:butt;stroke-linejoin:miter;stroke-miterlimit:10;stroke-dasharray:none;stroke-opacity:1"
         id="path144" /><path
         d="m 1847.93,221.164 54.21,14.527 -54.21,14.524 z"
         style="fill:#100f0d;fill-opacity:1;fill-rule:nonzero;stroke:none"
         id="path146" /><path
         d="M 976.754,249.621 H 1262.86"
         style="fill:none;stroke:#100f0d;stroke-width:5.0003;stroke-linecap:butt;stroke-linejoin:miter;stroke-miterlimit:10;stroke-dasharray:none;stroke-opacity:1"
         id="path148" /><path
         d="m 1252.95,235.102 54.21,14.519 -54.21,14.527 z"
         style="fill:#100f0d;fill-opacity:1;fill-rule:nonzero;stroke:none"
         id="path150" /><path
         d="M 286.227,258.895 H 561.215"
         style="fill:none;stroke:#100f0d;stroke-width:5.0003;stroke-linecap:butt;stroke-linejoin:miter;stroke-miterlimit:10;stroke-dasharray:none;stroke-opacity:1"
         id="path152" /><path
         d="m 551.309,244.375 54.203,14.52 -54.203,14.531 z"
         style="fill:#100f0d;fill-opacity:1;fill-rule:nonzero;stroke:none"
         id="path154" /><g
         id="g156"
         transform="scale(10)"><text
           transform="matrix(1,0,0,-1,29.8043,0.90625)"
           style="font-variant:normal;font-weight:normal;font-size:6.99976px;font-family:Arial;-inkscape-font-specification:ArialMT;writing-mode:lr-tb;fill:#100f0d;fill-opacity:1;fill-rule:nonzero;stroke:none"
           id="text160"><tspan
             x="0 5.0538268 6.6077733 10.107654 13.607533 15.553467 17.884386 21.776253 25.668119 129.80145 134.85527 136.40923 139.9091 143.40898 145.35492 147.68584 151.5777 155.46957 69.224823 74.278656 75.832603 79.332481 82.832359 84.77829 89.832123 92.16304 93.716988 95.662918 199.16487 204.2187 205.77264 209.27252 212.7724 214.71834 219.77217 222.10309 223.65703 225.60297"
             y="0"
             sodipodi:role="line"
             id="tspan158">Disk readDisk readDisk writeDisk write</tspan></text></g></g></g></svg>
