<?xml version="1.0" encoding="UTF-8" standalone="no"?>
<svg
   xmlns:dc="http://purl.org/dc/elements/1.1/"
   xmlns:cc="http://creativecommons.org/ns#"
   xmlns:rdf="http://www.w3.org/1999/02/22-rdf-syntax-ns#"
   xmlns:svg="http://www.w3.org/2000/svg"
   xmlns="http://www.w3.org/2000/svg"
   xmlns:sodipodi="http://sodipodi.sourceforge.net/DTD/sodipodi-0.dtd"
   xmlns:inkscape="http://www.inkscape.org/namespaces/inkscape"
   version="1.1"
   id="svg2"
   xml:space="preserve"
   width="372"
   height="304"
   viewBox="0 0 372 304"
   sodipodi:docname="8-14.eps"><metadata
     id="metadata8"><rdf:RDF><cc:Work
         rdf:about=""><dc:format>image/svg+xml</dc:format><dc:type
           rdf:resource="http://purl.org/dc/dcmitype/StillImage" /></cc:Work></rdf:RDF></metadata><defs
     id="defs6" /><sodipodi:namedview
     pagecolor="#ffffff"
     bordercolor="#666666"
     borderopacity="1"
     objecttolerance="10"
     gridtolerance="10"
     guidetolerance="10"
     inkscape:pageopacity="0"
     inkscape:pageshadow="2"
     inkscape:window-width="640"
     inkscape:window-height="480"
     id="namedview4" /><g
     id="g10"
     inkscape:groupmode="layer"
     inkscape:label="ink_ext_XXXXXX"
     transform="matrix(1.3333333,0,0,-1.3333333,0,304)"><g
       id="g12"
       transform="scale(0.1)"><path
         d="M 87.5859,2185.91 H 733.605 c 44.594,0 80.747,-33.48 80.747,-74.79 v -349.01 c 0,-41.31 -36.153,-74.79 -80.747,-74.79 H 87.5859 c -44.5976,0 -80.74996,33.48 -80.74996,74.79 v 349.01 c 0,41.31 36.15236,74.79 80.74996,74.79"
         style="fill:#c9e4f3;fill-opacity:1;fill-rule:nonzero;stroke:none"
         id="path14" /><path
         d="M 87.5859,2185.91 H 733.605 c 44.594,0 80.747,-33.48 80.747,-74.79 v -349.01 c 0,-41.31 -36.153,-74.79 -80.747,-74.79 H 87.5859 c -44.5976,0 -80.74996,33.48 -80.74996,74.79 v 349.01 c 0,41.31 36.15236,74.79 80.74996,74.79 z"
         style="fill:none;stroke:#293985;stroke-width:4.9691;stroke-linecap:butt;stroke-linejoin:miter;stroke-miterlimit:10;stroke-dasharray:none;stroke-opacity:1"
         id="path16" /><g
         id="g18"
         transform="scale(10)"><text
           transform="matrix(1,0,0,-1,4.10625,191.794)"
           style="font-variant:normal;font-weight:normal;font-size:6.99976px;font-family:Arial;-inkscape-font-specification:ArialMT;writing-mode:lr-tb;fill:#100f0d;fill-opacity:1;fill-rule:nonzero;stroke:none"
           id="text22"><tspan
             x="0 4.2768536 5.8308001 8.1617203 11.6616 13.607533 15.553467 19.053347 22.945213 26.445093 30.33696 34.228825 38.120693 40.066628 42.012558 43.566505 45.897427 49.397305 51.343239 53.289173 55.235107 56.789051 58.342999 62.234867 64.180801 66.126732 68.072662 70.0186 71.964531"
             y="0"
             sodipodi:role="line"
             id="tspan20">First second first file . . .</tspan></text></g><path
         d="m 1634.77,1126.41 h 303.88"
         style="fill:none;stroke:#100f0d;stroke-width:4.9691;stroke-linecap:butt;stroke-linejoin:miter;stroke-miterlimit:10;stroke-dasharray:none;stroke-opacity:1"
         id="path24" /><path
         d="m 1928.8,1111.98 53.86,14.43 -53.86,14.44 z"
         style="fill:#100f0d;fill-opacity:1;fill-rule:nonzero;stroke:none"
         id="path26" /><path
         d="M 812.734,1126.41 H 1125.42"
         style="fill:none;stroke:#100f0d;stroke-width:4.9691;stroke-linecap:butt;stroke-linejoin:miter;stroke-miterlimit:10;stroke-dasharray:none;stroke-opacity:1"
         id="path28" /><path
         d="M 87.5859,1375.71 H 733.605 c 44.594,0 80.747,-33.49 80.747,-74.78 V 951.898 c 0,-41.3 -36.153,-74.781 -80.747,-74.781 H 87.5859 c -44.5976,0 -80.74996,33.481 -80.74996,74.781 v 349.032 c 0,41.29 36.15236,74.78 80.74996,74.78"
         style="fill:#f4f6f7;fill-opacity:1;fill-rule:nonzero;stroke:none"
         id="path30" /><path
         d="M 87.5859,1375.71 H 733.605 c 44.594,0 80.747,-33.49 80.747,-74.78 V 951.898 c 0,-41.3 -36.153,-74.781 -80.747,-74.781 H 87.5859 c -44.5976,0 -80.74996,33.481 -80.74996,74.781 v 349.032 c 0,41.29 36.15236,74.78 80.74996,74.78 z"
         style="fill:none;stroke:#5e6061;stroke-width:4.9691;stroke-linecap:butt;stroke-linejoin:miter;stroke-miterlimit:10;stroke-dasharray:none;stroke-opacity:1"
         id="path32" /><g
         id="g34"
         transform="scale(10)"><text
           transform="matrix(1,0,0,-1,17.9078,110.774)"
           style="font-variant:normal;font-weight:normal;font-size:6.99976px;font-family:Arial;-inkscape-font-specification:ArialMT;writing-mode:lr-tb;fill:#100f0d;fill-opacity:1;fill-rule:nonzero;stroke:none"
           id="text38"><tspan
             x="0 4.6688399 8.5607061 12.060587 15.952453 19.84432 23.736187 25.682119 27.628054 29.181999 30.735947 34.627811 36.573746 38.51968 40.465614 42.411545 44.357479"
             y="0"
             sodipodi:role="line"
             id="tspan36">Second file . . .</tspan></text></g><path
         d="m 1585.89,285.066 h 352.76"
         style="fill:none;stroke:#100f0d;stroke-width:4.9691;stroke-linecap:butt;stroke-linejoin:miter;stroke-miterlimit:10;stroke-dasharray:none;stroke-opacity:1"
         id="path40" /><path
         d="m 1928.8,270.629 53.86,14.437 -53.86,14.434 z"
         style="fill:#100f0d;fill-opacity:1;fill-rule:nonzero;stroke:none"
         id="path42" /><path
         d="M 806.504,285.066 H 1135.82"
         style="fill:none;stroke:#100f0d;stroke-width:4.9691;stroke-linecap:butt;stroke-linejoin:miter;stroke-miterlimit:10;stroke-dasharray:none;stroke-opacity:1"
         id="path44" /><path
         d="M 97.6758,565.508 H 723.508 c 50.172,0 90.844,-37.672 90.844,-84.141 V 88.7266 C 814.352,42.2578 773.68,4.59766 723.508,4.59766 H 97.6758 C 47.5078,4.59766 6.83594,42.2578 6.83594,88.7266 V 481.367 c 0,46.469 40.67186,84.141 90.83986,84.141"
         style="fill:#e0f2c3;fill-opacity:1;fill-rule:nonzero;stroke:none"
         id="path46" /><path
         d="M 97.6758,565.508 H 723.508 c 50.172,0 90.844,-37.672 90.844,-84.141 V 88.7266 C 814.352,42.2578 773.68,4.59766 723.508,4.59766 H 97.6758 C 47.5078,4.59766 6.83594,42.2578 6.83594,88.7266 V 481.367 c 0,46.469 40.67186,84.141 90.83986,84.141 z"
         style="fill:none;stroke:#298a3c;stroke-width:4.9691;stroke-linecap:butt;stroke-linejoin:miter;stroke-miterlimit:4;stroke-dasharray:none;stroke-opacity:1"
         id="path48" /><g
         id="g50"
         transform="scale(10)"><text
           transform="matrix(1,0,0,-1,15.1941,26.6375)"
           style="font-variant:normal;font-weight:normal;font-size:6.99976px;font-family:Arial;-inkscape-font-specification:ArialMT;writing-mode:lr-tb;fill:#100f0d;fill-opacity:1;fill-rule:nonzero;stroke:none"
           id="text54"><tspan
             x="0 4.2768536 8.1687202 9.7226667 12.053587 15.945454 17.891386 19.83732 21.391266 23.722187 27.222067 29.167999 31.113934 33.059868 34.613811 36.167759 40.059628 42.005558 43.951492 45.897427 47.843361 49.789291"
             y="0"
             sodipodi:role="line"
             id="tspan52">Third first file . . .</tspan></text></g><path
         d="m 1592.21,1936.62 h 346.44"
         style="fill:none;stroke:#100f0d;stroke-width:4.9691;stroke-linecap:butt;stroke-linejoin:miter;stroke-miterlimit:10;stroke-dasharray:none;stroke-opacity:1"
         id="path56" /><path
         d="m 1928.8,1922.18 53.86,14.44 -53.86,14.43 z"
         style="fill:#100f0d;fill-opacity:1;fill-rule:nonzero;stroke:none"
         id="path58" /><path
         d="M 812.734,1936.62 H 1156.1"
         style="fill:none;stroke:#100f0d;stroke-width:4.9691;stroke-linecap:butt;stroke-linejoin:miter;stroke-miterlimit:10;stroke-dasharray:none;stroke-opacity:1"
         id="path60" /><g
         id="g62"
         transform="scale(10)"><text
           transform="matrix(1,0,0,-1,119.086,208.075)"
           style="font-variant:normal;font-weight:normal;font-size:6.99976px;font-family:Arial;-inkscape-font-specification:ArialMT;writing-mode:lr-tb;fill:#100f0d;fill-opacity:1;fill-rule:nonzero;stroke:none"
           id="text66"><tspan
             x="0 5.8308001 9.7226667 13.614533 15.560467 19.060347 21.006279 24.898146 28.790012 32.681881"
             y="0"
             sodipodi:role="line"
             id="tspan64">Map stage:</tspan></text><text
           transform="matrix(1,0,0,-1,114.80202,198.475)"
           style="font-variant:normal;font-weight:normal;font-size:7.99981px;font-family:'Courier New';-inkscape-font-specification:Courier;writing-mode:lr-tb;fill:#100f0d;fill-opacity:1;fill-rule:nonzero;stroke:none"
           id="text76"><tspan
             x="0 4.7998862 9.5997725 14.399658 19.199545 23.99943 28.799316 33.599201 38.39909"
             y="0"
             sodipodi:role="line"
             id="tspan68">(first,1)</tspan><tspan
             x="0 4.7998862 9.5997725 14.399658 19.199545 23.99943 28.799316 33.599201 38.39909"
             y="9.6003904"
             sodipodi:role="line"
             id="tspan70">(first,1)</tspan><tspan
             x="-2.4000001 2.3998859 7.1997719 11.999658 16.799543 21.59943 26.399317 31.199202 35.999088 40.798973"
             y="19.200001"
             sodipodi:role="line"
             id="tspan72">(second,1)</tspan><tspan
             x="2.4000001 7.1998858 11.999772 16.799658 21.599545 26.399429 31.199316 35.999203"
             y="28.799999"
             sodipodi:role="line"
             id="tspan74">(file,1)</tspan></text><text
           transform="matrix(1,0,0,-1,119.086,118.8191)"
           style="font-variant:normal;font-weight:normal;font-size:6.99976px;font-family:Arial;-inkscape-font-specification:ArialMT;writing-mode:lr-tb;fill:#100f0d;fill-opacity:1;fill-rule:nonzero;stroke:none"
           id="text80"><tspan
             x="0 5.8308001 9.7226667 13.614533 15.560467 19.060347 21.006279 24.898146 28.790012 32.681881"
             y="0"
             sodipodi:role="line"
             id="tspan78">Map stage:</tspan></text><text
           transform="matrix(1,0,0,-1,112.40202,109.21793)"
           style="font-variant:normal;font-weight:normal;font-size:7.99981px;font-family:'Courier New';-inkscape-font-specification:Courier;writing-mode:lr-tb;fill:#100f0d;fill-opacity:1;fill-rule:nonzero;stroke:none"
           id="text86"><tspan
             x="0 4.7998862 9.5997725 14.399658 19.199545 23.99943 28.799316 33.599201 38.39909 43.198975"
             y="0"
             sodipodi:role="line"
             id="tspan82">(second,1)</tspan><tspan
             x="4.8000002 9.5998859 14.399772 19.199657 23.999544 28.799431 33.599316 38.3992"
             y="9.5988302"
             sodipodi:role="line"
             id="tspan84">(file,1)</tspan></text><text
           transform="matrix(1,0,0,-1,119.08679,43.407)"
           style="font-variant:normal;font-weight:normal;font-size:6.99976px;font-family:Arial;-inkscape-font-specification:ArialMT;writing-mode:lr-tb;fill:#100f0d;fill-opacity:1;fill-rule:nonzero;stroke:none"
           id="text90"><tspan
             x="0 5.8308001 9.7226667 13.614533 15.560467 19.060347 21.006279 24.898146 28.790012 32.681881"
             y="0"
             sodipodi:role="line"
             id="tspan88">Map stage:</tspan></text><text
           transform="matrix(1,0,0,-1,114.80281,33.807)"
           style="font-variant:normal;font-weight:normal;font-size:7.99981px;font-family:'Courier New';-inkscape-font-specification:Courier;writing-mode:lr-tb;fill:#100f0d;fill-opacity:1;fill-rule:nonzero;stroke:none"
           id="text98"><tspan
             x="0 4.7998862 9.5997725 14.399658 19.199545 23.99943 28.799316 33.599201 38.39909"
             y="0"
             sodipodi:role="line"
             id="tspan92">(third,1)</tspan><tspan
             x="0 4.7998862 9.5997725 14.399658 19.199545 23.99943 28.799316 33.599201 38.39909"
             y="9.6003904"
             sodipodi:role="line"
             id="tspan94">(first,1)</tspan><tspan
             x="2.4000001 7.1998858 11.999772 16.799658 21.599545 26.399429 31.199316 35.999203"
             y="19.20039"
             sodipodi:role="line"
             id="tspan96">(file,1)</tspan></text><text
           transform="matrix(1,0,0,-1,21.98801,222.39761)"
           style="font-variant:normal;font-weight:normal;font-size:6.99976px;font-family:Arial;-inkscape-font-specification:ArialMT;writing-mode:lr-tb;fill:#100f0d;fill-opacity:1;fill-rule:nonzero;stroke:none"
           id="text106"><tspan
             x="0 5.0538268 8.945693 10.891626 14.783493 16.729427 20.621292 24.513159 28.405025 32.296894 34.242825"
             y="0"
             sodipodi:role="line"
             id="tspan100">Data node 1</tspan><tspan
             x="0 5.0538268 8.945693 10.891626 14.783493 16.729427 20.621292 24.513159 28.405025 32.296894 34.242825"
             y="81.020302"
             sodipodi:role="line"
             id="tspan102">Data node 2</tspan><tspan
             x="0 5.0538268 8.945693 10.891626 14.783493 16.729427 20.621292 24.513159 28.405025 32.296894 34.242825"
             y="162.0387"
             sodipodi:role="line"
             id="tspan104">Data node 3</tspan></text></g><path
         d="m 2094.14,2131.66 h 635.68 c 30.98,0 56.1,-26.43 56.1,-59.05 V 1797 c 0,-32.62 -25.12,-59.06 -56.1,-59.06 h -635.68 c -30.98,0 -56.09,26.44 -56.09,59.06 v 275.61 c 0,32.62 25.11,59.05 56.09,59.05"
         style="fill:#c9e4f3;fill-opacity:1;fill-rule:nonzero;stroke:none"
         id="path108" /><path
         d="m 2094.14,2131.66 h 635.68 c 30.98,0 56.1,-26.43 56.1,-59.05 V 1797 c 0,-32.62 -25.12,-59.06 -56.1,-59.06 h -635.68 c -30.98,0 -56.09,26.44 -56.09,59.06 v 275.61 c 0,32.62 25.11,59.05 56.09,59.05 z"
         style="fill:none;stroke:#293985;stroke-width:4.9691;stroke-linecap:butt;stroke-linejoin:miter;stroke-miterlimit:10;stroke-dasharray:none;stroke-opacity:1"
         id="path110" /><g
         id="g112"
         transform="scale(10)"><text
           transform="matrix(1,0,0,-1,228.163,205.877)"
           style="font-variant:normal;font-weight:normal;font-size:6.99976px;font-family:Arial;-inkscape-font-specification:ArialMT;writing-mode:lr-tb;fill:#100f0d;fill-opacity:1;fill-rule:nonzero;stroke:none"
           id="text116"><tspan
             x="0 5.0538268 8.945693 12.83756 16.729427 20.229307 24.121174"
             y="0"
             sodipodi:role="line"
             id="tspan114">Reduce:</tspan></text><text
           transform="matrix(1,0,0,-1,219.59894,196.277)"
           style="font-variant:normal;font-weight:normal;font-size:7.99981px;font-family:'Courier New';-inkscape-font-specification:Courier;writing-mode:lr-tb;fill:#100f0d;fill-opacity:1;fill-rule:nonzero;stroke:none"
           id="text124"><tspan
             x="0 4.7998862 9.5997725 14.399658 19.199545 23.99943 28.799316 33.599201 38.39909"
             y="0"
             sodipodi:role="line"
             id="tspan118">(first,2)</tspan><tspan
             x="-2.4000001 2.3998859 7.1997719 11.999658 16.799543 21.59943 26.399317 31.199202 35.999088 40.798973"
             y="9.6000004"
             sodipodi:role="line"
             id="tspan120">(second,1)</tspan><tspan
             x="2.4000001 7.1998858 11.999772 16.799658 21.599545 26.399429 31.199316 35.999203"
             y="19.19961"
             sodipodi:role="line"
             id="tspan122">(file,1)</tspan></text></g><path
         d="m 2094.14,1322.64 h 635.68 c 30.98,0 56.1,-26.43 56.1,-59.04 V 987.988 c 0,-32.621 -25.12,-59.07 -56.1,-59.07 h -635.68 c -30.98,0 -56.09,26.449 -56.09,59.07 V 1263.6 c 0,32.61 25.11,59.04 56.09,59.04"
         style="fill:#f4f6f7;fill-opacity:1;fill-rule:nonzero;stroke:none"
         id="path126" /><path
         d="m 2094.14,1322.64 h 635.68 c 30.98,0 56.1,-26.43 56.1,-59.04 V 987.988 c 0,-32.621 -25.12,-59.07 -56.1,-59.07 h -635.68 c -30.98,0 -56.09,26.449 -56.09,59.07 V 1263.6 c 0,32.61 25.11,59.04 56.09,59.04 z"
         style="fill:none;stroke:#5e6061;stroke-width:4.9691;stroke-linecap:butt;stroke-linejoin:miter;stroke-miterlimit:10;stroke-dasharray:none;stroke-opacity:1"
         id="path128" /><g
         id="g130"
         transform="scale(10)"><text
           transform="matrix(1,0,0,-1,228.163,120.176)"
           style="font-variant:normal;font-weight:normal;font-size:6.99976px;font-family:Arial;-inkscape-font-specification:ArialMT;writing-mode:lr-tb;fill:#100f0d;fill-opacity:1;fill-rule:nonzero;stroke:none"
           id="text134"><tspan
             x="0 5.0538268 8.945693 12.83756 16.729427 20.229307 24.121174"
             y="0"
             sodipodi:role="line"
             id="tspan132">Reduce:</tspan></text><text
           transform="matrix(1,0,0,-1,217.1989,110.57483)"
           style="font-variant:normal;font-weight:normal;font-size:7.99981px;font-family:'Courier New';-inkscape-font-specification:Courier;writing-mode:lr-tb;fill:#100f0d;fill-opacity:1;fill-rule:nonzero;stroke:none"
           id="text140"><tspan
             x="0 4.7998862 9.5997725 14.399658 19.199545 23.99943 28.799316 33.599201 38.39909 43.198975"
             y="0"
             sodipodi:role="line"
             id="tspan136">(second,1)</tspan><tspan
             x="4.8000002 9.5998859 14.399772 19.199657 23.999544 28.799431 33.599316 38.3992"
             y="9.5988302"
             sodipodi:role="line"
             id="tspan138">(file,1)</tspan></text></g><path
         d="m 2094.14,485.297 h 635.68 c 30.98,0 56.1,-26.442 56.1,-59.051 V 150.625 c 0,-32.617 -25.12,-59.0469 -56.1,-59.0469 h -635.68 c -30.98,0 -56.09,26.4299 -56.09,59.0469 v 275.621 c 0,32.609 25.11,59.051 56.09,59.051"
         style="fill:#e0f2c3;fill-opacity:1;fill-rule:nonzero;stroke:none"
         id="path142" /><path
         d="m 2094.14,485.297 h 635.68 c 30.98,0 56.1,-26.442 56.1,-59.051 V 150.625 c 0,-32.617 -25.12,-59.0469 -56.1,-59.0469 h -635.68 c -30.98,0 -56.09,26.4299 -56.09,59.0469 v 275.621 c 0,32.609 25.11,59.051 56.09,59.051 z"
         style="fill:none;stroke:#298a3c;stroke-width:4.9691;stroke-linecap:butt;stroke-linejoin:miter;stroke-miterlimit:4;stroke-dasharray:none;stroke-opacity:1"
         id="path144" /><g
         id="g146"
         transform="scale(10)"><text
           transform="matrix(1,0,0,-1,228.162,41.2398)"
           style="font-variant:normal;font-weight:normal;font-size:6.99976px;font-family:Arial;-inkscape-font-specification:ArialMT;writing-mode:lr-tb;fill:#100f0d;fill-opacity:1;fill-rule:nonzero;stroke:none"
           id="text150"><tspan
             x="0 5.0538268 8.945693 12.83756 16.729427 20.229307 24.121174"
             y="0"
             sodipodi:role="line"
             id="tspan148">Reduce:</tspan></text><text
           transform="matrix(1,0,0,-1,219.59911,31.64058)"
           style="font-variant:normal;font-weight:normal;font-size:7.99981px;font-family:'Courier New';-inkscape-font-specification:Courier;writing-mode:lr-tb;fill:#100f0d;fill-opacity:1;fill-rule:nonzero;stroke:none"
           id="text158"><tspan
             x="0 4.7998862 9.5997725 14.399658 19.199545 23.99943 28.799316 33.599201 38.39909"
             y="0"
             sodipodi:role="line"
             id="tspan152">(third,1)</tspan><tspan
             x="0 4.7998862 9.5997725 14.399658 19.199545 23.99943 28.799316 33.599201 38.39909"
             y="9.6011696"
             sodipodi:role="line"
             id="tspan154">(first,1)</tspan><tspan
             x="2.4000001 7.1998858 11.999772 16.799658 21.599545 26.399429 31.199316 35.999203"
             y="19.200001"
             sodipodi:role="line"
             id="tspan156">(file,1)</tspan></text></g></g></g></svg>
