<?xml version="1.0" encoding="UTF-8" standalone="no"?>
<!-- Created with Inkscape (http://www.inkscape.org/) -->

<svg
   version="1.1"
   id="svg2"
   xml:space="preserve"
   width="521.33331"
   height="333.33334"
   viewBox="0 0 521.33331 333.33334"
   sodipodi:docname="8-15.eps"
   xmlns:inkscape="http://www.inkscape.org/namespaces/inkscape"
   xmlns:sodipodi="http://sodipodi.sourceforge.net/DTD/sodipodi-0.dtd"
   xmlns="http://www.w3.org/2000/svg"
   xmlns:svg="http://www.w3.org/2000/svg"><defs
     id="defs6" /><sodipodi:namedview
     id="namedview4"
     pagecolor="#ffffff"
     bordercolor="#666666"
     borderopacity="1.0"
     inkscape:pageshadow="2"
     inkscape:pageopacity="0.0"
     inkscape:pagecheckerboard="0" /><g
     id="g8"
     inkscape:groupmode="layer"
     inkscape:label="ink_ext_XXXXXX"
     transform="matrix(1.3333333,0,0,-1.3333333,0,333.33333)"><g
       id="g10"
       transform="scale(0.1)"><path
         d="M 663.375,2164.71 H 867.977"
         style="fill:none;stroke:#100f0d;stroke-width:5.0003;stroke-linecap:butt;stroke-linejoin:miter;stroke-miterlimit:10;stroke-dasharray:none;stroke-opacity:1"
         id="path12" /><path
         d="M 85.0703,2409.68 H 725.102 c 44.183,0 80,-32.89 80,-73.5 V 1993.2 c 0,-40.57 -35.817,-73.49 -80,-73.49 H 85.0703 c -44.1836,0 -80.00389,32.92 -80.00389,73.49 v 342.98 c 0,40.61 35.82029,73.5 80.00389,73.5"
         style="fill:#c9e4f3;fill-opacity:1;fill-rule:nonzero;stroke:none"
         id="path14" /><path
         d="M 85.0703,2409.68 H 725.102 c 44.183,0 80,-32.89 80,-73.5 V 1993.2 c 0,-40.57 -35.817,-73.49 -80,-73.49 H 85.0703 c -44.1836,0 -80.00389,32.92 -80.00389,73.49 v 342.98 c 0,40.61 35.82029,73.5 80.00389,73.5 z"
         style="fill:none;stroke:#293985;stroke-width:5.4312;stroke-linecap:butt;stroke-linejoin:miter;stroke-miterlimit:10;stroke-dasharray:none;stroke-opacity:1"
         id="path16" /><g
         id="g18"
         transform="scale(10)"><text
           transform="matrix(1,0,0,-1,3.55547,214.136)"
           style="font-variant:normal;font-weight:normal;font-size:6.99976px;font-family:Arial;-inkscape-font-specification:ArialMT;writing-mode:lr-tb;fill:#100f0d;fill-opacity:1;fill-rule:nonzero;stroke:none"
           id="text22"><tspan
             x="0 4.2768536 5.8308001 8.1617203 11.6616 13.607533 15.553467 19.053347 22.945213 26.445093 30.33696 34.228825 38.120693 40.066628 42.012558 43.566505 45.897427 49.397305 51.343239 53.289173 55.235107 56.789051 58.342999 62.234867 64.180801 66.126732 68.072662 70.0186 71.964531"
             y="0"
             sodipodi:role="line"
             id="tspan20">First second first file . . .</tspan></text></g><path
         d="M 1312.03,1368.5 H 1567.1"
         style="fill:none;stroke:#100f0d;stroke-width:4.5893;stroke-linecap:butt;stroke-linejoin:miter;stroke-miterlimit:10;stroke-dasharray:none;stroke-opacity:1"
         id="path24" /><path
         d="m 1558.01,1355.18 49.74,13.32 -49.74,13.34 z"
         style="fill:#100f0d;fill-opacity:1;fill-rule:nonzero;stroke:none"
         id="path26" /><path
         d="M 663.375,1368.5 H 868.441"
         style="fill:none;stroke:#100f0d;stroke-width:5.0003;stroke-linecap:butt;stroke-linejoin:miter;stroke-miterlimit:10;stroke-dasharray:none;stroke-opacity:1"
         id="path28" /><path
         d="M 85.0703,1613.48 H 725.102 c 44.183,0 80,-32.9 80,-73.48 v -342.98 c 0,-40.59 -35.817,-73.49 -80,-73.49 H 85.0703 c -44.1836,0 -80.00389,32.9 -80.00389,73.49 V 1540 c 0,40.58 35.82029,73.48 80.00389,73.48"
         style="fill:#f4f6f7;fill-opacity:1;fill-rule:nonzero;stroke:none"
         id="path30" /><path
         d="M 85.0703,1613.48 H 725.102 c 44.183,0 80,-32.9 80,-73.48 v -342.98 c 0,-40.59 -35.817,-73.49 -80,-73.49 H 85.0703 c -44.1836,0 -80.00389,32.9 -80.00389,73.49 V 1540 c 0,40.58 35.82029,73.48 80.00389,73.48 z"
         style="fill:none;stroke:#5e6061;stroke-width:5.4312;stroke-linecap:butt;stroke-linejoin:miter;stroke-miterlimit:10;stroke-dasharray:none;stroke-opacity:1"
         id="path32" /><g
         id="g34"
         transform="scale(10)"><text
           transform="matrix(1,0,0,-1,17.3566,134.984)"
           style="font-variant:normal;font-weight:normal;font-size:6.99976px;font-family:Arial;-inkscape-font-specification:ArialMT;writing-mode:lr-tb;fill:#2f2d2e;fill-opacity:1;fill-rule:nonzero;stroke:none"
           id="text38"><tspan
             x="0 4.6688399 8.5607061 12.060587 15.952453 19.84432 23.736187 25.682119 27.628054 29.181999 30.735947 34.627811 36.573746 38.51968 40.465614 42.411545 44.357479"
             y="0"
             sodipodi:role="line"
             id="tspan36">Second file . . .</tspan></text></g><path
         d="m 1317.1,541.699 h 250"
         style="fill:none;stroke:#100f0d;stroke-width:4.5893;stroke-linecap:butt;stroke-linejoin:miter;stroke-miterlimit:10;stroke-dasharray:none;stroke-opacity:1"
         id="path40" /><path
         d="m 1558.01,528.363 49.74,13.336 -49.74,13.328 z"
         style="fill:#100f0d;fill-opacity:1;fill-rule:nonzero;stroke:none"
         id="path42" /><path
         d="M 657.715,541.699 H 890.379"
         style="fill:none;stroke:#100f0d;stroke-width:5.0003;stroke-linecap:butt;stroke-linejoin:miter;stroke-miterlimit:10;stroke-dasharray:none;stroke-opacity:1"
         id="path44" /><path
         d="M 95.0742,817.305 H 715.09 c 49.711,0 90.012,-37.02 90.012,-82.7 V 348.773 c 0,-45.66 -40.301,-82.679 -90.012,-82.679 H 95.0742 c -49.7109,0 -90.00779,37.019 -90.00779,82.679 v 385.832 c 0,45.68 40.29689,82.7 90.00779,82.7"
         style="fill:#e0f2c3;fill-opacity:1;fill-rule:nonzero;stroke:none"
         id="path46" /><path
         d="M 95.0742,817.305 H 715.09 c 49.711,0 90.012,-37.02 90.012,-82.7 V 348.773 c 0,-45.66 -40.301,-82.679 -90.012,-82.679 H 95.0742 c -49.7109,0 -90.00779,37.019 -90.00779,82.679 v 385.832 c 0,45.68 40.29689,82.7 90.00779,82.7 z"
         style="fill:none;stroke:#298a3c;stroke-width:5.4312;stroke-linecap:butt;stroke-linejoin:miter;stroke-miterlimit:4;stroke-dasharray:none;stroke-opacity:1"
         id="path48" /><g
         id="g50"
         transform="scale(10)"><text
           transform="matrix(1,0,0,-1,14.643,52.3035)"
           style="font-variant:normal;font-weight:normal;font-size:6.99976px;font-family:Arial;-inkscape-font-specification:ArialMT;writing-mode:lr-tb;fill:#100f0d;fill-opacity:1;fill-rule:nonzero;stroke:none"
           id="text54"><tspan
             x="0 4.2768536 8.1687202 9.7226667 12.053587 15.945454 17.891386 19.83732 21.391266 23.722187 27.222067 29.167999 31.113934 33.059868 34.613811 36.167759 40.059628 42.005558 43.951492 45.897427 47.843361 49.789291"
             y="0"
             sodipodi:role="line"
             id="tspan52">Third first file . . .</tspan></text></g><path
         d="M 1303.26,2164.71 H 1567.1"
         style="fill:none;stroke:#100f0d;stroke-width:4.5893;stroke-linecap:butt;stroke-linejoin:miter;stroke-miterlimit:10;stroke-dasharray:none;stroke-opacity:1"
         id="path56" /><path
         d="m 1558.01,2151.38 49.74,13.33 -49.74,13.33 z"
         style="fill:#100f0d;fill-opacity:1;fill-rule:nonzero;stroke:none"
         id="path58" /><g
         id="g60"
         transform="scale(10)"><text
           transform="matrix(1,0,0,-1,92.925,228.807)"
           style="font-variant:normal;font-weight:normal;font-size:6.99976px;font-family:Arial;-inkscape-font-specification:ArialMT;writing-mode:lr-tb;fill:#100f0d;fill-opacity:1;fill-rule:nonzero;stroke:none"
           id="text64"><tspan
             x="0 5.8308001 9.7226667 13.614533 15.560467 19.060347 21.006279 24.898146 28.790012 32.681881"
             y="0"
             sodipodi:role="line"
             id="tspan62">Map stage:</tspan></text><text
           transform="matrix(1,0,0,-1,91.34062,220.407)"
           style="font-variant:normal;font-weight:normal;font-size:6.99976px;font-family:'Courier New';-inkscape-font-specification:Courier;writing-mode:lr-tb;fill:#100f0d;fill-opacity:1;fill-rule:nonzero;stroke:none"
           id="text74"><tspan
             x="0 4.1998558 8.3997116 12.599568 16.799423 20.999281 25.199137 29.398993 33.598846"
             y="0"
             sodipodi:role="line"
             id="tspan66">(first,1)</tspan><tspan
             x="0 4.1998558 8.3997116 12.599568 16.799423 20.999281 25.199137 29.398993 33.598846"
             y="8.3999996"
             sodipodi:role="line"
             id="tspan68">(first,1)</tspan><tspan
             x="-2.0996101 2.100246 6.3001022 10.499958 14.699814 18.89967 23.099525 27.299381 31.499237 35.699093"
             y="16.80039"
             sodipodi:role="line"
             id="tspan70">(second,1)</tspan><tspan
             x="2.0999999 6.2998562 10.499712 14.699568 18.899424 23.099279 27.299135 31.498993"
             y="25.200001"
             sodipodi:role="line"
             id="tspan72">(file,1)</tspan></text><text
           transform="matrix(1,0,0,-1,92.925386,140.2246)"
           style="font-variant:normal;font-weight:normal;font-size:6.99976px;font-family:Arial;-inkscape-font-specification:ArialMT;writing-mode:lr-tb;fill:#100f0d;fill-opacity:1;fill-rule:nonzero;stroke:none"
           id="text78"><tspan
             x="0 5.8308001 9.7226667 13.614533 15.560467 19.060347 21.006279 24.898146 28.790012 32.681881"
             y="0"
             sodipodi:role="line"
             id="tspan76">Map stage:</tspan></text><text
           transform="matrix(1,0,0,-1,89.241406,131.8246)"
           style="font-variant:normal;font-weight:normal;font-size:6.99976px;font-family:'Courier New';-inkscape-font-specification:Courier;writing-mode:lr-tb;fill:#100f0d;fill-opacity:1;fill-rule:nonzero;stroke:none"
           id="text84"><tspan
             x="0 4.1998558 8.3997116 12.599568 16.799423 20.999281 25.199137 29.398993 33.598846 37.798702"
             y="0"
             sodipodi:role="line"
             id="tspan80">(second,1)</tspan><tspan
             x="4.1999998 8.3998556 12.599712 16.799568 20.999424 25.19928 29.399136 33.598991"
             y="8.3999996"
             sodipodi:role="line"
             id="tspan82">(file,1)</tspan></text><text
           transform="matrix(1,0,0,-1,92.926172,62.7375)"
           style="font-variant:normal;font-weight:normal;font-size:6.99976px;font-family:Arial;-inkscape-font-specification:ArialMT;writing-mode:lr-tb;fill:#100f0d;fill-opacity:1;fill-rule:nonzero;stroke:none"
           id="text88"><tspan
             x="0 5.8308001 9.7226667 13.614533 15.560467 19.060347 21.006279 24.898146 28.790012 32.681881"
             y="0"
             sodipodi:role="line"
             id="tspan86">Map stage:</tspan></text><text
           transform="matrix(1,0,0,-1,91.341402,54.33633)"
           style="font-variant:normal;font-weight:normal;font-size:6.99976px;font-family:'Courier New';-inkscape-font-specification:Courier;writing-mode:lr-tb;fill:#100f0d;fill-opacity:1;fill-rule:nonzero;stroke:none"
           id="text96"><tspan
             x="0 4.1998558 8.3997116 12.599568 16.799423 20.999281 25.199137 29.398993 33.598846"
             y="0"
             sodipodi:role="line"
             id="tspan90">(third,1)</tspan><tspan
             x="0 4.1998558 8.3997116 12.599568 16.799423 20.999281 25.199137 29.398993 33.598846"
             y="8.3988304"
             sodipodi:role="line"
             id="tspan92">(first,1)</tspan><tspan
             x="2.10039 6.3002458 10.500102 14.699958 18.899815 23.09967 27.299526 31.499382"
             y="16.799999"
             sodipodi:role="line"
             id="tspan94">(file,1)</tspan></text><text
           transform="matrix(1,0,0,-1,21.438292,244.75833)"
           style="font-variant:normal;font-weight:normal;font-size:6.99976px;font-family:Arial;-inkscape-font-specification:ArialMT;writing-mode:lr-tb;fill:#100f0d;fill-opacity:1;fill-rule:nonzero;stroke:none"
           id="text104"><tspan
             x="0 5.0538268 8.945693 10.891626 14.783493 16.729427 20.621292 24.513159 28.405025 32.296894 34.242825"
             y="0"
             sodipodi:role="line"
             id="tspan98">Data node 1</tspan><tspan
             x="0 5.0538268 8.945693 10.891626 14.783493 16.729427 20.621292 24.513159 28.405025 32.296894 34.242825"
             y="79.617996"
             sodipodi:role="line"
             id="tspan100">Data node 2</tspan><tspan
             x="0 5.0538268 8.945693 10.891626 14.783493 16.729427 20.621292 24.513159 28.405025 32.296894 34.242825"
             y="159.23711"
             sodipodi:role="line"
             id="tspan102">Data node 3</tspan></text></g><path
         d="m 2968.7,2164.71 h 35.57"
         style="fill:none;stroke:#100f0d;stroke-width:5.1562;stroke-linecap:butt;stroke-linejoin:miter;stroke-miterlimit:10;stroke-dasharray:none;stroke-opacity:1"
         id="path106" /><path
         d="m 2994.05,2149.71 55.91,15 -55.91,14.97 z"
         style="fill:#100f0d;fill-opacity:1;fill-rule:nonzero;stroke:none"
         id="path108" /><path
         d="M 2301.62,2164.71 H 2557.9"
         style="fill:none;stroke:#100f0d;stroke-width:5.0003;stroke-linecap:butt;stroke-linejoin:miter;stroke-miterlimit:10;stroke-dasharray:none;stroke-opacity:1"
         id="path110" /><g
         id="g112"
         transform="scale(10)"><text
           transform="matrix(1,0,0,-1,254.768,214.136)"
           style="font-variant:normal;font-weight:normal;font-size:6.99976px;font-family:'Courier New';-inkscape-font-specification:Courier;writing-mode:lr-tb;fill:#100f0d;fill-opacity:1;fill-rule:nonzero;stroke:none"
           id="text116"><tspan
             x="0 4.1998558 8.3997116 12.599568 16.799423 20.999281 25.199137 29.398993 33.598846 37.798702"
             y="0"
             sodipodi:role="line"
             id="tspan114">(First, 2)</tspan></text></g><path
         d="M 2667.9,1898.61 V 1491 h 320.04"
         style="fill:none;stroke:#100f0d;stroke-width:5.4907;stroke-linecap:butt;stroke-linejoin:miter;stroke-miterlimit:10;stroke-dasharray:none;stroke-opacity:1"
         id="path118" /><path
         d="m 2977.07,1475.06 59.52,15.94 -59.52,15.96 z"
         style="fill:#100f0d;fill-opacity:1;fill-rule:nonzero;stroke:none"
         id="path120" /><path
         d="m 2301.62,2072.85 h 341.75 v -108.4"
         style="fill:none;stroke:#100f0d;stroke-width:5.0003;stroke-linecap:butt;stroke-linejoin:miter;stroke-miterlimit:10;stroke-dasharray:none;stroke-opacity:1"
         id="path122" /><g
         id="g124"
         transform="scale(10)"><text
           transform="matrix(1,0,0,-1,254.136,191.475)"
           style="font-variant:normal;font-weight:normal;font-size:6.99976px;font-family:'Courier New';-inkscape-font-specification:Courier;writing-mode:lr-tb;fill:#100f0d;fill-opacity:1;fill-rule:nonzero;stroke:none"
           id="text128"><tspan
             x="0 4.1998558 8.3997116 12.599568 16.799423 20.999281 25.199137 29.398993 33.598846 37.798702 41.998562"
             y="0"
             sodipodi:role="line"
             id="tspan126">(Second, 1)</tspan></text></g><path
         d="M 2547.77,1755.59 V 679.512 h 440.8"
         style="fill:none;stroke:#100f0d;stroke-width:5.4198;stroke-linecap:butt;stroke-linejoin:miter;stroke-miterlimit:10;stroke-dasharray:none;stroke-opacity:1"
         id="path130" /><path
         d="m 2977.83,663.754 58.76,15.758 -58.76,15.746 z"
         style="fill:#100f0d;fill-opacity:1;fill-rule:nonzero;stroke:none"
         id="path132" /><path
         d="m 2254.64,1980.95 h 272.92 v -148.04"
         style="fill:none;stroke:#100f0d;stroke-width:5.0003;stroke-linecap:butt;stroke-linejoin:miter;stroke-miterlimit:10;stroke-dasharray:none;stroke-opacity:1"
         id="path134" /><g
         id="g136"
         transform="scale(10)"><text
           transform="matrix(1,0,0,-1,239.486,177.388)"
           style="font-variant:normal;font-weight:normal;font-size:6.99976px;font-family:'Courier New';-inkscape-font-specification:Courier;writing-mode:lr-tb;fill:#100f0d;fill-opacity:1;fill-rule:nonzero;stroke:none"
           id="text140"><tspan
             x="0 4.1998558 8.3997116 12.599568 16.799423 20.999281 25.199137 29.398993 33.598846"
             y="0"
             sodipodi:role="line"
             id="tspan138">(File, 1)</tspan></text></g><path
         d="m 1675.78,2348.41 h 576.19 c 28.07,0 50.84,-24.68 50.84,-55.11 v -257.21 c 0,-30.46 -22.77,-55.14 -50.84,-55.14 h -576.19 c -28.08,0 -50.85,24.68 -50.85,55.14 v 257.21 c 0,30.43 22.77,55.11 50.85,55.11"
         style="fill:#c9e4f3;fill-opacity:1;fill-rule:nonzero;stroke:none"
         id="path142" /><path
         d="m 1675.78,2348.41 h 576.19 c 28.07,0 50.84,-24.68 50.84,-55.11 v -257.21 c 0,-30.46 -22.77,-55.14 -50.84,-55.14 h -576.19 c -28.08,0 -50.85,24.68 -50.85,55.14 v 257.21 c 0,30.43 22.77,55.11 50.85,55.11 z"
         style="fill:none;stroke:#293985;stroke-width:5.0003;stroke-linecap:butt;stroke-linejoin:miter;stroke-miterlimit:10;stroke-dasharray:none;stroke-opacity:1"
         id="path144" /><g
         id="g146"
         transform="scale(10)"><text
           transform="matrix(1,0,0,-1,183.351,227.202)"
           style="font-variant:normal;font-weight:normal;font-size:6.99976px;font-family:Arial;-inkscape-font-specification:ArialMT;writing-mode:lr-tb;fill:#100f0d;fill-opacity:1;fill-rule:nonzero;stroke:none"
           id="text150"><tspan
             x="0 5.0538268 8.945693 12.83756 16.729427 20.229307 24.121174"
             y="0"
             sodipodi:role="line"
             id="tspan148">Reduce:</tspan></text><text
           transform="matrix(1,0,0,-1,177.48694,218.802)"
           style="font-variant:normal;font-weight:normal;font-size:6.99976px;font-family:'Courier New';-inkscape-font-specification:Courier;writing-mode:lr-tb;fill:#100f0d;fill-opacity:1;fill-rule:nonzero;stroke:none"
           id="text158"><tspan
             x="0 4.1998558 8.3997116 12.599568 16.799423 20.999281 25.199137 29.398993 33.598846"
             y="0"
             sodipodi:role="line"
             id="tspan152">(first,2)</tspan><tspan
             x="-2.0999999 2.0998559 6.2997122 10.499568 14.699424 18.899281 23.099136 27.298992 31.498848 35.698704"
             y="8.3999996"
             sodipodi:role="line"
             id="tspan154">(second,1)</tspan><tspan
             x="2.0999999 6.2998562 10.499712 14.699568 18.899424 23.099279 27.299135 31.498993"
             y="16.80039"
             sodipodi:role="line"
             id="tspan156">(file,1)</tspan></text></g><path
         d="m 2957.49,1368.5 h 36.88"
         style="fill:none;stroke:#100f0d;stroke-width:5.0003;stroke-linecap:butt;stroke-linejoin:miter;stroke-miterlimit:10;stroke-dasharray:none;stroke-opacity:1"
         id="path160" /><path
         d="m 2984.46,1353.98 54.21,14.52 -54.21,14.54 z"
         style="fill:#100f0d;fill-opacity:1;fill-rule:nonzero;stroke:none"
         id="path162" /><path
         d="m 2292.09,1368.5 h 270.37"
         style="fill:none;stroke:#100f0d;stroke-width:5.0003;stroke-linecap:butt;stroke-linejoin:miter;stroke-miterlimit:10;stroke-dasharray:none;stroke-opacity:1"
         id="path164" /><g
         id="g166"
         transform="scale(10)"><text
           transform="matrix(0.970013,0,0,-1,255.398,134.518)"
           style="font-variant:normal;font-weight:normal;font-size:6.99976px;font-family:'Courier New';-inkscape-font-specification:Courier;writing-mode:lr-tb;fill:#100f0d;fill-opacity:1;fill-rule:nonzero;stroke:none"
           id="text170"><tspan
             x="0 4.1998558 8.3997116 12.599568 16.799423 20.999281 25.199137 29.398993 33.598846 37.798702"
             y="0"
             sodipodi:role="line"
             id="tspan168">(Second,1)</tspan></text></g><path
         d="M 2415.01,938.246 V 541.699 h 573.56"
         style="fill:none;stroke:#100f0d;stroke-width:5.4198;stroke-linecap:butt;stroke-linejoin:miter;stroke-miterlimit:10;stroke-dasharray:none;stroke-opacity:1"
         id="path172" /><path
         d="m 2977.83,525.945 58.76,15.754 -58.76,15.735 z"
         style="fill:#100f0d;fill-opacity:1;fill-rule:nonzero;stroke:none"
         id="path174" /><path
         d="m 2292.09,1276.64 h 122.5 v -243.68"
         style="fill:none;stroke:#100f0d;stroke-width:5.0003;stroke-linecap:butt;stroke-linejoin:miter;stroke-miterlimit:10;stroke-dasharray:none;stroke-opacity:1"
         id="path176" /><g
         id="g178"
         transform="scale(10)"><text
           transform="matrix(1,0,0,-1,220.123,96.5434)"
           style="font-variant:normal;font-weight:normal;font-size:6.99976px;font-family:'Courier New';-inkscape-font-specification:Courier;writing-mode:lr-tb;fill:#100f0d;fill-opacity:1;fill-rule:nonzero;stroke:none"
           id="text182"><tspan
             x="0 4.1998558 8.3997116 12.599568 16.799423 20.999281 25.199137 29.398993"
             y="0"
             sodipodi:role="line"
             id="tspan180">(File,1)</tspan></text></g><path
         d="m 1675.78,1552.25 h 576.19 c 28.07,0 50.84,-24.68 50.84,-55.12 v -257.22 c 0,-30.45 -22.77,-55.12 -50.84,-55.12 h -576.19 c -28.08,0 -50.85,24.67 -50.85,55.12 v 257.22 c 0,30.44 22.77,55.12 50.85,55.12"
         style="fill:#f4f6f7;fill-opacity:1;fill-rule:nonzero;stroke:none"
         id="path184" /><path
         d="m 1675.78,1552.25 h 576.19 c 28.07,0 50.84,-24.68 50.84,-55.12 v -257.22 c 0,-30.45 -22.77,-55.12 -50.84,-55.12 h -576.19 c -28.08,0 -50.85,24.67 -50.85,55.12 v 257.22 c 0,30.44 22.77,55.12 50.85,55.12 z"
         style="fill:none;stroke:#5e6061;stroke-width:5.0003;stroke-linecap:butt;stroke-linejoin:miter;stroke-miterlimit:10;stroke-dasharray:none;stroke-opacity:1"
         id="path186" /><g
         id="g188"
         transform="scale(10)"><text
           transform="matrix(1,0,0,-1,183.351,143.386)"
           style="font-variant:normal;font-weight:normal;font-size:6.99976px;font-family:Arial;-inkscape-font-specification:ArialMT;writing-mode:lr-tb;fill:#2f2d2e;fill-opacity:1;fill-rule:nonzero;stroke:none"
           id="text192"><tspan
             x="0 5.0538268 8.945693 12.83756 16.729427 20.229307 24.121174"
             y="0"
             sodipodi:role="line"
             id="tspan190">Reduce:</tspan></text><text
           transform="matrix(1,0,0,-1,175.38694,134.986)"
           style="font-variant:normal;font-weight:normal;font-size:6.99976px;font-family:'Courier New';-inkscape-font-specification:Courier;writing-mode:lr-tb;fill:#2f2d2e;fill-opacity:1;fill-rule:nonzero;stroke:none"
           id="text198"><tspan
             x="0 4.1998558 8.3997116 12.599568 16.799423 20.999281 25.199137 29.398993 33.598846 37.798702"
             y="0"
             sodipodi:role="line"
             id="tspan194">(second,1)</tspan><tspan
             x="4.1999998 8.3998556 12.599712 16.799568 20.999424 25.19928 29.399136 33.598991"
             y="8.3999996"
             sodipodi:role="line"
             id="tspan196">(file,1)</tspan></text></g><path
         d="m 2849.35,400.844 139.23,2.051"
         style="fill:none;stroke:#100f0d;stroke-width:5.4198;stroke-linecap:butt;stroke-linejoin:miter;stroke-miterlimit:10;stroke-dasharray:none;stroke-opacity:1"
         id="path200" /><path
         d="m 2978.07,387.004 58.52,16.609 -58.99,14.879 z"
         style="fill:#100f0d;fill-opacity:1;fill-rule:nonzero;stroke:none"
         id="path202" /><path
         d="m 2301.62,449.832 v -48.988 h 112.97"
         style="fill:none;stroke:#100f0d;stroke-width:5.0003;stroke-linecap:butt;stroke-linejoin:miter;stroke-miterlimit:10;stroke-dasharray:none;stroke-opacity:1"
         id="path204" /><g
         id="g206"
         transform="scale(10)"><text
           transform="matrix(1,0,0,-1,241.251,39.7184)"
           style="font-variant:normal;font-weight:normal;font-size:6.99976px;font-family:'Courier New';-inkscape-font-specification:Courier;writing-mode:lr-tb;fill:#100f0d;fill-opacity:1;fill-rule:nonzero;stroke:none"
           id="text212"><tspan
             x="0 4.1998558 8.3997116 12.599568 16.799423 20.999281 25.199137 29.398993 33.598846 37.798702"
             y="0"
             sodipodi:role="line"
             id="tspan208">(Third, 1)</tspan><tspan
             x="4.1999998 8.3998556 12.599712 16.799568 20.999424 25.19928 29.399136 33.598991"
             y="8.3999996"
             sodipodi:role="line"
             id="tspan210">(file,1)</tspan></text></g><path
         d="m 3159.89,21.1367 h 747.8 V 2164.71 h -159.96"
         style="fill:none;stroke:#100f0d;stroke-width:4.5609;stroke-linecap:butt;stroke-linejoin:miter;stroke-miterlimit:10;stroke-dasharray:none;stroke-opacity:1"
         id="path214" /><path
         d="m 3756.76,2177.95 -49.44,-13.24 49.44,-13.25 z"
         style="fill:#100f0d;fill-opacity:1;fill-rule:nonzero;stroke:none"
         id="path216" /><path
         d="M 2132.13,357.973 V 21.1367 h 558.15"
         style="fill:none;stroke:#100f0d;stroke-width:5.0003;stroke-linecap:butt;stroke-linejoin:miter;stroke-miterlimit:10;stroke-dasharray:none;stroke-opacity:1"
         id="path218" /><g
         id="g220"
         transform="scale(10)"><text
           transform="matrix(1,0,0,-1,271.341,1.00234)"
           style="font-variant:normal;font-weight:normal;font-size:6.99976px;font-family:'Courier New';-inkscape-font-specification:Courier;writing-mode:lr-tb;fill:#100f0d;fill-opacity:1;fill-rule:nonzero;stroke:none"
           id="text224"><tspan
             x="0 4.1998558 8.3997116 12.599568 16.799423 20.999281 25.199137 29.398993 33.598846 37.798702"
             y="0"
             sodipodi:role="line"
             id="tspan222">(First, 1)</tspan></text></g><path
         d="m 1675.78,725.434 h 576.19 c 28.07,0 50.84,-24.668 50.84,-55.121 V 413.105 c 0,-30.453 -22.77,-55.132 -50.84,-55.132 h -576.19 c -28.08,0 -50.85,24.679 -50.85,55.132 v 257.208 c 0,30.453 22.77,55.121 50.85,55.121"
         style="fill:#e0f2c3;fill-opacity:1;fill-rule:nonzero;stroke:none"
         id="path226" /><path
         d="m 1675.78,725.434 h 576.19 c 28.07,0 50.84,-24.668 50.84,-55.121 V 413.105 c 0,-30.453 -22.77,-55.132 -50.84,-55.132 h -576.19 c -28.08,0 -50.85,24.679 -50.85,55.132 v 257.208 c 0,30.453 22.77,55.121 50.85,55.121 z"
         style="fill:none;stroke:#298a3c;stroke-width:5.0003;stroke-linecap:butt;stroke-linejoin:miter;stroke-miterlimit:4;stroke-dasharray:none;stroke-opacity:1"
         id="path228" /><g
         id="g230"
         transform="scale(10)"><text
           transform="matrix(1,0,0,-1,183.351,64.9043)"
           style="font-variant:normal;font-weight:normal;font-size:6.99976px;font-family:Arial;-inkscape-font-specification:ArialMT;writing-mode:lr-tb;fill:#100f0d;fill-opacity:1;fill-rule:nonzero;stroke:none"
           id="text234"><tspan
             x="0 5.0538268 8.945693 12.83756 16.729427 20.229307 24.121174"
             y="0"
             sodipodi:role="line"
             id="tspan232">Reduce:</tspan></text><text
           transform="matrix(1,0,0,-1,177.48694,56.50352)"
           style="font-variant:normal;font-weight:normal;font-size:6.99976px;font-family:'Courier New';-inkscape-font-specification:Courier;writing-mode:lr-tb;fill:#100f0d;fill-opacity:1;fill-rule:nonzero;stroke:none"
           id="text242"><tspan
             x="0 4.1998558 8.3997116 12.599568 16.799423 20.999281 25.199137 29.398993 33.598846"
             y="0"
             sodipodi:role="line"
             id="tspan236">(third,1)</tspan><tspan
             x="0 4.1998558 8.3997116 12.599568 16.799423 20.999281 25.199137 29.398993 33.598846"
             y="8.3992205"
             sodipodi:role="line"
             id="tspan238">(first,1)</tspan><tspan
             x="2.1011701 6.3010259 10.500882 14.700738 18.900595 23.100451 27.300306 31.500162"
             y="16.799999"
             sodipodi:role="line"
             id="tspan240">(file,1)</tspan></text></g><path
         d="m 3108.93,2409.68 h 542.31 c 37.44,0 67.79,-32.89 67.79,-73.5 V 1993.2 c 0,-40.57 -30.35,-73.49 -67.79,-73.49 h -542.31 c -37.44,0 -67.78,32.92 -67.78,73.49 v 342.98 c 0,40.61 30.34,73.5 67.78,73.5"
         style="fill:#c9e4f3;fill-opacity:1;fill-rule:nonzero;stroke:none"
         id="path244" /><path
         d="m 3108.93,2409.68 h 542.31 c 37.44,0 67.79,-32.89 67.79,-73.5 V 1993.2 c 0,-40.57 -30.35,-73.49 -67.79,-73.49 h -542.31 c -37.44,0 -67.78,32.92 -67.78,73.49 v 342.98 c 0,40.61 30.34,73.5 67.78,73.5 z"
         style="fill:none;stroke:#293985;stroke-width:5.0003;stroke-linecap:butt;stroke-linejoin:miter;stroke-miterlimit:10;stroke-dasharray:none;stroke-opacity:1"
         id="path246" /><g
         id="g248"
         transform="scale(10)"><text
           transform="matrix(1,0,0,-1,318.939,244.757)"
           style="font-variant:normal;font-weight:normal;font-size:6.99976px;font-family:Arial;-inkscape-font-specification:ArialMT;writing-mode:lr-tb;fill:#100f0d;fill-opacity:1;fill-rule:nonzero;stroke:none"
           id="text252"><tspan
             x="0 5.0538268 8.945693 10.891626 14.783493 16.729427 20.621292 24.513159 28.405025 32.296894 34.242825"
             y="0"
             sodipodi:role="line"
             id="tspan250">Data node 1</tspan></text></g><path
         d="m 3108.93,1613.48 h 542.31 c 37.44,0 67.79,-32.9 67.79,-73.48 v -342.98 c 0,-40.59 -30.35,-73.49 -67.79,-73.49 h -542.31 c -37.44,0 -67.78,32.9 -67.78,73.49 V 1540 c 0,40.58 30.34,73.48 67.78,73.48"
         style="fill:#f4f6f7;fill-opacity:1;fill-rule:nonzero;stroke:none"
         id="path254" /><path
         d="m 3108.93,1613.48 h 542.31 c 37.44,0 67.79,-32.9 67.79,-73.48 v -342.98 c 0,-40.59 -30.35,-73.49 -67.79,-73.49 h -542.31 c -37.44,0 -67.78,32.9 -67.78,73.49 V 1540 c 0,40.58 30.34,73.48 67.78,73.48 z"
         style="fill:none;stroke:#5e6061;stroke-width:5.0003;stroke-linecap:butt;stroke-linejoin:miter;stroke-miterlimit:10;stroke-dasharray:none;stroke-opacity:1"
         id="path256" /><g
         id="g258"
         transform="scale(10)"><text
           transform="matrix(1,0,0,-1,318.939,165.139)"
           style="font-variant:normal;font-weight:normal;font-size:6.99976px;font-family:Arial;-inkscape-font-specification:ArialMT;writing-mode:lr-tb;fill:#100f0d;fill-opacity:1;fill-rule:nonzero;stroke:none"
           id="text262"><tspan
             x="0 5.0538268 8.945693 10.891626 14.783493 16.729427 20.621292 24.513159 28.405025 32.296894 34.242825"
             y="0"
             sodipodi:role="line"
             id="tspan260">Data node 2</tspan></text></g><path
         d="m 3117.42,817.305 h 525.34 c 42.12,0 76.27,-37.02 76.27,-82.7 V 348.773 c 0,-45.66 -34.15,-82.679 -76.27,-82.679 h -525.34 c -42.13,0 -76.27,37.019 -76.27,82.679 v 385.832 c 0,45.68 34.14,82.7 76.27,82.7"
         style="fill:#e0f2c3;fill-opacity:1;fill-rule:nonzero;stroke:none"
         id="path264" /><path
         d="m 3117.42,817.305 h 525.34 c 42.12,0 76.27,-37.02 76.27,-82.7 V 348.773 c 0,-45.66 -34.15,-82.679 -76.27,-82.679 h -525.34 c -42.13,0 -76.27,37.019 -76.27,82.679 v 385.832 c 0,45.68 34.14,82.7 76.27,82.7 z"
         style="fill:none;stroke:#298a3c;stroke-width:5.0003;stroke-linecap:butt;stroke-linejoin:miter;stroke-miterlimit:4;stroke-dasharray:none;stroke-opacity:1"
         id="path266" /><g
         id="g268"
         transform="scale(10)"><text
           transform="matrix(1,0,0,-1,318.939,85.5203)"
           style="font-variant:normal;font-weight:normal;font-size:6.99976px;font-family:Arial;-inkscape-font-specification:ArialMT;writing-mode:lr-tb;fill:#100f0d;fill-opacity:1;fill-rule:nonzero;stroke:none"
           id="text272"><tspan
             x="0 5.0538268 8.945693 10.891626 14.783493 16.729427 20.621292 24.513159 28.405025 32.296894 34.242825"
             y="0"
             sodipodi:role="line"
             id="tspan270">Data node 3</tspan></text></g><path
         d="m 3205.76,2086.86 h 357.5 v 73.18 h -357.5 v -73.18"
         style="fill:#73c82c;fill-opacity:1;fill-rule:nonzero;stroke:none"
         id="path274" /><g
         id="g276"
         transform="scale(10)"><text
           transform="matrix(1,0,0,-1,317.009,218.804)"
           style="font-variant:normal;font-weight:normal;font-size:6.99976px;font-family:'Courier New';-inkscape-font-specification:Courier;writing-mode:lr-tb;fill:#100f0d;fill-opacity:1;fill-rule:nonzero;stroke:none"
           id="text282"><tspan
             x="0 4.1998558 8.3997116 12.599568 16.799423 20.999281 25.199137 29.398993 33.598846 37.798702 4.199646"
             y="0"
             sodipodi:role="line"
             id="tspan278">( irst, 2)f</tspan><tspan
             x="2.1011701 6.3010259 10.500882 14.700738 18.900595 23.100451 27.300306 31.500162 35.70002"
             y="8.3999996"
             sodipodi:role="line"
             id="tspan280">(first,1)</tspan></text></g><path
         d="m 3178.26,1287.98 h 405 v 80.52 h -405 v -80.52"
         style="fill:#72a5dc;fill-opacity:1;fill-rule:nonzero;stroke:none"
         id="path284" /><path
         d="m 3213.26,459.602 h 335 v 78.98 h -335 v -78.98"
         style="fill:#72a5dc;fill-opacity:1;fill-rule:nonzero;stroke:none"
         id="path286" /><path
         d="m 3213.26,377.113 h 335 v 75.86 h -335 v -75.86"
         style="fill:#f4f6f7;fill-opacity:1;fill-rule:nonzero;stroke:none"
         id="path288" /><g
         id="g290"
         transform="scale(10)"><text
           transform="matrix(1,0,0,-1,319.109,64.9023)"
           style="font-variant:normal;font-weight:normal;font-size:6.99976px;font-family:'Courier New';-inkscape-font-specification:Courier;writing-mode:lr-tb;fill:#100f0d;fill-opacity:1;fill-rule:nonzero;stroke:none"
           id="text300"><tspan
             x="0 4.1998558 8.3997116 12.599568 16.799423 20.999281 25.199137 29.398993 33.598846 4.1995759"
             y="0"
             sodipodi:role="line"
             id="tspan292">( hird,1)t</tspan><tspan
             x="2.09922 6.2990761 10.498932 14.698788 18.898643 23.098499 27.298355 31.498213"
             y="8.3999996"
             sodipodi:role="line"
             id="tspan294">(file,1)</tspan><tspan
             x="2.09922 6.2990761 10.498932 14.698788 18.898643 23.098499 27.298355 31.498213"
             y="16.799999"
             sodipodi:role="line"
             id="tspan296">(file,1)</tspan><tspan
             x="2.09922 6.2990761 10.498932 14.698788 18.898643 23.098499 27.298355 31.498213"
             y="25.200001"
             sodipodi:role="line"
             id="tspan298">(file,1)</tspan></text></g><g
         id="g302"
         transform="scale(10)"><text
           transform="matrix(1,0,0,-1,317.009,139.184)"
           style="font-variant:normal;font-weight:normal;font-size:6.99976px;font-family:'Courier New';-inkscape-font-specification:Courier;writing-mode:lr-tb;fill:#2f2d2e;fill-opacity:1;fill-rule:nonzero;stroke:none"
           id="text308"><tspan
             x="0 4.1998558 8.3997116 12.599568 16.799423 20.999281 25.199137 29.398993 33.598846 37.798702 4.199646"
             y="0"
             sodipodi:role="line"
             id="tspan304">( econd,1)s</tspan><tspan
             x="0 4.1998558 8.3997116 12.599568 16.799423 20.999281 25.199137 29.398993 33.598846 37.798702"
             y="8.3988304"
             sodipodi:role="line"
             id="tspan306">(second,1)</tspan></text></g></g></g></svg>
