<?xml version="1.0" encoding="UTF-8" standalone="no"?>
<!-- Created with Inkscape (http://www.inkscape.org/) -->

<svg
   version="1.1"
   id="svg2"
   xml:space="preserve"
   width="252"
   height="330.66666"
   viewBox="0 0 252 330.66666"
   sodipodi:docname="8-16.eps"
   xmlns:inkscape="http://www.inkscape.org/namespaces/inkscape"
   xmlns:sodipodi="http://sodipodi.sourceforge.net/DTD/sodipodi-0.dtd"
   xmlns="http://www.w3.org/2000/svg"
   xmlns:svg="http://www.w3.org/2000/svg"><defs
     id="defs6" /><sodipodi:namedview
     id="namedview4"
     pagecolor="#ffffff"
     bordercolor="#666666"
     borderopacity="1.0"
     inkscape:pageshadow="2"
     inkscape:pageopacity="0.0"
     inkscape:pagecheckerboard="0" /><g
     id="g8"
     inkscape:groupmode="layer"
     inkscape:label="ink_ext_XXXXXX"
     transform="matrix(1.3333333,0,0,-1.3333333,0,330.66667)"><g
       id="g10"
       transform="scale(0.1)"><path
         d="M 825.398,2109.42 H 1837.12"
         style="fill:none;stroke:#100f0d;stroke-width:4.9691;stroke-linecap:butt;stroke-linejoin:miter;stroke-miterlimit:10;stroke-dasharray:none;stroke-opacity:1"
         id="path12" /><path
         d="m 1827.28,2094.99 53.85,14.43 -53.85,14.43 z"
         style="fill:#100f0d;fill-opacity:1;fill-rule:nonzero;stroke:none"
         id="path14" /><path
         d="M 825.398,1227.59 H 1837.12"
         style="fill:none;stroke:#100f0d;stroke-width:4.9691;stroke-linecap:butt;stroke-linejoin:miter;stroke-miterlimit:10;stroke-dasharray:none;stroke-opacity:1"
         id="path16" /><path
         d="m 1827.28,1213.15 53.85,14.44 -53.85,14.43 z"
         style="fill:#100f0d;fill-opacity:1;fill-rule:nonzero;stroke:none"
         id="path18" /><path
         d="M 825.398,296.898 H 1837.12"
         style="fill:none;stroke:#100f0d;stroke-width:4.9691;stroke-linecap:butt;stroke-linejoin:miter;stroke-miterlimit:10;stroke-dasharray:none;stroke-opacity:1"
         id="path20" /><path
         d="m 1827.28,282.469 53.85,14.429 -53.85,14.438 z"
         style="fill:#100f0d;fill-opacity:1;fill-rule:nonzero;stroke:none"
         id="path22" /><g
         id="g24"
         transform="scale(10)"><text
           transform="matrix(0.999753,0,0,-1,111.571,218.17)"
           style="font-variant:normal;font-weight:normal;font-size:7.99981px;font-family:'Courier New';-inkscape-font-specification:Courier;writing-mode:lr-tb;fill:#100f0d;fill-opacity:1;fill-rule:nonzero;stroke:none"
           id="text28"><tspan
             x="0 4.7998862 9.5997725 14.399658 19.199545 23.99943 28.799316 33.599201 38.39909 4.800046"
             y="0"
             sodipodi:role="line"
             id="tspan26">( irst,3)f</tspan></text></g><path
         d="M 93.0078,2380.75 H 744.027 c 44.942,0 81.379,-36.43 81.379,-81.39 v -379.88 c 0,-44.95 -36.437,-81.39 -81.379,-81.39 H 93.0078 c -44.9414,0 -81.3789,36.44 -81.3789,81.39 v 379.88 c 0,44.96 36.4375,81.39 81.3789,81.39"
         style="fill:#c9e4f3;fill-opacity:1;fill-rule:nonzero;stroke:none"
         id="path30" /><path
         d="M 93.0078,2380.75 H 744.027 c 44.942,0 81.379,-36.43 81.379,-81.39 v -379.88 c 0,-44.95 -36.437,-81.39 -81.379,-81.39 H 93.0078 c -44.9414,0 -81.3789,36.44 -81.3789,81.39 v 379.88 c 0,44.96 36.4375,81.39 81.3789,81.39 z"
         style="fill:none;stroke:#293985;stroke-width:4.9691;stroke-linecap:butt;stroke-linejoin:miter;stroke-miterlimit:10;stroke-dasharray:none;stroke-opacity:1"
         id="path32" /><g
         id="g34"
         transform="scale(10)"><text
           transform="matrix(0.999753,0,0,-1,22.7863,242.198)"
           style="font-variant:normal;font-weight:normal;font-size:6.99976px;font-family:Arial;-inkscape-font-specification:ArialMT;writing-mode:lr-tb;fill:#100f0d;fill-opacity:1;fill-rule:nonzero;stroke:none"
           id="text38"><tspan
             x="0 5.0538268 8.945693 10.891626 14.783493 16.729427 20.621292 24.513159 28.405025 32.296894 34.242825"
             y="0"
             sodipodi:role="line"
             id="tspan36">Data node 1</tspan></text><text
           transform="matrix(0.999753,0,0,-1,109.17066,128.477)"
           style="font-variant:normal;font-weight:normal;font-size:7.99981px;font-family:'Courier New';-inkscape-font-specification:Courier;writing-mode:lr-tb;fill:#100f0d;fill-opacity:1;fill-rule:nonzero;stroke:none"
           id="text42"><tspan
             x="0 4.7998862 9.5997725 14.399658 19.199545 23.99943 28.799316 33.599201 38.39909 43.198975 4.7996459"
             y="0"
             sodipodi:role="line"
             id="tspan40">( econd,2)s</tspan></text></g><path
         d="M 93.0078,1498.92 H 744.027 c 44.942,0 81.379,-36.44 81.379,-81.4 v -379.87 c 0,-44.962 -36.437,-81.4 -81.379,-81.4 H 93.0078 c -44.9414,0 -81.3789,36.438 -81.3789,81.4 v 379.87 c 0,44.96 36.4375,81.4 81.3789,81.4"
         style="fill:#f4f6f7;fill-opacity:1;fill-rule:nonzero;stroke:none"
         id="path44" /><path
         d="M 93.0078,1498.92 H 744.027 c 44.942,0 81.379,-36.44 81.379,-81.4 v -379.87 c 0,-44.962 -36.437,-81.4 -81.379,-81.4 H 93.0078 c -44.9414,0 -81.3789,36.438 -81.3789,81.4 v 379.87 c 0,44.96 36.4375,81.4 81.3789,81.4 z"
         style="fill:none;stroke:#5e6061;stroke-width:4.9691;stroke-linecap:butt;stroke-linejoin:miter;stroke-miterlimit:10;stroke-dasharray:none;stroke-opacity:1"
         id="path46" /><g
         id="g48"
         transform="scale(10)"><text
           transform="matrix(0.999753,0,0,-1,22.7863,154.014)"
           style="font-variant:normal;font-weight:normal;font-size:6.99976px;font-family:Arial;-inkscape-font-specification:ArialMT;writing-mode:lr-tb;fill:#100f0d;fill-opacity:1;fill-rule:nonzero;stroke:none"
           id="text52"><tspan
             x="0 5.0538268 8.945693 10.891626 14.783493 16.729427 20.621292 24.513159 28.405025 32.296894 34.242825"
             y="0"
             sodipodi:role="line"
             id="tspan50">Data node 2</tspan></text><text
           transform="matrix(0.999753,0,0,-1,89.9773,35.31)"
           style="font-variant:normal;font-weight:normal;font-size:7.99981px;font-family:'Courier New';-inkscape-font-specification:Courier;writing-mode:lr-tb;fill:#100f0d;fill-opacity:1;fill-rule:nonzero;stroke:none"
           id="text56"><tspan
             x="0 4.7998862 9.5997725 14.399658 19.199545 23.99943 28.799316 33.599201 38.39909 43.198975 47.998859 52.798744 57.598633 62.398518 67.198402 71.998291 76.79818 81.598061 4.7998862 9.5997725 52.798744"
             y="0"
             sodipodi:role="line"
             id="tspan54">( hird,1) ( ile,3)t f</tspan></text></g><path
         d="m 103.184,617.09 h 630.668 c 50.562,0 91.554,-41.012 91.554,-91.582 V 98.1602 c 0,-50.5704 -40.992,-91.57036 -91.554,-91.57036 H 103.184 c -50.5629,0 -91.5551,40.99996 -91.5551,91.57036 V 525.508 c 0,50.57 40.9922,91.582 91.5551,91.582"
         style="fill:#e0f2c3;fill-opacity:1;fill-rule:nonzero;stroke:none"
         id="path58" /><path
         d="m 103.184,617.09 h 630.668 c 50.562,0 91.554,-41.012 91.554,-91.582 V 98.1602 c 0,-50.5704 -40.992,-91.57036 -91.554,-91.57036 H 103.184 c -50.5629,0 -91.5551,40.99996 -91.5551,91.57036 V 525.508 c 0,50.57 40.9922,91.582 91.5551,91.582 z"
         style="fill:none;stroke:#298a3c;stroke-width:4.9691;stroke-linecap:butt;stroke-linejoin:miter;stroke-miterlimit:4;stroke-dasharray:none;stroke-opacity:1"
         id="path60" /><g
         id="g62"
         transform="scale(10)"><text
           transform="matrix(0.999753,0,0,-1,22.7863,65.832)"
           style="font-variant:normal;font-weight:normal;font-size:6.99976px;font-family:Arial;-inkscape-font-specification:ArialMT;writing-mode:lr-tb;fill:#100f0d;fill-opacity:1;fill-rule:nonzero;stroke:none"
           id="text66"><tspan
             x="0 5.0538268 8.945693 10.891626 14.783493 16.729427 20.621292 24.513159 28.405025 32.296894 34.242825"
             y="0"
             sodipodi:role="line"
             id="tspan64">Data node 3</tspan></text></g><path
         d="m 204.969,2005.2 h 423.332 v 99.49 H 204.969 v -99.49"
         style="fill:#73c82c;fill-opacity:1;fill-rule:nonzero;stroke:none"
         id="path68" /><path
         d="m 178.301,1126.01 h 473.332 v 97.89 H 178.301 v -97.89"
         style="fill:#72a5dc;fill-opacity:1;fill-rule:nonzero;stroke:none"
         id="path70" /><path
         d="m 236.633,231.02 h 366.668 v 94.5 H 236.633 v -94.5"
         style="fill:#72a5dc;fill-opacity:1;fill-rule:nonzero;stroke:none"
         id="path72" /><path
         d="m 234.969,123.379 h 366.664 v 111.75 H 234.969 v -111.75"
         style="fill:#f4f6f7;fill-opacity:1;fill-rule:nonzero;stroke:none"
         id="path74" /><g
         id="g76"
         transform="scale(10)"><text
           transform="matrix(0.999753,0,0,-1,20.2582,213.928)"
           style="font-variant:normal;font-weight:normal;font-size:7.99981px;font-family:'Courier New';-inkscape-font-specification:Courier;writing-mode:lr-tb;fill:#100f0d;fill-opacity:1;fill-rule:nonzero;stroke:none"
           id="text94"><tspan
             x="0 4.7998862 9.5997725 14.399658 19.199545 23.99943 28.799316 33.599201 38.39909 4.7996459"
             y="0"
             sodipodi:role="line"
             id="tspan78">( irst,2)f</tspan><tspan
             x="0 4.7998862 9.5997725 14.399658 19.199545 23.99943 28.799316 33.599201 38.39909 4.7996459"
             y="9.6000004"
             sodipodi:role="line"
             id="tspan80">( irst,1)f</tspan><tspan
             x="-2.4001999 2.3996861 7.1995721 11.999458 16.799343 21.59923 26.399117 31.199001 35.998886 40.798775 2.399446"
             y="88.183197"
             sodipodi:role="line"
             id="tspan82">( econd,1)s</tspan><tspan
             x="-2.4001999 2.3996861 7.1995721 11.999458 16.799343 21.59923 26.399117 31.199001 35.998886 40.798775 2.399446"
             y="97.783203"
             sodipodi:role="line"
             id="tspan84">( econd,1)s</tspan><tspan
             x="0 4.7998862 9.5997725 14.399658 19.199545 23.99943 28.799316 33.599201 38.39909 4.7996459"
             y="169.00591"
             sodipodi:role="line"
             id="tspan86">( hird,1)t</tspan><tspan
             x="2.3998101 7.1996961 11.999582 16.799467 21.599354 26.39924 31.199125 35.999012 7.1994562"
             y="178.6059"
             sodipodi:role="line"
             id="tspan88">( ile,1)f</tspan><tspan
             x="2.3998101 7.1996961 11.999582 16.799467 21.599354 26.39924 31.199125 35.999012 7.1994562"
             y="188.2059"
             sodipodi:role="line"
             id="tspan90">( ile,1)f</tspan><tspan
             x="2.3998101 7.1996961 11.999582 16.799467 21.599354 26.39924 31.199125 35.999012 7.1994562"
             y="197.80589"
             sodipodi:role="line"
             id="tspan92">( ile,1)f</tspan></text></g></g></g></svg>
