<?xml version="1.0" encoding="UTF-8" standalone="no"?>
<!-- Created with Inkscape (http://www.inkscape.org/) -->

<svg
   version="1.1"
   id="svg2"
   xml:space="preserve"
   width="377.33334"
   height="74.666664"
   viewBox="0 0 377.33334 74.666664"
   sodipodi:docname="8-17.eps"
   xmlns:inkscape="http://www.inkscape.org/namespaces/inkscape"
   xmlns:sodipodi="http://sodipodi.sourceforge.net/DTD/sodipodi-0.dtd"
   xmlns="http://www.w3.org/2000/svg"
   xmlns:svg="http://www.w3.org/2000/svg"><defs
     id="defs6" /><sodipodi:namedview
     id="namedview4"
     pagecolor="#ffffff"
     bordercolor="#666666"
     borderopacity="1.0"
     inkscape:pageshadow="2"
     inkscape:pageopacity="0.0"
     inkscape:pagecheckerboard="0" /><g
     id="g8"
     inkscape:groupmode="layer"
     inkscape:label="ink_ext_XXXXXX"
     transform="matrix(1.3333333,0,0,-1.3333333,0,74.666667)"><g
       id="g10"
       transform="scale(0.1)"><g
         id="g12"
         transform="scale(10)"><text
           transform="matrix(1,0,0,-1,115.122,50.0465)"
           style="font-variant:normal;font-weight:normal;font-size:6.99976px;font-family:Arial;-inkscape-font-specification:ArialMT;writing-mode:lr-tb;fill:#100f0d;fill-opacity:1;fill-rule:nonzero;stroke:none"
           id="text16"><tspan
             x="0 4.6688399 8.5607061 12.452573 14.783493 18.283373 20.229307 24.121174 26.452093 30.34396 33.843838 37.735706 41.235584 44.735466 46.289413 50.181278"
             y="0"
             sodipodi:role="line"
             id="tspan14">Spark processing</tspan></text></g><path
         d="m 2362.76,253.238 h 136.76"
         style="fill:none;stroke:#100f0d;stroke-width:5.0003;stroke-linecap:butt;stroke-linejoin:miter;stroke-miterlimit:10;stroke-dasharray:none;stroke-opacity:1"
         id="path18" /><path
         d="m 2489.61,238.715 54.21,14.523 -54.21,14.532 z"
         style="fill:#100f0d;fill-opacity:1;fill-rule:nonzero;stroke:none"
         id="path20" /><path
         d="m 1913.19,262.23 135.53,-2.851"
         style="fill:none;stroke:#100f0d;stroke-width:5.0003;stroke-linecap:butt;stroke-linejoin:miter;stroke-miterlimit:10;stroke-dasharray:none;stroke-opacity:1"
         id="path22" /><path
         d="m 2038.52,245.063 54.49,13.39 -53.89,15.664 z"
         style="fill:#100f0d;fill-opacity:1;fill-rule:nonzero;stroke:none"
         id="path24" /><path
         d="m 14.1445,352.152 c 0,37.239 60.3828,67.438 134.8755,67.438 35.765,0 70.078,-7.113 95.371,-19.75 25.285,-12.656 39.5,-29.805 39.5,-47.688 V 172.328 c 0,-37.254 -60.379,-67.441 -134.871,-67.441 -74.4927,0 -134.8755,30.187 -134.8755,67.441 v 179.824"
         style="fill:#c9e4f3;fill-opacity:1;fill-rule:nonzero;stroke:none"
         id="path26" /><path
         d="m 14.1445,352.152 c 0,37.239 60.3828,67.438 134.8755,67.438 35.765,0 70.078,-7.113 95.371,-19.75 25.285,-12.656 39.5,-29.805 39.5,-47.688 V 172.328 c 0,-37.254 -60.379,-67.441 -134.871,-67.441 -74.4927,0 -134.8755,30.187 -134.8755,67.441 z"
         style="fill:none;stroke:#293985;stroke-width:5.0003;stroke-linecap:butt;stroke-linejoin:miter;stroke-miterlimit:10;stroke-dasharray:none;stroke-opacity:1"
         id="path28" /><path
         d="m 14.1445,352.152 c 0,37.239 60.3828,67.438 134.8755,67.438 35.765,0 70.078,-7.113 95.371,-19.75 25.285,-12.656 39.5,-29.805 39.5,-47.688 V 217.281 c 0,-37.238 -60.379,-67.441 -134.871,-67.441 -74.4927,0 -134.8755,30.203 -134.8755,67.441 v 134.871"
         style="fill:#c9e4f3;fill-opacity:1;fill-rule:nonzero;stroke:none"
         id="path30" /><path
         d="m 14.1445,352.152 c 0,37.239 60.3828,67.438 134.8755,67.438 35.765,0 70.078,-7.113 95.371,-19.75 25.285,-12.656 39.5,-29.805 39.5,-47.688 V 217.281 c 0,-37.238 -60.379,-67.441 -134.871,-67.441 -74.4927,0 -134.8755,30.203 -134.8755,67.441 z"
         style="fill:none;stroke:#293985;stroke-width:5.0003;stroke-linecap:butt;stroke-linejoin:miter;stroke-miterlimit:10;stroke-dasharray:none;stroke-opacity:1"
         id="path32" /><path
         d="m 14.1445,352.152 c 0,37.239 60.3828,67.438 134.8755,67.438 35.765,0 70.078,-7.113 95.371,-19.75 25.285,-12.656 39.5,-29.805 39.5,-47.688 V 262.23 c 0,-37.234 -60.379,-67.441 -134.871,-67.441 -74.4927,0 -134.8755,30.207 -134.8755,67.441 v 89.922"
         style="fill:#c9e4f3;fill-opacity:1;fill-rule:nonzero;stroke:none"
         id="path34" /><path
         d="m 14.1445,352.152 c 0,37.239 60.3828,67.438 134.8755,67.438 35.765,0 70.078,-7.113 95.371,-19.75 25.285,-12.656 39.5,-29.805 39.5,-47.688 V 262.23 c 0,-37.234 -60.379,-67.441 -134.871,-67.441 -74.4927,0 -134.8755,30.207 -134.8755,67.441 z"
         style="fill:none;stroke:#293985;stroke-width:5.0003;stroke-linecap:butt;stroke-linejoin:miter;stroke-miterlimit:10;stroke-dasharray:none;stroke-opacity:1"
         id="path36" /><path
         d="m 14.1445,352.152 c 0,37.239 60.3828,67.438 134.8755,67.438 35.765,0 70.078,-7.113 95.371,-19.75 25.285,-12.656 39.5,-29.805 39.5,-47.688 v -44.949 c 0,-37.258 -60.379,-67.441 -134.871,-67.441 -74.4927,0 -134.8755,30.183 -134.8755,67.441 v 44.949"
         style="fill:#c9e4f3;fill-opacity:1;fill-rule:nonzero;stroke:none"
         id="path38" /><path
         d="m 14.1445,352.152 c 0,37.239 60.3828,67.438 134.8755,67.438 35.765,0 70.078,-7.113 95.371,-19.75 25.285,-12.656 39.5,-29.805 39.5,-47.688 v -44.949 c 0,-37.258 -60.379,-67.441 -134.871,-67.441 -74.4927,0 -134.8755,30.183 -134.8755,67.441 z"
         style="fill:none;stroke:#293985;stroke-width:5.0003;stroke-linecap:butt;stroke-linejoin:miter;stroke-miterlimit:10;stroke-dasharray:none;stroke-opacity:1"
         id="path40" /><path
         d="m 283.891,352.152 c 0,-37.234 -60.379,-67.441 -134.871,-67.441 -74.4927,0 -134.8755,30.207 -134.8755,67.441 H 283.891"
         style="fill:#c9e4f3;fill-opacity:1;fill-rule:nonzero;stroke:none"
         id="path42" /><path
         d="m 283.891,352.152 c 0,-37.234 -60.379,-67.441 -134.871,-67.441 -74.4927,0 -134.8755,30.207 -134.8755,67.441"
         style="fill:none;stroke:#293985;stroke-width:5.0003;stroke-linecap:butt;stroke-linejoin:miter;stroke-miterlimit:10;stroke-dasharray:none;stroke-opacity:1"
         id="path44" /><path
         d="m 2542.59,352.152 c 0,37.239 60.38,67.438 134.87,67.438 35.78,0 70.08,-7.113 95.38,-19.75 25.29,-12.656 39.5,-29.805 39.5,-47.688 V 172.328 c 0,-37.254 -60.38,-67.441 -134.88,-67.441 -74.49,0 -134.87,30.187 -134.87,67.441 v 179.824"
         style="fill:#c9e4f3;fill-opacity:1;fill-rule:nonzero;stroke:none"
         id="path46" /><path
         d="m 2542.59,352.152 c 0,37.239 60.38,67.438 134.87,67.438 35.78,0 70.08,-7.113 95.38,-19.75 25.29,-12.656 39.5,-29.805 39.5,-47.688 V 172.328 c 0,-37.254 -60.38,-67.441 -134.88,-67.441 -74.49,0 -134.87,30.187 -134.87,67.441 z"
         style="fill:none;stroke:#293985;stroke-width:5.0003;stroke-linecap:butt;stroke-linejoin:miter;stroke-miterlimit:10;stroke-dasharray:none;stroke-opacity:1"
         id="path48" /><path
         d="m 2812.34,352.152 c 0,-37.234 -60.38,-67.441 -134.88,-67.441 -74.49,0 -134.87,30.207 -134.87,67.441 h 269.75"
         style="fill:#c9e4f3;fill-opacity:1;fill-rule:nonzero;stroke:none"
         id="path50" /><path
         d="m 2812.34,352.152 c 0,-37.234 -60.38,-67.441 -134.88,-67.441 -74.49,0 -134.87,30.207 -134.87,67.441"
         style="fill:none;stroke:#293985;stroke-width:5.0003;stroke-linecap:butt;stroke-linejoin:miter;stroke-miterlimit:10;stroke-dasharray:none;stroke-opacity:1"
         id="path52" /><path
         d="m 2542.59,352.152 c 0,37.239 60.38,67.438 134.87,67.438 35.78,0 70.08,-7.113 95.38,-19.75 25.29,-12.656 39.5,-29.805 39.5,-47.688 V 217.281 c 0,-37.238 -60.38,-67.441 -134.88,-67.441 -74.49,0 -134.87,30.203 -134.87,67.441 v 134.871"
         style="fill:#c9e4f3;fill-opacity:1;fill-rule:nonzero;stroke:none"
         id="path54" /><path
         d="m 2542.59,352.152 c 0,37.239 60.38,67.438 134.87,67.438 35.78,0 70.08,-7.113 95.38,-19.75 25.29,-12.656 39.5,-29.805 39.5,-47.688 V 217.281 c 0,-37.238 -60.38,-67.441 -134.88,-67.441 -74.49,0 -134.87,30.203 -134.87,67.441 z"
         style="fill:none;stroke:#293985;stroke-width:5.0003;stroke-linecap:butt;stroke-linejoin:miter;stroke-miterlimit:10;stroke-dasharray:none;stroke-opacity:1"
         id="path56" /><path
         d="m 2812.34,352.152 c 0,-37.234 -60.38,-67.441 -134.88,-67.441 -74.49,0 -134.87,30.207 -134.87,67.441 h 269.75"
         style="fill:#c9e4f3;fill-opacity:1;fill-rule:nonzero;stroke:none"
         id="path58" /><path
         d="m 2812.34,352.152 c 0,-37.234 -60.38,-67.441 -134.88,-67.441 -74.49,0 -134.87,30.207 -134.87,67.441"
         style="fill:none;stroke:#293985;stroke-width:5.0003;stroke-linecap:butt;stroke-linejoin:miter;stroke-miterlimit:10;stroke-dasharray:none;stroke-opacity:1"
         id="path60" /><path
         d="m 2542.59,352.152 c 0,37.239 60.38,67.438 134.87,67.438 35.78,0 70.08,-7.113 95.38,-19.75 25.29,-12.656 39.5,-29.805 39.5,-47.688 V 262.23 c 0,-37.234 -60.38,-67.441 -134.88,-67.441 -74.49,0 -134.87,30.207 -134.87,67.441 v 89.922"
         style="fill:#c9e4f3;fill-opacity:1;fill-rule:nonzero;stroke:none"
         id="path62" /><path
         d="m 2542.59,352.152 c 0,37.239 60.38,67.438 134.87,67.438 35.78,0 70.08,-7.113 95.38,-19.75 25.29,-12.656 39.5,-29.805 39.5,-47.688 V 262.23 c 0,-37.234 -60.38,-67.441 -134.88,-67.441 -74.49,0 -134.87,30.207 -134.87,67.441 z"
         style="fill:none;stroke:#293985;stroke-width:5.0003;stroke-linecap:butt;stroke-linejoin:miter;stroke-miterlimit:10;stroke-dasharray:none;stroke-opacity:1"
         id="path64" /><path
         d="m 2812.34,352.152 c 0,-37.234 -60.38,-67.441 -134.88,-67.441 -74.49,0 -134.87,30.207 -134.87,67.441 h 269.75"
         style="fill:#c9e4f3;fill-opacity:1;fill-rule:nonzero;stroke:none"
         id="path66" /><path
         d="m 2812.34,352.152 c 0,-37.234 -60.38,-67.441 -134.88,-67.441 -74.49,0 -134.87,30.207 -134.87,67.441"
         style="fill:none;stroke:#293985;stroke-width:5.0003;stroke-linecap:butt;stroke-linejoin:miter;stroke-miterlimit:10;stroke-dasharray:none;stroke-opacity:1"
         id="path68" /><path
         d="m 2542.59,352.152 c 0,37.239 60.38,67.438 134.87,67.438 35.78,0 70.08,-7.113 95.38,-19.75 25.29,-12.656 39.5,-29.805 39.5,-47.688 v -44.949 c 0,-37.258 -60.38,-67.441 -134.88,-67.441 -74.49,0 -134.87,30.183 -134.87,67.441 v 44.949"
         style="fill:#c9e4f3;fill-opacity:1;fill-rule:nonzero;stroke:none"
         id="path70" /><path
         d="m 2542.59,352.152 c 0,37.239 60.38,67.438 134.87,67.438 35.78,0 70.08,-7.113 95.38,-19.75 25.29,-12.656 39.5,-29.805 39.5,-47.688 v -44.949 c 0,-37.258 -60.38,-67.441 -134.88,-67.441 -74.49,0 -134.87,30.183 -134.87,67.441 z"
         style="fill:none;stroke:#293985;stroke-width:5.0003;stroke-linecap:butt;stroke-linejoin:miter;stroke-miterlimit:10;stroke-dasharray:none;stroke-opacity:1"
         id="path72" /><path
         d="m 2812.34,352.152 c 0,-37.234 -60.38,-67.441 -134.88,-67.441 -74.49,0 -134.87,30.207 -134.87,67.441 h 269.75"
         style="fill:#c9e4f3;fill-opacity:1;fill-rule:nonzero;stroke:none"
         id="path74" /><path
         d="m 2812.34,352.152 c 0,-37.234 -60.38,-67.441 -134.88,-67.441 -74.49,0 -134.87,30.207 -134.87,67.441"
         style="fill:none;stroke:#293985;stroke-width:5.0003;stroke-linecap:butt;stroke-linejoin:miter;stroke-miterlimit:10;stroke-dasharray:none;stroke-opacity:1"
         id="path76" /><path
         d="M 879.156,262.23 H 1059.64"
         style="fill:none;stroke:#100f0d;stroke-width:5.0003;stroke-linecap:butt;stroke-linejoin:miter;stroke-miterlimit:10;stroke-dasharray:none;stroke-opacity:1"
         id="path78" /><path
         d="m 1049.73,247.711 54.2,14.519 -54.2,14.532 z"
         style="fill:#100f0d;fill-opacity:1;fill-rule:nonzero;stroke:none"
         id="path80" /><path
         d="m 582.879,327.867 h 232.887 c 35.011,0 63.39,-28.379 63.39,-63.39 v -8.106 c 0,-35 -28.379,-63.379 -63.39,-63.379 H 582.879 c -35.004,0 -63.383,28.379 -63.383,63.379 v 8.106 c 0,35.011 28.379,63.39 63.383,63.39"
         style="fill:#fcfccf;fill-opacity:1;fill-rule:nonzero;stroke:none"
         id="path82" /><path
         d="m 582.879,327.867 h 232.887 c 35.011,0 63.39,-28.379 63.39,-63.39 v -8.106 c 0,-35 -28.379,-63.379 -63.39,-63.379 H 582.879 c -35.004,0 -63.383,28.379 -63.383,63.379 v 8.106 c 0,35.011 28.379,63.39 63.383,63.39 z"
         style="fill:none;stroke:#c49d19;stroke-width:5.0003;stroke-linecap:butt;stroke-linejoin:miter;stroke-miterlimit:4;stroke-dasharray:none;stroke-opacity:1"
         id="path84" /><g
         id="g86"
         transform="scale(10)"><text
           transform="matrix(1,0,0,-1,54.3672,24.1762)"
           style="font-variant:normal;font-weight:normal;font-size:6.99976px;font-family:Arial;-inkscape-font-specification:ArialMT;writing-mode:lr-tb;fill:#100f0d;fill-opacity:1;fill-rule:nonzero;stroke:none"
           id="text90"><tspan
             x="0 1.9459332 3.8918664 7.7837329 10.114654 14.006519 15.952453 17.506399 21.398266 25.290133 27.236067"
             y="0"
             sodipodi:role="line"
             id="tspan88">Iteration 1</tspan></text></g><path
         d="m 1611.53,327.867 h 243.66 c 32.03,0 58,-25.969 58,-58 v -18.875 c 0,-32.031 -25.97,-58 -58,-58 h -243.66 c -32.03,0 -58,25.969 -58,58 v 18.875 c 0,32.031 25.97,58 58,58"
         style="fill:#fcfccf;fill-opacity:1;fill-rule:nonzero;stroke:none"
         id="path92" /><path
         d="m 1611.53,327.867 h 243.66 c 32.03,0 58,-25.969 58,-58 v -18.875 c 0,-32.031 -25.97,-58 -58,-58 h -243.66 c -32.03,0 -58,25.969 -58,58 v 18.875 c 0,32.031 25.97,58 58,58 z"
         style="fill:none;stroke:#c49d19;stroke-width:5.0003;stroke-linecap:butt;stroke-linejoin:miter;stroke-miterlimit:4;stroke-dasharray:none;stroke-opacity:1"
         id="path94" /><g
         id="g96"
         transform="scale(10)"><text
           transform="matrix(1,0,0,-1,157.77,24.1762)"
           style="font-variant:normal;font-weight:normal;font-size:6.99976px;font-family:Arial;-inkscape-font-specification:ArialMT;writing-mode:lr-tb;fill:#100f0d;fill-opacity:1;fill-rule:nonzero;stroke:none"
           id="text100"><tspan
             x="0 1.9459332 3.8918664 7.7837329 10.114654 14.006519 15.952453 17.506399 21.398266 25.290133 27.236067"
             y="0"
             sodipodi:role="line"
             id="tspan98">Iteration 2</tspan></text></g><path
         d="m 1373.69,262.23 h 135.54"
         style="fill:none;stroke:#100f0d;stroke-width:5.0003;stroke-linecap:butt;stroke-linejoin:miter;stroke-miterlimit:10;stroke-dasharray:none;stroke-opacity:1"
         id="path102" /><path
         d="m 1499.32,247.711 54.21,14.519 -54.21,14.532 z"
         style="fill:#100f0d;fill-opacity:1;fill-rule:nonzero;stroke:none"
         id="path104" /><path
         d="M 283.891,262.23 H 475.199"
         style="fill:none;stroke:#100f0d;stroke-width:5.0003;stroke-linecap:butt;stroke-linejoin:miter;stroke-miterlimit:10;stroke-dasharray:none;stroke-opacity:1"
         id="path106" /><path
         d="m 465.293,247.711 54.203,14.519 -54.203,14.532 z"
         style="fill:#100f0d;fill-opacity:1;fill-rule:nonzero;stroke:none"
         id="path108" /><g
         id="g110"
         transform="scale(10)"><text
           transform="matrix(1,0,0,-1,0.119141,0.824609)"
           style="font-variant:normal;font-weight:normal;font-size:6.99976px;font-family:Arial;-inkscape-font-specification:ArialMT;writing-mode:lr-tb;fill:#100f0d;fill-opacity:1;fill-rule:nonzero;stroke:none"
           id="text114"><tspan
             x="0 5.0538268 6.6077733 10.107654 13.607533 15.553467 17.884386 21.776253 25.668119 252.46034 257.51416 259.06812 262.56799 266.06787 268.01382 273.06763 275.39856 276.95251 278.89844"
             y="0"
             sodipodi:role="line"
             id="tspan112">Disk readDisk write</tspan></text></g><path
         d="M 1103.93,194.789 H 1373.7 V 329.672 H 1103.93 V 194.789"
         style="fill:#f4f6f7;fill-opacity:1;fill-rule:nonzero;stroke:none"
         id="path116" /><path
         d="M 1103.93,194.789 H 1373.7 V 329.672 H 1103.93 Z"
         style="fill:none;stroke:#5e6061;stroke-width:5.0003;stroke-linecap:butt;stroke-linejoin:miter;stroke-miterlimit:10;stroke-dasharray:none;stroke-opacity:1"
         id="path118" /><path
         d="m 2093.01,194.789 h 269.76 V 329.672 H 2093.01 V 194.789"
         style="fill:#f4f6f7;fill-opacity:1;fill-rule:nonzero;stroke:none"
         id="path120" /><path
         d="m 2093.01,194.789 h 269.76 v 134.883 h -269.76 z"
         style="fill:none;stroke:#5e6061;stroke-width:5.0003;stroke-linecap:butt;stroke-linejoin:miter;stroke-miterlimit:10;stroke-dasharray:none;stroke-opacity:1"
         id="path122" /><g
         id="g124"
         transform="scale(10)"><text
           transform="matrix(1,0,0,-1,111.241,6.89492)"
           style="font-variant:normal;font-weight:normal;font-size:6.99976px;font-family:Arial;-inkscape-font-specification:ArialMT;writing-mode:lr-tb;fill:#100f0d;fill-opacity:1;fill-rule:nonzero;stroke:none"
           id="text128"><tspan
             x="0 5.8308001 9.7226667 15.553467 19.445333 21.776253 98.91571 104.74651 108.63837 114.46918 118.36104 120.69196"
             y="0"
             sodipodi:role="line"
             id="tspan126">MemoryMemory</tspan></text></g><path
         d="m 1306.25,284.711 c 12.41,0 22.47,-10.066 22.47,-22.481 0,-12.41 -10.06,-22.48 -22.47,-22.48 -12.42,0 -22.48,10.07 -22.48,22.48 0,12.415 10.06,22.481 22.48,22.481"
         style="fill:#f792a4;fill-opacity:1;fill-rule:nonzero;stroke:none"
         id="path130" /><path
         d="m 1306.25,284.711 c 12.41,0 22.47,-10.066 22.47,-22.481 0,-12.41 -10.06,-22.48 -22.47,-22.48 -12.42,0 -22.48,10.07 -22.48,22.48 0,12.415 10.06,22.481 22.48,22.481 z"
         style="fill:none;stroke:#b74248;stroke-width:5.0003;stroke-linecap:butt;stroke-linejoin:miter;stroke-miterlimit:10;stroke-dasharray:none;stroke-opacity:1"
         id="path132" /><path
         d="m 2295.33,284.711 c 12.41,0 22.48,-10.066 22.48,-22.481 0,-12.41 -10.07,-22.48 -22.48,-22.48 -12.42,0 -22.48,10.07 -22.48,22.48 0,12.415 10.06,22.481 22.48,22.481"
         style="fill:#f792a4;fill-opacity:1;fill-rule:nonzero;stroke:none"
         id="path134" /><path
         d="m 2295.33,284.711 c 12.41,0 22.48,-10.066 22.48,-22.481 0,-12.41 -10.07,-22.48 -22.48,-22.48 -12.42,0 -22.48,10.07 -22.48,22.48 0,12.415 10.06,22.481 22.48,22.481 z"
         style="fill:none;stroke:#b74248;stroke-width:5.0003;stroke-linecap:butt;stroke-linejoin:miter;stroke-miterlimit:10;stroke-dasharray:none;stroke-opacity:1"
         id="path136" /></g></g></svg>
