<?xml version="1.0" encoding="UTF-8" standalone="no"?>
<!-- Created with Inkscape (http://www.inkscape.org/) -->

<svg
   version="1.1"
   id="svg2"
   xml:space="preserve"
   width="394.66666"
   height="218.66667"
   viewBox="0 0 394.66666 218.66667"
   sodipodi:docname="8-18.eps"
   xmlns:inkscape="http://www.inkscape.org/namespaces/inkscape"
   xmlns:sodipodi="http://sodipodi.sourceforge.net/DTD/sodipodi-0.dtd"
   xmlns="http://www.w3.org/2000/svg"
   xmlns:svg="http://www.w3.org/2000/svg"><defs
     id="defs6" /><sodipodi:namedview
     id="namedview4"
     pagecolor="#ffffff"
     bordercolor="#666666"
     borderopacity="1.0"
     inkscape:pageshadow="2"
     inkscape:pageopacity="0.0"
     inkscape:pagecheckerboard="0" /><g
     id="g8"
     inkscape:groupmode="layer"
     inkscape:label="ink_ext_XXXXXX"
     transform="matrix(1.3333333,0,0,-1.3333333,0,218.66667)"><g
       id="g10"
       transform="scale(0.1)"><path
         d="m 2010.11,8.81641 h 932.21 V 616.785 H 2010.11 V 8.81641"
         style="fill:#ffffff;fill-opacity:1;fill-rule:nonzero;stroke:none"
         id="path12" /><path
         d="m 2010.11,8.81641 h 932.21 V 616.785 h -932.21 z"
         style="fill:none;stroke:#100f0d;stroke-width:5.0003;stroke-linecap:butt;stroke-linejoin:miter;stroke-miterlimit:4;stroke-dasharray:none;stroke-opacity:1"
         id="path14" /><path
         d="m 2015.94,1022.11 h 932.22 v 607.98 h -932.22 v -607.98"
         style="fill:#c9e4f3;fill-opacity:1;fill-rule:nonzero;stroke:none"
         id="path16" /><path
         d="m 2015.94,1022.11 h 932.22 v 607.98 h -932.22 z"
         style="fill:none;stroke:#293985;stroke-width:5.0003;stroke-linecap:butt;stroke-linejoin:miter;stroke-miterlimit:10;stroke-dasharray:none;stroke-opacity:1"
         id="path18" /><path
         d="m 1031.53,697.695 h 567.44 V 940.879 H 1031.53 V 697.695"
         style="fill:#fcfccf;fill-opacity:1;fill-rule:nonzero;stroke:none"
         id="path20" /><path
         d="m 1031.53,697.695 h 567.44 v 243.184 h -567.44 z"
         style="fill:none;stroke:#c49d19;stroke-width:5.0003;stroke-linecap:butt;stroke-linejoin:miter;stroke-miterlimit:4;stroke-dasharray:none;stroke-opacity:1"
         id="path22" /><g
         id="g24"
         transform="scale(10)"><text
           transform="matrix(1,0,0,-1,105.604,80.0617)"
           style="font-variant:normal;font-weight:normal;font-size:6.99976px;font-family:Arial;-inkscape-font-specification:ArialMT;writing-mode:lr-tb;fill:#100f0d;fill-opacity:1;fill-rule:nonzero;stroke:none"
           id="text28"><tspan
             x="0 5.0538268 6.6077733 10.49964 13.99952 15.945454 19.83732 22.16824 24.114174 29.944973 33.836842 37.728706 41.620571 45.51244 49.404305"
             y="0"
             sodipodi:role="line"
             id="tspan26">Cluster manager</tspan></text></g><path
         d="M 4.59375,333.066 H 672.566 V 1305.83 H 4.59375 V 333.066"
         style="fill:#c9e4f3;fill-opacity:1;fill-rule:nonzero;stroke:none"
         id="path30" /><path
         d="M 4.59375,333.066 H 672.566 V 1305.83 H 4.59375 Z"
         style="fill:none;stroke:#293985;stroke-width:5.0003;stroke-linecap:butt;stroke-linejoin:miter;stroke-miterlimit:10;stroke-dasharray:none;stroke-opacity:1"
         id="path32" /><path
         d="M 65.3906,373.598 H 611.773 V 941.039 H 65.3906 V 373.598"
         style="fill:#f4f6f7;fill-opacity:1;fill-rule:nonzero;stroke:none"
         id="path34" /><path
         d="M 65.3906,373.598 H 611.773 V 941.039 H 65.3906 Z"
         style="fill:none;stroke:#5e6061;stroke-width:5.0003;stroke-linecap:butt;stroke-linejoin:miter;stroke-miterlimit:10;stroke-dasharray:none;stroke-opacity:1"
         id="path36" /><path
         d="M 87.6992,413.965 H 589.457 V 638.016 H 87.6992 V 413.965"
         style="fill:#f792a4;fill-opacity:1;fill-rule:nonzero;stroke:none"
         id="path38" /><path
         d="M 87.6992,413.965 H 589.457 V 638.016 H 87.6992 Z"
         style="fill:none;stroke:#b74248;stroke-width:5.0003;stroke-linecap:butt;stroke-linejoin:miter;stroke-miterlimit:10;stroke-dasharray:none;stroke-opacity:1"
         id="path40" /><g
         id="g42"
         transform="scale(10)"><text
           transform="matrix(1,0,0,-1,12.4582,50.7316)"
           style="font-variant:normal;font-weight:normal;font-size:6.99976px;font-family:Arial;-inkscape-font-specification:ArialMT;writing-mode:lr-tb;fill:#100f0d;fill-opacity:1;fill-rule:nonzero;stroke:none"
           id="text50"><tspan
             x="0 4.6688399 8.5607061 12.452573 14.783493 18.283373 20.229307 23.729187 27.621054 31.51292 33.458855 37.350719 40.850601"
             y="0"
             sodipodi:role="line"
             id="tspan44">Spark context</tspan><tspan
             x="1.9449199 7.7757201 11.667586 15.167466 17.1134 21.005266 23.336187 25.28212 29.173986 33.065853 36.957718"
             y="-70.201202"
             sodipodi:role="line"
             id="tspan46">Master node</tspan><tspan
             x="-1.93828 3.1155467 5.4464669 7.0004134 10.500294 14.39216 16.72308 18.669014 22.560881 24.8918 28.783667 32.675533 35.006454 38.898319"
             y="-33.723499"
             sodipodi:role="line"
             id="tspan48">Driver program</tspan></text></g><path
         d="M 2050.64,49.3555 H 2901.8 V 373.605 H 2050.64 V 49.3555"
         style="fill:#f4f6f7;fill-opacity:1;fill-rule:nonzero;stroke:none"
         id="path52" /><path
         d="M 2050.64,49.3555 H 2901.8 V 373.605 h -851.16 z"
         style="fill:none;stroke:#5e6061;stroke-width:5.0003;stroke-linecap:butt;stroke-linejoin:miter;stroke-miterlimit:10;stroke-dasharray:none;stroke-opacity:1"
         id="path54" /><path
         d="m 2056.47,1062.65 h 851.16 v 324.25 h -851.16 v -324.25"
         style="fill:#f4f6f7;fill-opacity:1;fill-rule:nonzero;stroke:none"
         id="path56" /><path
         d="m 2056.47,1062.65 h 851.16 v 324.25 h -851.16 z"
         style="fill:none;stroke:#5e6061;stroke-width:5.0003;stroke-linecap:butt;stroke-linejoin:miter;stroke-miterlimit:10;stroke-dasharray:none;stroke-opacity:1"
         id="path58" /><path
         d="m 2086.18,1103 h 324.27 v 162.14 H 2086.18 V 1103"
         style="fill:#ac7ac4;fill-opacity:1;fill-rule:nonzero;stroke:none"
         id="path60" /><path
         d="m 2086.18,1103 h 324.27 v 162.14 h -324.27 z"
         style="fill:none;stroke:#9363ab;stroke-width:5.0003;stroke-linecap:butt;stroke-linejoin:miter;stroke-miterlimit:10;stroke-dasharray:none;stroke-opacity:1"
         id="path62" /><g
         id="g64"
         transform="scale(10)"><text
           transform="matrix(1,0,0,-1,217.634,116.54)"
           style="font-variant:normal;font-weight:normal;font-size:6.99976px;font-family:Arial;-inkscape-font-specification:ArialMT;writing-mode:lr-tb;fill:#100f0d;fill-opacity:1;fill-rule:nonzero;stroke:none"
           id="text68"><tspan
             x="0 3.499999 7.3918657 10.891746"
             y="0"
             sodipodi:role="line"
             id="tspan66">Task</tspan></text></g><path
         d="m 2086.18,130.406 h 324.27 V 292.535 H 2086.18 V 130.406"
         style="fill:#ac7ac4;fill-opacity:1;fill-rule:nonzero;stroke:none"
         id="path70" /><path
         d="m 2086.18,130.406 h 324.27 v 162.129 h -324.27 z"
         style="fill:none;stroke:#9363ab;stroke-width:5.0003;stroke-linecap:butt;stroke-linejoin:miter;stroke-miterlimit:10;stroke-dasharray:none;stroke-opacity:1"
         id="path72" /><g
         id="g74"
         transform="scale(10)"><text
           transform="matrix(1,0,0,-1,217.634,19.2797)"
           style="font-variant:normal;font-weight:normal;font-size:6.99976px;font-family:Arial;-inkscape-font-specification:ArialMT;writing-mode:lr-tb;fill:#100f0d;fill-opacity:1;fill-rule:nonzero;stroke:none"
           id="text78"><tspan
             x="0 3.499999 7.3918657 10.891746"
             y="0"
             sodipodi:role="line"
             id="tspan76">Task</tspan></text></g><path
         d="m 2560.95,1265.29 h 275.62 c 13.42,0 24.31,-10.89 24.31,-24.33 v -113.49 c 0,-13.42 -10.89,-24.31 -24.31,-24.31 h -275.62 c -13.43,0 -24.32,10.89 -24.32,24.31 v 113.49 c 0,13.44 10.89,24.33 24.32,24.33"
         style="fill:#e0f2c3;fill-opacity:1;fill-rule:nonzero;stroke:none"
         id="path80" /><path
         d="m 2560.95,1265.29 h 275.62 c 13.42,0 24.31,-10.89 24.31,-24.33 v -113.49 c 0,-13.42 -10.89,-24.31 -24.31,-24.31 h -275.62 c -13.43,0 -24.32,10.89 -24.32,24.31 v 113.49 c 0,13.44 10.89,24.33 24.32,24.33 z"
         style="fill:none;stroke:#298a3c;stroke-width:5.0003;stroke-linecap:butt;stroke-linejoin:miter;stroke-miterlimit:4;stroke-dasharray:none;stroke-opacity:1"
         id="path82" /><g
         id="g84"
         transform="scale(10)"><text
           transform="matrix(1,0,0,-1,259.757,116.555)"
           style="font-variant:normal;font-weight:normal;font-size:6.99976px;font-family:Arial;-inkscape-font-specification:ArialMT;writing-mode:lr-tb;fill:#100f0d;fill-opacity:1;fill-rule:nonzero;stroke:none"
           id="text88"><tspan
             x="0 5.0538268 8.945693 12.445573 16.33744"
             y="0"
             sodipodi:role="line"
             id="tspan86">Cache</tspan></text></g><path
         d="m 2560.95,292.535 h 275.62 c 13.42,0 24.31,-10.89 24.31,-24.308 v -113.5 c 0,-13.442 -10.89,-24.321 -24.31,-24.321 h -275.62 c -13.43,0 -24.32,10.879 -24.32,24.321 v 113.5 c 0,13.418 10.89,24.308 24.32,24.308"
         style="fill:#e0f2c3;fill-opacity:1;fill-rule:nonzero;stroke:none"
         id="path90" /><path
         d="m 2560.95,292.535 h 275.62 c 13.42,0 24.31,-10.89 24.31,-24.308 v -113.5 c 0,-13.442 -10.89,-24.321 -24.31,-24.321 h -275.62 c -13.43,0 -24.32,10.879 -24.32,24.321 v 113.5 c 0,13.418 10.89,24.308 24.32,24.308 z"
         style="fill:none;stroke:#298a3c;stroke-width:5.0003;stroke-linecap:butt;stroke-linejoin:miter;stroke-miterlimit:4;stroke-dasharray:none;stroke-opacity:1"
         id="path92" /><g
         id="g94"
         transform="scale(10)"><text
           transform="matrix(1,0,0,-1,259.757,19.2797)"
           style="font-variant:normal;font-weight:normal;font-size:6.99976px;font-family:Arial;-inkscape-font-specification:ArialMT;writing-mode:lr-tb;fill:#100f0d;fill-opacity:1;fill-rule:nonzero;stroke:none"
           id="text102"><tspan
             x="0 5.0538268 8.945693 12.445573 16.33744"
             y="0"
             sodipodi:role="line"
             id="tspan96">Cache</tspan><tspan
             x="-51.171902 -44.691032 -40.799164 -38.468243 -34.968365 -31.076498 -28.745577 -26.799644 -22.907778 -19.015911 -15.124044 -11.232178 -9.2862444 -6.9553246 -3.0634582 0.4364219 4.3282886 7.8281684 11.720035 13.665968 17.557835 19.888756 21.834688 25.726555"
             y="-134.07899"
             sodipodi:role="line"
             id="tspan98">Worker node (executor 1)</tspan><tspan
             x="-51.755882 -45.275013 -41.383148 -39.052227 -35.552349 -31.660482 -29.329561 -27.383629 -23.491762 -19.599895 -15.708029 -11.816162 -9.8702288 -7.5393085 -3.6474421 -0.14756209 3.7443044 7.2441845 11.136051 13.081985 16.97385 19.304771 21.250704 25.14257"
             y="-32.749001"
             sodipodi:role="line"
             id="tspan100">Worker node (executor 2)</tspan></text></g><path
         d="M 1598.97,763.973 2017.13,402.566"
         style="fill:none;stroke:#100f0d;stroke-width:5.0003;stroke-linecap:butt;stroke-linejoin:miter;stroke-miterlimit:10;stroke-dasharray:none;stroke-opacity:1"
         id="path104" /><path
         d="m 2000.14,398.055 50.5,-24.45 -31.51,46.43 z"
         style="fill:#100f0d;fill-opacity:1;fill-rule:nonzero;stroke:none"
         id="path106" /><path
         d="m 1601.68,866.336 444.71,217.214"
         style="fill:none;stroke:#100f0d;stroke-width:5.0003;stroke-linecap:butt;stroke-linejoin:miter;stroke-miterlimit:10;stroke-dasharray:none;stroke-opacity:1"
         id="path108" /><path
         d="m 2043.86,1066.16 42.32,36.84 -55.07,-10.73 z"
         style="fill:#100f0d;fill-opacity:1;fill-rule:nonzero;stroke:none"
         id="path110" /><path
         d="M 672.566,819.449 H 987.23"
         style="fill:none;stroke:#100f0d;stroke-width:5.0003;stroke-linecap:butt;stroke-linejoin:miter;stroke-miterlimit:10;stroke-dasharray:none;stroke-opacity:1"
         id="path112" /><path
         d="m 977.324,804.922 54.206,14.527 -54.206,14.524 z"
         style="fill:#100f0d;fill-opacity:1;fill-rule:nonzero;stroke:none"
         id="path114" /></g></g></svg>
