<?xml version="1.0" encoding="UTF-8" standalone="no"?>
<svg
   xmlns:dc="http://purl.org/dc/elements/1.1/"
   xmlns:cc="http://creativecommons.org/ns#"
   xmlns:rdf="http://www.w3.org/1999/02/22-rdf-syntax-ns#"
   xmlns:svg="http://www.w3.org/2000/svg"
   xmlns="http://www.w3.org/2000/svg"
   xmlns:sodipodi="http://sodipodi.sourceforge.net/DTD/sodipodi-0.dtd"
   xmlns:inkscape="http://www.inkscape.org/namespaces/inkscape"
   version="1.1"
   id="svg2"
   xml:space="preserve"
   width="337.33334"
   height="160"
   viewBox="0 0 337.33334 160"
   sodipodi:docname="8-9.eps"><metadata
     id="metadata8"><rdf:RDF><cc:Work
         rdf:about=""><dc:format>image/svg+xml</dc:format><dc:type
           rdf:resource="http://purl.org/dc/dcmitype/StillImage" /></cc:Work></rdf:RDF></metadata><defs
     id="defs6" /><sodipodi:namedview
     pagecolor="#ffffff"
     bordercolor="#666666"
     borderopacity="1"
     objecttolerance="10"
     gridtolerance="10"
     guidetolerance="10"
     inkscape:pageopacity="0"
     inkscape:pageshadow="2"
     inkscape:window-width="640"
     inkscape:window-height="480"
     id="namedview4" /><g
     id="g10"
     inkscape:groupmode="layer"
     inkscape:label="ink_ext_XXXXXX"
     transform="matrix(1.3333333,0,0,-1.3333333,0,160)"><g
       id="g12"
       transform="scale(0.1)"><path
         d="m 187.02,1194.11 h 2158.71 c 98.4,0 178.15,-79.88 178.15,-178.41 V 183.184 C 2523.88,84.6641 2444.13,4.79297 2345.73,4.79297 H 187.02 C 88.6367,4.79297 8.87891,84.6641 8.87891,183.184 V 1015.7 c 0,98.53 79.75779,178.41 178.14109,178.41"
         style="fill:#f4f6f7;fill-opacity:1;fill-rule:nonzero;stroke:none"
         id="path14" /><path
         d="m 187.02,1194.11 h 2158.71 c 98.4,0 178.15,-79.88 178.15,-178.41 V 183.184 C 2523.88,84.6641 2444.13,4.79297 2345.73,4.79297 H 187.02 C 88.6367,4.79297 8.87891,84.6641 8.87891,183.184 V 1015.7 c 0,98.53 79.75779,178.41 178.14109,178.41 z"
         style="fill:none;stroke:#5e6061;stroke-width:4.9691;stroke-linecap:butt;stroke-linejoin:miter;stroke-miterlimit:10;stroke-dasharray:none;stroke-opacity:1"
         id="path16" /><path
         d="m 230.004,871.512 h 853.856 c 64.3,0 116.43,-52.203 116.43,-116.598 V 210.781 c 0,-64.386 -52.13,-116.5974 -116.43,-116.5974 H 230.004 c -64.309,0 -116.438,52.2114 -116.438,116.5974 v 544.133 c 0,64.395 52.129,116.598 116.438,116.598"
         style="fill:#e0f2c3;fill-opacity:1;fill-rule:nonzero;stroke:none"
         id="path18" /><path
         d="m 230.004,871.512 h 853.856 c 64.3,0 116.43,-52.203 116.43,-116.598 V 210.781 c 0,-64.386 -52.13,-116.5974 -116.43,-116.5974 H 230.004 c -64.309,0 -116.438,52.2114 -116.438,116.5974 v 544.133 c 0,64.395 52.129,116.598 116.438,116.598 z"
         style="fill:none;stroke:#298a3c;stroke-width:4.9691;stroke-linecap:butt;stroke-linejoin:miter;stroke-miterlimit:4;stroke-dasharray:none;stroke-opacity:1"
         id="path20" /><g
         id="g22"
         transform="scale(10)"><text
           transform="matrix(0.998624,0,0,-1,25.4699,67.3496)"
           style="font-variant:normal;font-weight:bold;font-size:7.99981px;font-family:'Courier New';-inkscape-font-specification:Courier-Bold;writing-mode:lr-tb;fill:#100f0d;fill-opacity:1;fill-rule:nonzero;stroke:none"
           id="text26"><tspan
             x="0 4.7998862 9.5997725 14.399658 19.199545 23.99943 28.799316 33.599201 38.39909 43.198975 47.998859 52.798744 57.598633 62.398518 67.198402 71.998291 76.79818"
             y="0"
             sodipodi:role="line"
             id="tspan24">users_part_1.avro</tspan></text><text
           transform="matrix(0.998624,0,0,-1,24.95154,48.5894)"
           style="font-variant:normal;font-weight:normal;font-size:7.99981px;font-family:'Courier New';-inkscape-font-specification:Courier;writing-mode:lr-tb;fill:#100f0d;fill-opacity:1;fill-rule:nonzero;stroke:none"
           id="text30"><tspan
             x="0 4.7998862 9.5997725 14.399658 19.199545 23.99943 28.799316 33.599201 38.39909"
             y="0"
             sodipodi:role="line"
             id="tspan28">user_id_1</tspan></text><text
           transform="matrix(0.998624,0,0,-1,68.0902,48.5891)"
           style="font-variant:normal;font-weight:normal;font-size:6.99976px;font-family:Arial;-inkscape-font-specification:ArialMT;writing-mode:lr-tb;fill:#100f0d;fill-opacity:1;fill-rule:nonzero;stroke:none"
           id="text34"><tspan
             x="0 3.7633789 7.263504 11.155371 16.98617 18.932104 20.878036 24.769903"
             y="0"
             sodipodi:role="line"
             id="tspan32">,Tom, 30</tspan></text><text
           transform="matrix(0.998624,0,0,-1,24.9516,38.9895)"
           style="font-variant:normal;font-weight:normal;font-size:7.99981px;font-family:'Courier New';-inkscape-font-specification:Courier;writing-mode:lr-tb;fill:#100f0d;fill-opacity:1;fill-rule:nonzero;stroke:none"
           id="text38"><tspan
             x="0 4.7998862 9.5997725 14.399658 19.199545 23.99943 28.799316 33.599201 38.39909"
             y="0"
             sodipodi:role="line"
             id="tspan36">user_id_2</tspan></text><text
           transform="matrix(0.998624,0,0,-1,68.0902,38.9895)"
           style="font-variant:normal;font-weight:normal;font-size:6.99976px;font-family:Arial;-inkscape-font-specification:ArialMT;writing-mode:lr-tb;fill:#100f0d;fill-opacity:1;fill-rule:nonzero;stroke:none"
           id="text44"><tspan
             x="0 1.9459332 3.8918664 9.7226667 11.276613 14.776493 18.66836 20.614294 22.560226 26.452093"
             y="0"
             sodipodi:role="line"
             id="tspan40">, Mike, 40</tspan><tspan
             x="-21.805 -19.859066 -17.913134 -15.9672 -14.021267 -12.075334"
             y="8.4003897"
             sodipodi:role="line"
             id="tspan42">......</tspan></text><text
           transform="matrix(0.998624,0,0,-1,89.7875,101.666)"
           style="font-variant:normal;font-weight:normal;font-size:7.99981px;font-family:'Courier New';-inkscape-font-specification:Courier;writing-mode:lr-tb;fill:#100f0d;fill-opacity:1;fill-rule:nonzero;stroke:none"
           id="text48"><tspan
             x="0 4.7998862 9.5997725 14.399658 19.199545 23.99943 28.799316 33.599201 38.39909 43.198975 47.998859 52.798744 57.598633 62.398518 67.198402 71.998291"
             y="0"
             sodipodi:role="line"
             id="tspan46">Users/2020/04/01</tspan></text></g><path
         d="m 1448.64,871.512 h 853.86 c 64.3,0 116.43,-52.203 116.43,-116.598 V 210.781 c 0,-64.386 -52.13,-116.5974 -116.43,-116.5974 h -853.86 c -64.3,0 -116.44,52.2114 -116.44,116.5974 v 544.133 c 0,64.395 52.14,116.598 116.44,116.598"
         style="fill:#e0f2c3;fill-opacity:1;fill-rule:nonzero;stroke:none"
         id="path50" /><path
         d="m 1448.64,871.512 h 853.86 c 64.3,0 116.43,-52.203 116.43,-116.598 V 210.781 c 0,-64.386 -52.13,-116.5974 -116.43,-116.5974 h -853.86 c -64.3,0 -116.44,52.2114 -116.44,116.5974 v 544.133 c 0,64.395 52.14,116.598 116.44,116.598 z"
         style="fill:none;stroke:#298a3c;stroke-width:4.9691;stroke-linecap:butt;stroke-linejoin:miter;stroke-miterlimit:4;stroke-dasharray:none;stroke-opacity:1"
         id="path52" /><g
         id="g54"
         transform="scale(10)"><text
           transform="matrix(0.998624,0,0,-1,147.334,67.3496)"
           style="font-variant:normal;font-weight:bold;font-size:7.99981px;font-family:'Courier New';-inkscape-font-specification:Courier-Bold;writing-mode:lr-tb;fill:#100f0d;fill-opacity:1;fill-rule:nonzero;stroke:none"
           id="text58"><tspan
             x="0 4.7998862 9.5997725 14.399658 19.199545 23.99943 28.799316 33.599201 38.39909 43.198975 47.998859 52.798744 57.598633 62.398518 67.198402 71.998291 76.79818"
             y="0"
             sodipodi:role="line"
             id="tspan56">users_part_2.avro</tspan></text><text
           transform="matrix(0.998624,0,0,-1,143.45393,48.5894)"
           style="font-variant:normal;font-weight:normal;font-size:7.99981px;font-family:'Courier New';-inkscape-font-specification:Courier;writing-mode:lr-tb;fill:#100f0d;fill-opacity:1;fill-rule:nonzero;stroke:none"
           id="text62"><tspan
             x="0 4.7998862 9.5997725 14.399658 19.199545 23.99943 28.799316 33.599201 38.39909 43.198975 47.998859 52.798744"
             y="0"
             sodipodi:role="line"
             id="tspan60">user_id_1000</tspan></text><text
           transform="matrix(0.998624,0,0,-1,200.973,48.5891)"
           style="font-variant:normal;font-weight:normal;font-size:6.99976px;font-family:Arial;-inkscape-font-specification:ArialMT;writing-mode:lr-tb;fill:#100f0d;fill-opacity:1;fill-rule:nonzero;stroke:none"
           id="text66"><tspan
             x="0 1.9459332 3.8918664 8.1687202 12.060587 15.560467 19.060347 21.006279 22.952213 26.84408"
             y="0"
             sodipodi:role="line"
             id="tspan64">, Zack, 30</tspan></text><text
           transform="matrix(0.998624,0,0,-1,142.671,38.9895)"
           style="font-variant:normal;font-weight:normal;font-size:7.99981px;font-family:'Courier New';-inkscape-font-specification:Courier;writing-mode:lr-tb;fill:#100f0d;fill-opacity:1;fill-rule:nonzero;stroke:none"
           id="text70"><tspan
             x="0 4.7998862 9.5997725 14.399658 19.199545 23.99943 28.799316 33.599201 38.39909 43.198975 47.998859 52.798744"
             y="0"
             sodipodi:role="line"
             id="tspan68">user_id_1001</tspan></text><text
           transform="matrix(0.998624,0,0,-1,200.189,38.9895)"
           style="font-variant:normal;font-weight:normal;font-size:6.99976px;font-family:Arial;-inkscape-font-specification:ArialMT;writing-mode:lr-tb;fill:#100f0d;fill-opacity:1;fill-rule:nonzero;stroke:none"
           id="text76"><tspan
             x="0 1.9459332 3.8918664 8.945693 12.83756 16.729427 20.621292 22.567226 24.513159 28.405025"
             y="0"
             sodipodi:role="line"
             id="tspan72">, Doug, 40</tspan><tspan
             x="-18.4832 -16.537266 -14.591333 -12.6454 -10.699467 -8.7535334"
             y="8.4003897"
             sodipodi:role="line"
             id="tspan74">......</tspan></text></g></g></g></svg>
